NotoSerifBengali-ExtraCondensedLight.ufo
<glyph name="exclam" format="2">
  <advance width="247.63636363636363"/>
  <unicode hex="0021"/>
  <outline>
    <contour>
      <point x="106.18181818181817" y="189.36363636363637" type="line"/>
      <point x="142.72727272727275" y="189.36363636363637" type="line"/>
      <point x="158.9090909090909" y="714.0" type="line"/>
      <point x="90.0" y="714.0" type="line"/>
    </contour>
    <contour>
      <point x="124.27272727272727" y="-6.090909090909091" type="curve" smooth="yes"/>
      <point x="145.36363636363635" y="-6.090909090909091"/>
      <point x="164.8181818181818" y="6.636363636363637"/>
      <point x="164.8181818181818" y="45.45454545454546" type="curve" smooth="yes"/>
      <point x="164.8181818181818" y="84.72727272727272"/>
      <point x="145.36363636363635" y="97.45454545454545"/>
      <point x="124.27272727272727" y="97.45454545454545" type="curve" smooth="yes"/>
      <point x="100.72727272727273" y="97.45454545454545"/>
      <point x="82.81818181818181" y="84.72727272727272"/>
      <point x="82.81818181818181" y="45.45454545454546" type="curve" smooth="yes"/>
      <point x="82.81818181818181" y="6.636363636363637"/>
      <point x="100.72727272727273" y="-6.090909090909091"/>
    </contour>
  </outline>
</glyph>
<glyph name="quotedbl" format="2">
  <advance width="294.4545454545455"/>
  <unicode hex="0022"/>
  <outline>
    <contour>
      <point x="201.27272727272728" y="490.27272727272725" type="line"/>
      <point x="231.72727272727275" y="490.27272727272725" type="line"/>
      <point x="251.90909090909093" y="714.0" type="line"/>
      <point x="181.0909090909091" y="714.0" type="line"/>
    </contour>
    <contour>
      <point x="62.727272727272734" y="490.27272727272725" type="line"/>
      <point x="93.18181818181819" y="490.27272727272725" type="line"/>
      <point x="113.36363636363636" y="714.0" type="line"/>
      <point x="42.54545454545455" y="714.0" type="line"/>
    </contour>
  </outline>
</glyph>
<glyph name="quotesingle" format="2">
  <advance width="155.9090909090909"/>
  <unicode hex="0027"/>
  <outline>
    <contour>
      <point x="62.727272727272734" y="502.09090909090907" type="line"/>
      <point x="93.18181818181819" y="502.09090909090907" type="line"/>
      <point x="113.36363636363636" y="714.0" type="line"/>
      <point x="42.54545454545455" y="714.0" type="line"/>
    </contour>
  </outline>
</glyph>
<glyph name="parenleft" format="2">
  <advance width="255.36363636363637"/>
  <unicode hex="0028"/>
  <outline>
    <contour>
      <point x="231.36363636363637" y="-121.54545454545455" type="curve"/>
      <point x="231.36363636363637" y="-84.81818181818183" type="line"/>
      <point x="142.1818181818182" y="-24.09090909090909"/>
      <point x="108.63636363636363" y="129.8181818181818"/>
      <point x="108.63636363636363" y="316.09090909090907" type="curve" smooth="yes"/>
      <point x="108.63636363636363" y="502.3636363636363"/>
      <point x="142.1818181818182" y="655.1818181818181"/>
      <point x="231.36363636363637" y="716.4545454545455" type="curve"/>
      <point x="231.36363636363637" y="752.0909090909091" type="line"/>
      <point x="106.45454545454545" y="694.3636363636364"/>
      <point x="44.09090909090909" y="562.2727272727273"/>
      <point x="44.09090909090909" y="316.09090909090907" type="curve" smooth="yes"/>
      <point x="44.09090909090909" y="68.0"/>
      <point x="106.45454545454545" y="-62.72727272727273"/>
    </contour>
  </outline>
</glyph>
<glyph name="parenright" format="2">
  <advance width="255.36363636363635"/>
  <unicode hex="0029"/>
  <outline>
    <contour>
      <point x="24.090909090909093" y="-121.54545454545455" type="line"/>
      <point x="149.0" y="-62.72727272727273"/>
      <point x="211.36363636363637" y="68.0"/>
      <point x="211.36363636363637" y="316.09090909090907" type="curve" smooth="yes"/>
      <point x="211.36363636363637" y="562.2727272727273"/>
      <point x="149.0" y="694.3636363636364"/>
      <point x="24.090909090909093" y="752.0909090909091" type="curve"/>
      <point x="24.090909090909093" y="716.4545454545455" type="line"/>
      <point x="113.27272727272731" y="655.1818181818181"/>
      <point x="147.36363636363635" y="502.3636363636363"/>
      <point x="147.36363636363635" y="316.09090909090907" type="curve" smooth="yes"/>
      <point x="147.36363636363635" y="129.8181818181818"/>
      <point x="113.27272727272728" y="-24.09090909090909"/>
      <point x="24.090909090909093" y="-84.81818181818183" type="curve"/>
    </contour>
  </outline>
</glyph>
<glyph name="asterisk" format="2">
  <advance width="361.0"/>
  <unicode hex="002A"/>
  <outline>
    <contour>
      <point x="151.1818181818182" y="377.6363636363636" type="line"/>
      <point x="208.99999999999997" y="377.6363636363636" type="line"/>
      <point x="190.54545454545456" y="545.0909090909091" type="line"/>
      <point x="302.8181818181818" y="453.6363636363637" type="line"/>
      <point x="325.90909090909093" y="512.8181818181819" type="line"/>
      <point x="202.9090909090909" y="568.8181818181819" type="line"/>
      <point x="325.90909090909093" y="624.8181818181819" type="line"/>
      <point x="302.8181818181818" y="684.0" type="line"/>
      <point x="190.54545454545456" y="593.0909090909091" type="line"/>
      <point x="209.0" y="760.0" type="line"/>
      <point x="151.1818181818182" y="760.0" type="line"/>
      <point x="168.0909090909091" y="593.0" type="line"/>
      <point x="56.36363636363636" y="686.0" type="line"/>
      <point x="32.81818181818182" y="625.8181818181819" type="line"/>
      <point x="155.8181818181818" y="568.8181818181819" type="line"/>
      <point x="32.81818181818182" y="511.81818181818187" type="line"/>
      <point x="56.36363636363636" y="451.6363636363637" type="line"/>
      <point x="168.0909090909091" y="544.6363636363636" type="line"/>
    </contour>
  </outline>
</glyph>
<glyph name="plus" format="2">
  <advance width="425.0"/>
  <unicode hex="002B"/>
  <outline>
    <contour>
      <point x="189.27272727272728" y="143.0" type="line"/>
      <point x="235.0909090909091" y="143.0" type="line"/>
      <point x="235.0909090909091" y="335.81818181818187" type="line"/>
      <point x="378.8181818181818" y="335.81818181818187" type="line"/>
      <point x="378.8181818181818" y="379.6363636363636" type="line"/>
      <point x="235.0909090909091" y="379.6363636363636" type="line"/>
      <point x="235.0909090909091" y="572.0" type="line"/>
      <point x="189.27272727272728" y="572.0" type="line"/>
      <point x="189.27272727272728" y="379.6363636363636" type="line"/>
      <point x="46.18181818181818" y="379.6363636363636" type="line"/>
      <point x="46.18181818181818" y="335.81818181818187" type="line"/>
      <point x="189.27272727272728" y="335.81818181818187" type="line"/>
    </contour>
  </outline>
</glyph>
<glyph name="comma" format="2">
  <advance width="184.27272727272728"/>
  <unicode hex="002C"/>
  <outline>
    <contour>
      <point x="26.545454545454543" y="-154.0" type="line"/>
      <point x="107.9090909090909" y="-122.90909090909092"/>
      <point x="138.72727272727272" y="-54.72727272727273"/>
      <point x="138.72727272727272" y="14.18181818181818" type="curve" smooth="yes"/>
      <point x="138.72727272727272" y="71.27272727272727"/>
      <point x="114.72727272727275" y="97.0"/>
      <point x="85.09090909090911" y="97.0" type="curve" smooth="yes"/>
      <point x="62.63636363636365" y="97.0"/>
      <point x="45.27272727272727" y="81.0909090909091"/>
      <point x="45.27272727272727" y="56.27272727272727" type="curve" smooth="yes"/>
      <point x="45.27272727272727" y="12.727272727272727"/>
      <point x="93.09090909090908" y="11.0"/>
      <point x="93.09090909090908" y="-26.0" type="curve" smooth="yes"/>
      <point x="93.09090909090908" y="-61.0"/>
      <point x="72.45454545454545" y="-102.9090909090909"/>
      <point x="26.545454545454543" y="-121.45454545454545" type="curve"/>
    </contour>
  </outline>
</glyph>
<glyph name="hyphen" format="2">
  <advance width="241.45454545454547"/>
  <unicode hex="002D"/>
  <outline>
    <contour>
      <point x="20.0" y="246.45454545454547" type="line"/>
      <point x="221.45454545454547" y="246.45454545454547" type="line"/>
      <point x="221.45454545454547" y="299.0" type="line"/>
      <point x="20.0" y="299.0" type="line"/>
    </contour>
  </outline>
</glyph>
<glyph name="period" format="2">
  <advance width="184.27272727272728"/>
  <unicode hex="002E"/>
  <outline>
    <contour>
      <point x="93.0909090909091" y="-6.545454545454545" type="curve" smooth="yes"/>
      <point x="114.18181818181817" y="-6.545454545454545"/>
      <point x="133.1818181818182" y="6.181818181818182"/>
      <point x="133.1818181818182" y="45.0" type="curve" smooth="yes"/>
      <point x="133.1818181818182" y="84.27272727272727"/>
      <point x="114.18181818181817" y="97.0"/>
      <point x="93.0909090909091" y="97.0" type="curve" smooth="yes"/>
      <point x="69.54545454545455" y="97.0"/>
      <point x="51.09090909090909" y="84.27272727272727"/>
      <point x="51.09090909090909" y="45.0" type="curve" smooth="yes"/>
      <point x="51.09090909090909" y="6.181818181818182"/>
      <point x="69.54545454545455" y="-6.545454545454545"/>
    </contour>
  </outline>
</glyph>
<glyph name="slash" format="2">
  <advance width="223.9090909090909"/>
  <unicode hex="002F"/>
  <outline>
    <contour>
      <point x="0.0" y="-121.0" type="line"/>
      <point x="40.45454545454545" y="-120.45454545454545" type="line"/>
      <point x="223.9090909090909" y="760.0" type="line"/>
      <point x="184.54545454545453" y="760.0" type="line"/>
    </contour>
  </outline>
</glyph>
<glyph name="zero" format="2">
  <advance width="434.27272727272725"/>
  <unicode hex="0030"/>
  <outline>
    <contour>
      <point x="216.9090909090909" y="-10.0" type="curve" smooth="yes"/>
      <point x="337.0" y="-10.0"/>
      <point x="395.7272727272727" y="115.9090909090909"/>
      <point x="395.7272727272727" y="358.0" type="curve" smooth="yes"/>
      <point x="395.7272727272727" y="596.7272727272727"/>
      <point x="341.3636363636364" y="724.0"/>
      <point x="217.9090909090909" y="724.0" type="curve" smooth="yes"/>
      <point x="86.0" y="724.0"/>
      <point x="37.54545454545454" y="588.9090909090909"/>
      <point x="37.54545454545454" y="359.0" type="curve" smooth="yes"/>
      <point x="37.54545454545454" y="117.81818181818181"/>
      <point x="90.81818181818181" y="-10.0"/>
    </contour>
    <contour>
      <point x="216.90909090909093" y="28.636363636363637" type="curve" smooth="yes"/>
      <point x="131.0909090909091" y="28.636363636363637"/>
      <point x="99.9090909090909" y="149.72727272727275"/>
      <point x="99.9090909090909" y="358.0" type="curve" smooth="yes"/>
      <point x="99.9090909090909" y="566.2727272727273"/>
      <point x="131.0909090909091" y="685.3636363636363"/>
      <point x="217.90909090909093" y="685.3636363636363" type="curve" smooth="yes"/>
      <point x="302.72727272727275" y="685.3636363636363"/>
      <point x="334.45454545454544" y="566.2727272727273"/>
      <point x="334.45454545454544" y="358.0" type="curve" smooth="yes"/>
      <point x="334.45454545454544" y="149.72727272727272"/>
      <point x="302.72727272727275" y="28.636363636363637"/>
    </contour>
  </outline>
</glyph>
<glyph name="one" format="2">
  <advance width="434.27272727272725"/>
  <unicode hex="0031"/>
  <outline>
    <contour>
      <point x="82.18181818181819" y="0.0" type="line"/>
      <point x="370.09090909090907" y="0.0" type="line"/>
      <point x="370.09090909090907" y="31.454545454545453" type="line"/>
      <point x="322.0" y="31.454545454545453" type="line" smooth="yes"/>
      <point x="278.3636363636364" y="31.454545454545453"/>
      <point x="260.0" y="41.45454545454545"/>
      <point x="260.0" y="109.36363636363636" type="curve" smooth="yes"/>
      <point x="260.0" y="718.0" type="line"/>
      <point x="221.81818181818184" y="718.0" type="line"/>
      <point x="171.8181818181818" y="666.5454545454545" type="line" smooth="yes"/>
      <point x="122.0" y="615.3636363636364"/>
      <point x="87.18181818181819" y="599.1818181818182"/>
      <point x="54.27272727272727" y="589.1818181818181" type="curve"/>
      <point x="54.27272727272727" y="567.7272727272726"/>
      <point x="69.45454545454545" y="554.6363636363636"/>
      <point x="88.0" y="554.6363636363636" type="curve" smooth="yes"/>
      <point x="124.9090909090909" y="554.6363636363636"/>
      <point x="158.72727272727275" y="596.1818181818181"/>
      <point x="200.90909090909093" y="652.7272727272727" type="curve"/>
      <point x="200.90909090909093" y="109.36363636363636" type="line" smooth="yes"/>
      <point x="200.90909090909093" y="39.81818181818181"/>
      <point x="182.54545454545453" y="31.454545454545453"/>
      <point x="138.9090909090909" y="31.454545454545453" type="curve" smooth="yes"/>
      <point x="82.18181818181819" y="31.454545454545453" type="line"/>
    </contour>
  </outline>
</glyph>
<glyph name="two" format="2">
  <advance width="434.27272727272725"/>
  <unicode hex="0032"/>
  <outline>
    <contour>
      <point x="41.090909090909086" y="0.0" type="line"/>
      <point x="377.72727272727275" y="0.0" type="line"/>
      <point x="380.27272727272725" y="152.27272727272728" type="line"/>
      <point x="349.90909090909093" y="152.27272727272728" type="line"/>
      <point x="347.2727272727273" y="125.99999999999999" type="line" smooth="yes"/>
      <point x="341.9090909090909" y="77.18181818181819"/>
      <point x="331.54545454545456" y="54.72727272727273"/>
      <point x="283.45454545454544" y="54.72727272727273" type="curve" smooth="yes"/>
      <point x="92.72727272727272" y="54.72727272727273" type="line"/>
      <point x="236.9090909090909" y="269.9090909090909" type="line" smooth="yes"/>
      <point x="309.9090909090909" y="373.0909090909091"/>
      <point x="360.0" y="453.0"/>
      <point x="360.0" y="555.8181818181819" type="curve" smooth="yes"/>
      <point x="360.0" y="654.0909090909091"/>
      <point x="303.72727272727275" y="724.0"/>
      <point x="204.45454545454544" y="724.0" type="curve" smooth="yes"/>
      <point x="101.81818181818181" y="724.0"/>
      <point x="54.090909090909086" y="658.7272727272727"/>
      <point x="54.090909090909086" y="598.1818181818182" type="curve" smooth="yes"/>
      <point x="54.090909090909086" y="558.1818181818182"/>
      <point x="78.36363636363637" y="545.0"/>
      <point x="105.45454545454545" y="545.0" type="curve"/>
      <point x="105.45454545454545" y="621.0"/>
      <point x="129.27272727272728" y="685.9090909090909"/>
      <point x="204.45454545454544" y="685.9090909090909" type="curve" smooth="yes"/>
      <point x="269.3636363636364" y="685.9090909090909"/>
      <point x="297.6363636363636" y="630.8181818181819"/>
      <point x="297.6363636363636" y="548.6363636363636" type="curve" smooth="yes"/>
      <point x="297.6363636363636" y="461.3636363636364"/>
      <point x="267.45454545454544" y="388.6363636363636"/>
      <point x="187.27272727272728" y="269.09090909090907" type="curve" smooth="yes"/>
      <point x="41.090909090909086" y="46.54545454545455" type="line"/>
    </contour>
  </outline>
</glyph>
<glyph name="three" format="2">
  <advance width="434.27272727272725"/>
  <unicode hex="0033"/>
  <outline>
    <contour>
      <point x="201.45454545454547" y="-9.545454545454545" type="curve" smooth="yes"/>
      <point x="295.09090909090907" y="-9.545454545454545"/>
      <point x="383.2727272727273" y="52.09090909090909"/>
      <point x="383.2727272727273" y="193.27272727272725" type="curve" smooth="yes"/>
      <point x="383.2727272727273" y="323.0"/>
      <point x="311.6363636363636" y="369.3636363636364"/>
      <point x="238.72727272727272" y="377.0909090909091" type="curve"/>
      <point x="312.7272727272727" y="394.90909090909093"/>
      <point x="363.72727272727275" y="469.90909090909093"/>
      <point x="363.72727272727275" y="559.9090909090909" type="curve" smooth="yes"/>
      <point x="363.72727272727275" y="663.6363636363637"/>
      <point x="303.09090909090907" y="724.0"/>
      <point x="213.36363636363635" y="724.0" type="curve" smooth="yes"/>
      <point x="117.0909090909091" y="724.0"/>
      <point x="62.909090909090914" y="665.8181818181819"/>
      <point x="62.909090909090914" y="591.9090909090909" type="curve" smooth="yes"/>
      <point x="62.909090909090914" y="554.2727272727273"/>
      <point x="85.9090909090909" y="541.5454545454545"/>
      <point x="111.18181818181817" y="541.5454545454545" type="curve"/>
      <point x="111.18181818181819" y="623.7272727272727"/>
      <point x="136.45454545454544" y="685.9090909090909"/>
      <point x="209.54545454545456" y="685.9090909090909" type="curve" smooth="yes"/>
      <point x="271.27272727272725" y="685.9090909090909"/>
      <point x="301.9090909090909" y="638.0909090909091"/>
      <point x="301.9090909090909" y="554.5454545454545" type="curve" smooth="yes"/>
      <point x="301.9090909090909" y="452.6363636363636"/>
      <point x="250.1818181818182" y="391.3636363636364"/>
      <point x="176.0909090909091" y="391.3636363636364" type="curve"/>
      <point x="145.72727272727275" y="391.3636363636364" type="line"/>
      <point x="145.72727272727275" y="354.3636363636364" type="line"/>
      <point x="175.54545454545456" y="354.3636363636364" type="line" smooth="yes"/>
      <point x="274.45454545454544" y="354.3636363636364"/>
      <point x="321.45454545454544" y="296.0"/>
      <point x="321.45454545454544" y="194.27272727272725" type="curve" smooth="yes"/>
      <point x="321.45454545454544" y="85.45454545454545"/>
      <point x="270.6363636363637" y="30.181818181818183"/>
      <point x="200.9090909090909" y="30.181818181818183" type="curve" smooth="yes"/>
      <point x="129.45454545454544" y="30.181818181818183"/>
      <point x="90.72727272727272" y="78.27272727272727"/>
      <point x="90.72727272727272" y="151.8181818181818" type="curve"/>
      <point x="63.18181818181819" y="151.8181818181818"/>
      <point x="45.18181818181818" y="131.0"/>
      <point x="45.18181818181818" y="100.18181818181819" type="curve" smooth="yes"/>
      <point x="45.18181818181818" y="41.45454545454545"/>
      <point x="95.0909090909091" y="-9.545454545454545"/>
    </contour>
  </outline>
</glyph>
<glyph name="four" format="2">
  <advance width="434.27272727272725"/>
  <unicode hex="0034"/>
  <outline>
    <contour>
      <point x="177.72727272727272" y="0.0" type="line"/>
      <point x="397.90909090909093" y="0.0" type="line"/>
      <point x="397.90909090909093" y="31.454545454545453" type="line"/>
      <point x="386.5454545454545" y="31.454545454545453" type="line" smooth="yes"/>
      <point x="341.8181818181818" y="31.454545454545453"/>
      <point x="322.3636363636364" y="40.45454545454545"/>
      <point x="322.3636363636364" y="107.54545454545453" type="curve" smooth="yes"/>
      <point x="322.3636363636364" y="202.0" type="line"/>
      <point x="422.6363636363637" y="202.0" type="line"/>
      <point x="422.6363636363637" y="243.36363636363637" type="line"/>
      <point x="322.3636363636364" y="243.36363636363637" type="line"/>
      <point x="322.3636363636364" y="714.0" type="line"/>
      <point x="262.72727272727275" y="714.0" type="line"/>
      <point x="14.818181818181817" y="231.45454545454544" type="line"/>
      <point x="14.818181818181817" y="202.0" type="line"/>
      <point x="264.27272727272725" y="202.0" type="line"/>
      <point x="264.27272727272725" y="107.54545454545453" type="line" smooth="yes"/>
      <point x="264.27272727272725" y="40.45454545454545"/>
      <point x="245.36363636363637" y="31.454545454545453"/>
      <point x="200.54545454545453" y="31.454545454545453" type="curve" smooth="yes"/>
      <point x="177.72727272727272" y="31.454545454545453" type="line"/>
    </contour>
    <contour>
      <point x="60.54545454545455" y="243.36363636363637" type="line"/>
      <point x="190.45454545454544" y="497.3636363636364" type="line" smooth="yes"/>
      <point x="212.36363636363637" y="539.9090909090909"/>
      <point x="257.72727272727275" y="633.0909090909091"/>
      <point x="267.90909090909093" y="660.0909090909091" type="curve"/>
      <point x="264.8181818181818" y="597.1818181818181"/>
      <point x="264.27272727272725" y="500.8181818181818"/>
      <point x="264.27272727272725" y="442.8181818181818" type="curve" smooth="yes"/>
      <point x="264.27272727272725" y="243.36363636363637" type="line"/>
    </contour>
  </outline>
</glyph>
<glyph name="five" format="2">
  <advance width="434.27272727272725"/>
  <unicode hex="0035"/>
  <outline>
    <contour>
      <point x="193.9090909090909" y="-10.0" type="curve" smooth="yes"/>
      <point x="300.1818181818182" y="-10.0"/>
      <point x="376.1818181818182" y="74.54545454545455"/>
      <point x="376.1818181818182" y="217.09090909090907" type="curve" smooth="yes"/>
      <point x="376.1818181818182" y="355.2727272727273"/>
      <point x="301.8181818181818" y="426.27272727272725"/>
      <point x="197.1818181818182" y="426.27272727272725" type="curve" smooth="yes"/>
      <point x="160.9090909090909" y="426.27272727272725"/>
      <point x="128.63636363636363" y="416.3636363636364"/>
      <point x="107.27272727272727" y="406.0" type="curve"/>
      <point x="125.63636363636365" y="659.2727272727273" type="line"/>
      <point x="272.8181818181818" y="659.2727272727273" type="line" smooth="yes"/>
      <point x="310.27272727272725" y="659.2727272727273"/>
      <point x="313.45454545454544" y="650.0"/>
      <point x="319.2727272727273" y="605.6363636363636" type="curve" smooth="yes"/>
      <point x="322.45454545454544" y="582.8181818181818" type="line"/>
      <point x="352.8181818181818" y="582.8181818181818" type="line"/>
      <point x="349.81818181818187" y="714.0" type="line"/>
      <point x="95.54545454545455" y="714.0" type="line"/>
      <point x="69.9090909090909" y="363.2727272727273" type="line"/>
      <point x="86.18181818181817" y="356.0" type="line"/>
      <point x="107.63636363636364" y="371.1818181818182"/>
      <point x="142.0909090909091" y="387.0909090909091"/>
      <point x="188.9090909090909" y="387.0909090909091" type="curve" smooth="yes"/>
      <point x="266.0909090909091" y="387.0909090909091"/>
      <point x="313.8181818181818" y="328.45454545454544"/>
      <point x="313.8181818181818" y="217.0909090909091" type="curve" smooth="yes"/>
      <point x="313.8181818181818" y="80.9090909090909"/>
      <point x="262.27272727272725" y="29.181818181818183"/>
      <point x="190.63636363636363" y="29.181818181818183" type="curve" smooth="yes"/>
      <point x="115.72727272727272" y="29.181818181818183"/>
      <point x="83.9090909090909" y="82.27272727272728"/>
      <point x="83.9090909090909" y="141.8181818181818" type="curve"/>
      <point x="59.63636363636364" y="141.8181818181818"/>
      <point x="44.54545454545455" y="123.18181818181817"/>
      <point x="44.54545454545455" y="91.27272727272727" type="curve" smooth="yes"/>
      <point x="44.54545454545455" y="53.72727272727273"/>
      <point x="81.36363636363636" y="-10.0"/>
    </contour>
  </outline>
</glyph>
<glyph name="six" format="2">
  <advance width="434.27272727272725"/>
  <unicode hex="0036"/>
  <outline>
    <contour>
      <point x="229.72727272727272" y="-10.0" type="curve" smooth="yes"/>
      <point x="321.0909090909091" y="-10.0"/>
      <point x="390.4545454545455" y="67.54545454545456"/>
      <point x="390.4545454545455" y="223.0909090909091" type="curve" smooth="yes"/>
      <point x="390.4545454545455" y="355.09090909090907"/>
      <point x="332.90909090909093" y="431.1818181818182"/>
      <point x="238.54545454545453" y="431.1818181818182" type="curve" smooth="yes"/>
      <point x="175.8181818181818" y="431.1818181818182"/>
      <point x="134.81818181818184" y="395.0"/>
      <point x="112.18181818181819" y="367.6363636363636" type="curve"/>
      <point x="113.36363636363636" y="590.0"/>
      <point x="157.72727272727272" y="687.0"/>
      <point x="243.90909090909093" y="687.0" type="curve" smooth="yes"/>
      <point x="304.0909090909091" y="687.0"/>
      <point x="327.9090909090909" y="644.6363636363636"/>
      <point x="327.9090909090909" y="573.3636363636364" type="curve"/>
      <point x="355.9090909090909" y="573.3636363636364"/>
      <point x="373.0" y="586.0"/>
      <point x="373.0" y="621.7272727272727" type="curve" smooth="yes"/>
      <point x="373.0" y="677.090909090909"/>
      <point x="330.6363636363636" y="724.0"/>
      <point x="246.0" y="724.0" type="curve" smooth="yes"/>
      <point x="117.18181818181817" y="724.0"/>
      <point x="50.909090909090914" y="607.0"/>
      <point x="50.909090909090914" y="339.54545454545456" type="curve" smooth="yes"/>
      <point x="50.909090909090914" y="95.18181818181817"/>
      <point x="122.63636363636365" y="-10.0"/>
    </contour>
    <contour>
      <point x="231.27272727272728" y="28.636363636363637" type="curve" smooth="yes"/>
      <point x="156.63636363636365" y="28.636363636363637"/>
      <point x="113.63636363636364" y="122.54545454545455"/>
      <point x="111.63636363636365" y="322.45454545454544" type="curve"/>
      <point x="133.8181818181818" y="352.90909090909093"/>
      <point x="170.72727272727275" y="393.6363636363636"/>
      <point x="228.7272727272727" y="393.6363636363636" type="curve" smooth="yes"/>
      <point x="296.6363636363636" y="393.6363636363636"/>
      <point x="330.2727272727273" y="338.54545454545456"/>
      <point x="330.2727272727273" y="218.0909090909091" type="curve" smooth="yes"/>
      <point x="330.2727272727273" y="86.81818181818181"/>
      <point x="292.54545454545456" y="28.636363636363637"/>
    </contour>
  </outline>
</glyph>
<glyph name="seven" format="2">
  <advance width="434.27272727272725"/>
  <unicode hex="0037"/>
  <outline>
    <contour>
      <point x="139.0909090909091" y="0.0" type="line"/>
      <point x="186.54545454545456" y="0.0" type="line"/>
      <point x="391.6363636363636" y="689.2727272727273" type="line"/>
      <point x="391.6363636363636" y="714.0" type="line"/>
      <point x="48.27272727272727" y="714.0" type="line"/>
      <point x="43.72727272727273" y="551.4545454545455" type="line"/>
      <point x="75.72727272727273" y="551.4545454545455" type="line"/>
      <point x="79.27272727272727" y="604.3636363636364" type="line" smooth="yes"/>
      <point x="82.27272727272727" y="647.8181818181819"/>
      <point x="92.9090909090909" y="659.2727272727273"/>
      <point x="124.63636363636364" y="659.2727272727273" type="curve" smooth="yes"/>
      <point x="343.6363636363636" y="659.2727272727273" type="line"/>
    </contour>
  </outline>
</glyph>
<glyph name="eight" format="2">
  <advance width="434.27272727272725"/>
  <unicode hex="0038"/>
  <outline>
    <contour>
      <point x="217.0909090909091" y="-10.0" type="curve" smooth="yes"/>
      <point x="322.3636363636364" y="-10.0"/>
      <point x="394.0" y="57.727272727272734"/>
      <point x="394.0" y="175.27272727272725" type="curve" smooth="yes"/>
      <point x="394.0" y="281.6363636363636"/>
      <point x="344.3636363636364" y="330.90909090909093"/>
      <point x="264.1818181818182" y="376.72727272727275" type="curve"/>
      <point x="331.3636363636364" y="411.8181818181818"/>
      <point x="373.27272727272725" y="463.72727272727275"/>
      <point x="373.27272727272725" y="557.090909090909" type="curve" smooth="yes"/>
      <point x="373.27272727272725" y="652.7272727272727"/>
      <point x="317.54545454545456" y="724.0"/>
      <point x="219.9090909090909" y="724.0" type="curve" smooth="yes"/>
      <point x="112.81818181818183" y="724.0"/>
      <point x="59.272727272727266" y="647.3636363636364"/>
      <point x="59.272727272727266" y="549.8181818181819" type="curve" smooth="yes"/>
      <point x="59.272727272727266" y="463.54545454545456"/>
      <point x="105.9090909090909" y="409.3636363636364"/>
      <point x="171.8181818181818" y="371.0909090909091" type="curve"/>
      <point x="94.9090909090909" y="334.1818181818182"/>
      <point x="41.81818181818181" y="274.0909090909091"/>
      <point x="41.81818181818181" y="172.0909090909091" type="curve" smooth="yes"/>
      <point x="41.81818181818181" y="65.90909090909092"/>
      <point x="103.18181818181817" y="-10.0"/>
    </contour>
    <contour>
      <point x="218.1818181818182" y="28.09090909090909" type="curve" smooth="yes"/>
      <point x="140.8181818181818" y="28.09090909090909"/>
      <point x="99.27272727272728" y="83.54545454545455"/>
      <point x="99.27272727272728" y="173.27272727272728" type="curve" smooth="yes"/>
      <point x="99.27272727272728" y="251.9090909090909"/>
      <point x="129.9090909090909" y="313.3636363636364"/>
      <point x="203.36363636363635" y="351.0909090909091" type="curve"/>
      <point x="299.1818181818182" y="297.27272727272725"/>
      <point x="334.90909090909093" y="247.0"/>
      <point x="334.90909090909093" y="168.36363636363635" type="curve" smooth="yes"/>
      <point x="334.90909090909093" y="78.18181818181817"/>
      <point x="287.0" y="28.09090909090909"/>
    </contour>
    <contour>
      <point x="231.54545454545453" y="395.0909090909091" type="curve"/>
      <point x="157.72727272727275" y="435.6363636363636"/>
      <point x="117.81818181818181" y="476.4545454545455"/>
      <point x="117.81818181818181" y="559.0909090909091" type="curve" smooth="yes"/>
      <point x="117.81818181818181" y="634.4545454545455"/>
      <point x="154.63636363636365" y="685.9090909090909"/>
      <point x="218.81818181818184" y="685.9090909090909" type="curve" smooth="yes"/>
      <point x="289.3636363636364" y="685.9090909090909"/>
      <point x="318.54545454545456" y="622.0909090909091"/>
      <point x="318.54545454545456" y="556.0" type="curve" smooth="yes"/>
      <point x="318.54545454545456" y="477.7272727272727"/>
      <point x="298.27272727272725" y="434.3636363636364"/>
    </contour>
  </outline>
</glyph>
<glyph name="nine" format="2">
  <advance width="434.27272727272725"/>
  <unicode hex="0039"/>
  <outline>
    <contour>
      <point x="179.0909090909091" y="-11.909090909090908" type="curve"/>
      <point x="320.0" y="-11.909090909090908"/>
      <point x="383.4545454545455" y="123.90909090909092"/>
      <point x="383.4545454545455" y="388.0" type="curve" smooth="yes"/>
      <point x="383.4545454545455" y="630.090909090909"/>
      <point x="304.54545454545456" y="724.0"/>
      <point x="202.9090909090909" y="724.0" type="curve" smooth="yes"/>
      <point x="100.27272727272728" y="724.0"/>
      <point x="43.36363636363637" y="630.8181818181818"/>
      <point x="43.36363636363637" y="484.0" type="curve" smooth="yes"/>
      <point x="43.36363636363637" y="351.5454545454545"/>
      <point x="107.00000000000001" y="282.8181818181818"/>
      <point x="198.45454545454547" y="282.8181818181818" type="curve" smooth="yes"/>
      <point x="263.0" y="282.8181818181818"/>
      <point x="307.8181818181818" y="327.0"/>
      <point x="322.72727272727275" y="351.54545454545456" type="curve"/>
      <point x="317.27272727272725" y="129.63636363636365"/>
      <point x="276.6363636363636" y="28.90909090909091"/>
      <point x="183.36363636363637" y="28.90909090909091" type="curve" smooth="yes"/>
      <point x="127.72727272727272" y="28.90909090909091"/>
      <point x="101.36363636363637" y="65.45454545454545"/>
      <point x="88.27272727272727" y="102.36363636363636" type="curve"/>
      <point x="74.63636363636364" y="97.18181818181817"/>
      <point x="67.81818181818181" y="83.63636363636363"/>
      <point x="67.81818181818181" y="63.18181818181819" type="curve" smooth="yes"/>
      <point x="67.81818181818181" y="26.363636363636367"/>
      <point x="102.54545454545453" y="-11.909090909090908"/>
    </contour>
    <contour>
      <point x="210.45454545454547" y="320.90909090909093" type="curve" smooth="yes"/>
      <point x="138.9090909090909" y="322.54545454545456"/>
      <point x="104.0909090909091" y="376.72727272727275"/>
      <point x="104.0909090909091" y="488.0" type="curve" smooth="yes"/>
      <point x="104.0909090909091" y="612.4545454545455"/>
      <point x="135.36363636363635" y="685.3636363636364"/>
      <point x="205.0909090909091" y="685.3636363636364" type="curve" smooth="yes"/>
      <point x="278.4545454545455" y="685.3636363636364"/>
      <point x="322.18181818181813" y="597.5454545454545"/>
      <point x="323.8181818181818" y="398.0909090909091" type="curve"/>
      <point x="303.2727272727273" y="362.90909090909093"/>
      <point x="270.8181818181818" y="322.54545454545456"/>
    </contour>
  </outline>
</glyph>
<glyph name="colon" format="2">
  <advance width="184.18181818181822"/>
  <unicode hex="003A"/>
  <outline>
    <contour>
      <point x="92.54545454545455" y="418.54545454545456" type="curve" smooth="yes"/>
      <point x="113.63636363636363" y="418.54545454545456"/>
      <point x="133.0909090909091" y="430.27272727272725"/>
      <point x="133.0909090909091" y="469.54545454545456" type="curve" smooth="yes"/>
      <point x="133.0909090909091" y="508.8181818181818"/>
      <point x="113.63636363636363" y="520.5454545454546"/>
      <point x="92.54545454545455" y="520.5454545454546" type="curve" smooth="yes"/>
      <point x="69.0" y="520.5454545454546"/>
      <point x="51.09090909090909" y="508.8181818181818"/>
      <point x="51.09090909090909" y="469.54545454545456" type="curve" smooth="yes"/>
      <point x="51.09090909090909" y="430.27272727272725"/>
      <point x="69.0" y="418.54545454545456"/>
    </contour>
    <contour>
      <point x="92.54545454545455" y="-6.090909090909091" type="curve" smooth="yes"/>
      <point x="113.63636363636363" y="-6.090909090909091"/>
      <point x="133.0909090909091" y="6.181818181818182"/>
      <point x="133.0909090909091" y="45.45454545454546" type="curve" smooth="yes"/>
      <point x="133.0909090909091" y="84.72727272727272"/>
      <point x="113.63636363636363" y="97.0"/>
      <point x="92.54545454545455" y="97.0" type="curve" smooth="yes"/>
      <point x="69.0" y="97.0"/>
      <point x="51.09090909090909" y="84.72727272727272"/>
      <point x="51.09090909090909" y="45.45454545454546" type="curve" smooth="yes"/>
      <point x="51.09090909090909" y="6.181818181818182"/>
      <point x="69.0" y="-6.090909090909091"/>
    </contour>
  </outline>
</glyph>
<glyph name="semicolon" format="2">
  <advance width="194.36363636363635"/>
  <unicode hex="003B"/>
  <outline>
    <contour>
      <point x="26.545454545454543" y="-154.0" type="line"/>
      <point x="108.45454545454545" y="-122.90909090909092"/>
      <point x="139.27272727272728" y="-54.72727272727273"/>
      <point x="139.27272727272728" y="14.18181818181818" type="curve" smooth="yes"/>
      <point x="139.27272727272728" y="71.27272727272727"/>
      <point x="115.27272727272728" y="97.0"/>
      <point x="85.0909090909091" y="97.0" type="curve" smooth="yes"/>
      <point x="63.18181818181819" y="97.0"/>
      <point x="45.81818181818182" y="81.0909090909091"/>
      <point x="45.81818181818182" y="56.27272727272727" type="curve" smooth="yes"/>
      <point x="45.81818181818182" y="12.727272727272727"/>
      <point x="94.18181818181817" y="11.0"/>
      <point x="94.18181818181817" y="-26.0" type="curve"/>
      <point x="94.18181818181817" y="-61.54545454545455"/>
      <point x="73.54545454545455" y="-102.9090909090909"/>
      <point x="26.545454545454543" y="-121.45454545454545" type="curve"/>
    </contour>
    <contour>
      <point x="92.54545454545455" y="418.54545454545456" type="curve" smooth="yes"/>
      <point x="114.63636363636363" y="418.54545454545456"/>
      <point x="133.0909090909091" y="430.27272727272725"/>
      <point x="133.0909090909091" y="469.54545454545456" type="curve" smooth="yes"/>
      <point x="133.0909090909091" y="508.8181818181818"/>
      <point x="114.63636363636363" y="520.5454545454546"/>
      <point x="92.54545454545455" y="520.5454545454546" type="curve" smooth="yes"/>
      <point x="69.00000000000001" y="520.5454545454546"/>
      <point x="51.0909090909091" y="508.8181818181818"/>
      <point x="51.0909090909091" y="469.54545454545456" type="curve" smooth="yes"/>
      <point x="51.0909090909091" y="430.27272727272725"/>
      <point x="69.00000000000001" y="418.54545454545456"/>
    </contour>
  </outline>
</glyph>
<glyph name="equal" format="2">
  <advance width="423.6363636363636"/>
  <unicode hex="003D"/>
  <outline>
    <contour>
      <point x="46.18181818181818" y="432.09090909090907" type="line"/>
      <point x="377.45454545454544" y="432.09090909090907" type="line"/>
      <point x="377.45454545454544" y="476.4545454545455" type="line"/>
      <point x="46.18181818181818" y="476.4545454545455" type="line"/>
    </contour>
    <contour>
      <point x="46.18181818181818" y="238.0" type="line"/>
      <point x="377.45454545454544" y="238.0" type="line"/>
      <point x="377.45454545454544" y="282.3636363636364" type="line"/>
      <point x="46.18181818181818" y="282.3636363636364" type="line"/>
    </contour>
  </outline>
</glyph>
<glyph name="question" format="2">
  <advance width="384.72727272727275"/>
  <unicode hex="003F"/>
  <outline>
    <contour>
      <point x="157.18181818181816" y="189.90909090909093" type="line"/>
      <point x="190.63636363636363" y="189.90909090909093" type="line"/>
      <point x="197.0" y="323.0" type="line"/>
      <point x="291.54545454545456" y="371.1818181818182"/>
      <point x="338.1818181818182" y="436.9090909090909"/>
      <point x="338.1818181818182" y="549.2727272727273" type="curve" smooth="yes"/>
      <point x="338.1818181818182" y="661.8181818181819"/>
      <point x="276.1818181818182" y="724.0"/>
      <point x="180.63636363636365" y="724.0" type="curve" smooth="yes"/>
      <point x="83.63636363636363" y="724.0"/>
      <point x="35.81818181818181" y="668.5454545454545"/>
      <point x="35.81818181818181" y="612.0" type="curve" smooth="yes"/>
      <point x="35.81818181818181" y="574.4545454545455"/>
      <point x="57.18181818181819" y="560.2727272727273"/>
      <point x="86.27272727272728" y="560.2727272727273" type="curve"/>
      <point x="86.27272727272728" y="633.8181818181818"/>
      <point x="110.0" y="686.4545454545454"/>
      <point x="180.0909090909091" y="686.4545454545454" type="curve" smooth="yes"/>
      <point x="243.8181818181818" y="686.4545454545454"/>
      <point x="276.3636363636364" y="630.0"/>
      <point x="276.3636363636364" y="548.9090909090909" type="curve" smooth="yes"/>
      <point x="276.3636363636364" y="457.3636363636364"/>
      <point x="242.36363636363637" y="389.90909090909093"/>
      <point x="150.9090909090909" y="341.90909090909093" type="curve"/>
    </contour>
    <contour>
      <point x="174.0909090909091" y="-6.090909090909091" type="curve" smooth="yes"/>
      <point x="197.63636363636363" y="-6.090909090909091"/>
      <point x="217.0909090909091" y="6.1818181818181825"/>
      <point x="217.0909090909091" y="45.45454545454545" type="curve" smooth="yes"/>
      <point x="217.0909090909091" y="84.72727272727273"/>
      <point x="197.63636363636363" y="97.0"/>
      <point x="174.0909090909091" y="97.0" type="curve" smooth="yes"/>
      <point x="152.0" y="97.0"/>
      <point x="134.0909090909091" y="84.72727272727273"/>
      <point x="134.0909090909091" y="45.45454545454545" type="curve" smooth="yes"/>
      <point x="134.0909090909091" y="6.1818181818181825"/>
      <point x="152.0" y="-6.090909090909091"/>
    </contour>
  </outline>
</glyph>
<glyph name="bracketright" format="2">
  <advance width="267.3636363636364"/>
  <unicode hex="005D"/>
  <outline>
    <contour>
      <point x="28.636363636363633" y="-128.0" type="line"/>
      <point x="189.27272727272725" y="-128.0" type="line"/>
      <point x="189.27272727272725" y="760.0" type="line"/>
      <point x="28.636363636363633" y="760.0" type="line"/>
      <point x="28.636363636363633" y="728.5454545454546" type="line"/>
      <point x="67.0909090909091" y="728.5454545454546" type="line" smooth="yes"/>
      <point x="109.45454545454545" y="728.5454545454546"/>
      <point x="128.0" y="718.6363636363636"/>
      <point x="128.0" y="649.2727272727273" type="curve" smooth="yes"/>
      <point x="128.0" y="-17.272727272727273" type="line" smooth="yes"/>
      <point x="128.0" y="-86.63636363636364"/>
      <point x="109.45454545454545" y="-96.54545454545455"/>
      <point x="67.0909090909091" y="-96.54545454545455" type="curve" smooth="yes"/>
      <point x="28.636363636363633" y="-96.54545454545455" type="line"/>
    </contour>
  </outline>
</glyph>
<glyph name="asciicircum" format="2">
  <advance width="424.0"/>
  <unicode hex="005E"/>
  <outline>
    <contour>
      <point x="34.54545454545455" y="268.8181818181818" type="line"/>
      <point x="79.0909090909091" y="268.8181818181818" type="line"/>
      <point x="211.0" y="642.6363636363636" type="line"/>
      <point x="344.3636363636363" y="268.8181818181818" type="line"/>
      <point x="389.4545454545455" y="268.8181818181818" type="line"/>
      <point x="224.63636363636365" y="714.0" type="line"/>
      <point x="197.9090909090909" y="714.0" type="line"/>
    </contour>
  </outline>
</glyph>
<glyph name="underscore" format="2">
  <advance width="355.1818181818182"/>
  <unicode hex="005F"/>
  <outline>
    <contour>
      <point x="-4.454545454545454" y="-126.54545454545455" type="line"/>
      <point x="359.6363636363636" y="-126.54545454545455" type="line"/>
      <point x="359.6363636363636" y="-83.0" type="line"/>
      <point x="-4.454545454545454" y="-83.0" type="line"/>
    </contour>
  </outline>
</glyph>
<glyph name="braceleft" format="2">
  <advance width="328.7272727272727"/>
  <unicode hex="007B"/>
  <outline>
    <contour>
      <point x="244.36363636363635" y="-129.8181818181818" type="curve" smooth="yes"/>
      <point x="285.54545454545456" y="-129.8181818181818" type="line"/>
      <point x="285.54545454545456" y="-95.54545454545455" type="line"/>
      <point x="264.6363636363637" y="-95.54545454545455" type="line" smooth="yes"/>
      <point x="216.8181818181818" y="-95.54545454545455"/>
      <point x="197.54545454545453" y="-58.54545454545455"/>
      <point x="197.54545454545453" y="16.272727272727273" type="curve" smooth="yes"/>
      <point x="197.54545454545453" y="184.27272727272725" type="line" smooth="yes"/>
      <point x="197.54545454545453" y="259.45454545454544"/>
      <point x="168.1818181818182" y="304.0909090909091"/>
      <point x="113.72727272727273" y="315.18181818181813" type="curve"/>
      <point x="113.72727272727273" y="316.6363636363636" type="line"/>
      <point x="168.1818181818182" y="327.1818181818182"/>
      <point x="197.54545454545453" y="372.7272727272727"/>
      <point x="197.54545454545453" y="447.3636363636364" type="curve" smooth="yes"/>
      <point x="197.54545454545453" y="612.9090909090909" type="line" smooth="yes"/>
      <point x="197.54545454545453" y="689.2727272727273"/>
      <point x="216.8181818181818" y="725.7272727272727"/>
      <point x="264.6363636363636" y="725.7272727272727" type="curve" smooth="yes"/>
      <point x="285.54545454545456" y="725.7272727272727" type="line"/>
      <point x="285.54545454545456" y="760.0" type="line"/>
      <point x="243.45454545454544" y="760.0" type="line" smooth="yes"/>
      <point x="173.1818181818182" y="760.0"/>
      <point x="136.1818181818182" y="706.6363636363636"/>
      <point x="136.1818181818182" y="618.8181818181819" type="curve" smooth="yes"/>
      <point x="136.1818181818182" y="450.2727272727273" type="line" smooth="yes"/>
      <point x="136.1818181818182" y="358.8181818181818"/>
      <point x="96.18181818181817" y="336.2727272727273"/>
      <point x="42.72727272727273" y="332.0" type="curve"/>
      <point x="42.72727272727273" y="299.27272727272725" type="line"/>
      <point x="96.18181818181817" y="294.45454545454544"/>
      <point x="136.1818181818182" y="273.3636363636364"/>
      <point x="136.1818181818182" y="180.8181818181818" type="curve" smooth="yes"/>
      <point x="136.1818181818182" y="12.363636363636363" type="line" smooth="yes"/>
      <point x="136.1818181818182" y="-74.81818181818183"/>
      <point x="172.72727272727272" y="-129.8181818181818"/>
    </contour>
  </outline>
</glyph>
<glyph name="braceright" format="2">
  <advance width="307.3636363636364"/>
  <unicode hex="007D"/>
  <outline>
    <contour>
      <point x="43.18181818181818" y="-129.8181818181818" type="line"/>
      <point x="84.9090909090909" y="-129.8181818181818" type="line" smooth="yes"/>
      <point x="156.54545454545453" y="-129.8181818181818"/>
      <point x="192.54545454545456" y="-74.81818181818183"/>
      <point x="192.54545454545456" y="12.363636363636363" type="curve" smooth="yes"/>
      <point x="192.54545454545456" y="180.8181818181818" type="line" smooth="yes"/>
      <point x="192.54545454545456" y="273.3636363636364"/>
      <point x="233.63636363636365" y="294.45454545454544"/>
      <point x="286.0" y="299.27272727272725" type="curve"/>
      <point x="286.0" y="332.0" type="line"/>
      <point x="233.63636363636365" y="336.2727272727273"/>
      <point x="192.54545454545456" y="358.8181818181818"/>
      <point x="192.54545454545456" y="450.2727272727273" type="curve" smooth="yes"/>
      <point x="192.54545454545456" y="618.8181818181819" type="line" smooth="yes"/>
      <point x="192.54545454545456" y="706.6363636363636"/>
      <point x="156.0909090909091" y="760.0"/>
      <point x="85.81818181818181" y="760.0" type="curve" smooth="yes"/>
      <point x="43.18181818181818" y="760.0" type="line"/>
      <point x="43.18181818181818" y="725.7272727272727" type="line"/>
      <point x="64.63636363636363" y="725.7272727272727" type="line" smooth="yes"/>
      <point x="113.00000000000001" y="725.7272727272727"/>
      <point x="131.1818181818182" y="689.2727272727273"/>
      <point x="131.1818181818182" y="612.9090909090909" type="curve" smooth="yes"/>
      <point x="131.1818181818182" y="447.3636363636364" type="line" smooth="yes"/>
      <point x="131.1818181818182" y="372.7272727272727"/>
      <point x="161.09090909090912" y="327.1818181818182"/>
      <point x="216.0909090909091" y="316.6363636363636" type="curve"/>
      <point x="216.0909090909091" y="315.18181818181813" type="line"/>
      <point x="160.0" y="304.0909090909091"/>
      <point x="131.1818181818182" y="259.45454545454544"/>
      <point x="131.1818181818182" y="184.27272727272725" type="curve" smooth="yes"/>
      <point x="131.1818181818182" y="16.272727272727273" type="line" smooth="yes"/>
      <point x="131.1818181818182" y="-58.54545454545455"/>
      <point x="113.00000000000001" y="-95.54545454545455"/>
      <point x="64.63636363636364" y="-95.54545454545455" type="curve" smooth="yes"/>
      <point x="43.18181818181818" y="-95.54545454545455" type="line"/>
    </contour>
  </outline>
</glyph>
<glyph name="asciitilde" format="2">
  <advance width="425.0"/>
  <unicode hex="007E"/>
  <outline>
    <contour>
      <point x="37.72727272727273" y="273.1818181818182" type="curve"/>
      <point x="79.36363636363637" y="273.1818181818182" type="line"/>
      <point x="87.72727272727272" y="352.3636363636364"/>
      <point x="99.36363636363635" y="398.0909090909091"/>
      <point x="134.0" y="398.0909090909091" type="curve" smooth="yes"/>
      <point x="155.0" y="398.0909090909091"/>
      <point x="169.0909090909091" y="380.9090909090909"/>
      <point x="200.81818181818184" y="339.54545454545456" type="curve" smooth="yes"/>
      <point x="241.45454545454544" y="287.0909090909091"/>
      <point x="263.5454545454545" y="273.6363636363636"/>
      <point x="294.9090909090909" y="273.6363636363636" type="curve" smooth="yes"/>
      <point x="364.0909090909091" y="273.6363636363636"/>
      <point x="382.0" y="364.72727272727275"/>
      <point x="388.90909090909093" y="439.9090909090909" type="curve"/>
      <point x="346.72727272727275" y="439.9090909090909" type="line"/>
      <point x="338.90909090909093" y="360.72727272727275"/>
      <point x="327.3636363636364" y="315.9090909090909"/>
      <point x="293.2727272727273" y="315.9090909090909" type="curve" smooth="yes"/>
      <point x="271.7272727272727" y="315.9090909090909"/>
      <point x="257.72727272727275" y="332.7272727272727"/>
      <point x="226.45454545454547" y="373.0" type="curve" smooth="yes"/>
      <point x="191.27272727272728" y="416.6363636363636"/>
      <point x="168.0909090909091" y="440.3636363636364"/>
      <point x="132.36363636363637" y="440.3636363636364" type="curve" smooth="yes"/>
      <point x="61.00000000000001" y="440.3636363636364"/>
      <point x="44.63636363636363" y="349.4545454545455"/>
    </contour>
  </outline>
</glyph>
<glyph name="multiply" format="2">
  <advance width="425.00000000000006"/>
  <unicode hex="00D7"/>
  <outline>
    <contour>
      <point x="82.45454545454545" y="150.54545454545456" type="line"/>
      <point x="216.8181818181818" y="325.8181818181818" type="line"/>
      <point x="351.1818181818182" y="150.54545454545456" type="line"/>
      <point x="385.0909090909091" y="177.8181818181818" type="line"/>
      <point x="244.63636363636365" y="360.2727272727273" type="line"/>
      <point x="385.0909090909091" y="543.0909090909091" type="line"/>
      <point x="351.6363636363636" y="569.9090909090909" type="line"/>
      <point x="216.8181818181818" y="395.72727272727275" type="line"/>
      <point x="82.54545454545455" y="570.4545454545455" type="line"/>
      <point x="48.545454545454554" y="543.6363636363636" type="line"/>
      <point x="189.54545454545453" y="360.27272727272725" type="line"/>
      <point x="48.54545454545455" y="177.27272727272725" type="line"/>
    </contour>
  </outline>
</glyph>
<glyph name="divide" format="2">
  <advance width="425.0"/>
  <unicode hex="00F7"/>
  <outline>
    <contour>
      <point x="46.18181818181818" y="335.81818181818187" type="line"/>
      <point x="378.8181818181818" y="335.81818181818187" type="line"/>
      <point x="378.8181818181818" y="379.6363636363636" type="line"/>
      <point x="46.18181818181818" y="379.6363636363636" type="line"/>
    </contour>
    <contour>
      <point x="213.0" y="122.18181818181817" type="curve" smooth="yes"/>
      <point x="233.81818181818178" y="122.18181818181817"/>
      <point x="249.63636363636365" y="133.45454545454547"/>
      <point x="249.63636363636365" y="168.0" type="curve" smooth="yes"/>
      <point x="249.63636363636365" y="204.0"/>
      <point x="233.81818181818178" y="214.72727272727275"/>
      <point x="213.0" y="214.72727272727275" type="curve" smooth="yes"/>
      <point x="191.1818181818182" y="214.72727272727275"/>
      <point x="176.27272727272728" y="204.0"/>
      <point x="176.27272727272728" y="168.0" type="curve" smooth="yes"/>
      <point x="176.27272727272728" y="133.45454545454547"/>
      <point x="191.1818181818182" y="122.18181818181817"/>
    </contour>
    <contour>
      <point x="213.0" y="502.09090909090907" type="curve" smooth="yes"/>
      <point x="233.81818181818178" y="502.09090909090907"/>
      <point x="249.63636363636365" y="513.3636363636364"/>
      <point x="249.63636363636365" y="547.9090909090909" type="curve" smooth="yes"/>
      <point x="249.63636363636365" y="583.9090909090909"/>
      <point x="233.81818181818178" y="594.6363636363636"/>
      <point x="213.0" y="594.6363636363636" type="curve" smooth="yes"/>
      <point x="191.1818181818182" y="594.6363636363636"/>
      <point x="176.27272727272728" y="583.9090909090909"/>
      <point x="176.27272727272728" y="547.9090909090909" type="curve" smooth="yes"/>
      <point x="176.27272727272728" y="513.3636363636364"/>
      <point x="191.1818181818182" y="502.09090909090907"/>
    </contour>
  </outline>
</glyph>
<glyph name="anudatta-deva" format="2">
  <unicode hex="0952"/>
  <anchor x="-299.0" y="361.8181818181818" name="_vedic"/>
  <outline>
    <contour>
      <point x="-457.1818181818182" y="-136.27272727272728" type="line"/>
      <point x="-140.27272727272728" y="-136.27272727272728" type="line"/>
      <point x="-140.27272727272728" y="-98.81818181818181" type="line"/>
      <point x="-457.1818181818182" y="-98.81818181818181" type="line"/>
    </contour>
  </outline>
</glyph>
<glyph name="dbldanda-deva" format="2">
  <advance width="455.8181818181818"/>
  <unicode hex="0965"/>
  <outline>
    <contour>
      <point x="386.00000000000006" y="-17.09090909090909" type="line"/>
      <point x="389.00000000000006" y="-16.09090909090909" type="line"/>
      <point x="389.00000000000006" y="589.5454545454545" type="line"/>
      <point x="352.0909090909091" y="617.4545454545455" type="line"/>
      <point x="349.0909090909091" y="617.4545454545455" type="line"/>
      <point x="349.0909090909091" y="4.090909090909091" type="line"/>
    </contour>
    <contour>
      <point x="266.0" y="-17.09090909090909" type="line"/>
      <point x="269.0" y="-16.09090909090909" type="line"/>
      <point x="269.0" y="589.5454545454545" type="line"/>
      <point x="232.09090909090907" y="617.4545454545455" type="line"/>
      <point x="229.09090909090907" y="617.4545454545455" type="line"/>
      <point x="229.09090909090907" y="4.090909090909091" type="line"/>
    </contour>
  </outline>
</glyph>
<glyph name="anji-beng" format="2">
  <advance width="388.72727272727275"/>
  <unicode hex="0980"/>
  <anchor x="213.1818181818182" y="584.5454545454545" name="top"/>
  <outline>
    <contour>
      <point x="318.8181818181818" y="10.0" type="curve" smooth="yes"/>
      <point x="347.6363636363636" y="10.0"/>
      <point x="364.8181818181818" y="31.545454545454547"/>
      <point x="364.8181818181818" y="61.18181818181818" type="curve" smooth="yes"/>
      <point x="364.8181818181818" y="91.18181818181819"/>
      <point x="346.3636363636364" y="112.18181818181817"/>
      <point x="320.8181818181818" y="112.18181818181817" type="curve" smooth="yes"/>
      <point x="296.3636363636364" y="112.18181818181817"/>
      <point x="286.6363636363636" y="95.81818181818181"/>
      <point x="284.6363636363636" y="73.72727272727272" type="curve"/>
      <point x="299.54545454545456" y="72.81818181818181" type="line"/>
      <point x="299.54545454545456" y="495.09090909090907" type="line" smooth="yes"/>
      <point x="299.54545454545456" y="567.2727272727273"/>
      <point x="265.54545454545456" y="623.8181818181819"/>
      <point x="195.81818181818184" y="623.8181818181819" type="curve" smooth="yes"/>
      <point x="112.8181818181818" y="623.8181818181819"/>
      <point x="46.0" y="541.090909090909"/>
      <point x="46.0" y="430.4545454545455" type="curve" smooth="yes"/>
      <point x="46.0" y="327.1818181818182"/>
      <point x="98.54545454545453" y="269.0909090909091"/>
      <point x="160.1818181818182" y="269.0909090909091" type="curve" smooth="yes"/>
      <point x="200.6363636363636" y="269.0909090909091"/>
      <point x="223.0909090909091" y="295.45454545454544"/>
      <point x="223.0909090909091" y="335.45454545454544" type="curve" smooth="yes"/>
      <point x="223.0909090909091" y="373.8181818181818"/>
      <point x="201.54545454545453" y="397.0"/>
      <point x="172.8181818181818" y="397.0" type="curve" smooth="yes"/>
      <point x="143.90909090909093" y="397.0"/>
      <point x="124.09090909090911" y="374.27272727272725"/>
      <point x="124.09090909090911" y="340.1818181818182" type="curve" smooth="yes"/>
      <point x="124.09090909090911" y="325.09090909090907"/>
      <point x="128.9090909090909" y="311.0"/>
      <point x="133.27272727272728" y="304.0909090909091" type="curve"/>
      <point x="158.36363636363635" y="320.8181818181818" type="line"/>
      <point x="151.27272727272728" y="317.2727272727273"/>
      <point x="144.63636363636365" y="316.2727272727273"/>
      <point x="138.0" y="316.2727272727273" type="curve" smooth="yes"/>
      <point x="109.27272727272728" y="316.2727272727273"/>
      <point x="85.9090909090909" y="354.7272727272727"/>
      <point x="85.9090909090909" y="412.1818181818182" type="curve" smooth="yes"/>
      <point x="85.9090909090909" y="504.4545454545454"/>
      <point x="150.81818181818184" y="579.6363636363636"/>
      <point x="208.9090909090909" y="579.6363636363636" type="curve" smooth="yes"/>
      <point x="245.0" y="579.6363636363636"/>
      <point x="261.72727272727275" y="550.6363636363636"/>
      <point x="261.72727272727275" y="498.90909090909093" type="curve" smooth="yes"/>
      <point x="261.72727272727275" y="83.81818181818181" type="line" smooth="yes"/>
      <point x="261.72727272727275" y="39.54545454545455"/>
      <point x="284.72727272727275" y="10.0"/>
    </contour>
  </outline>
</glyph>
<glyph name="candrabindu-beng" format="2">
  <unicode hex="0981"/>
  <anchor x="0.0" y="622.0" name="_top"/>
  <outline>
    <contour>
      <point x="-12.181818181818183" y="730.0" type="curve" smooth="yes"/>
      <point x="55.81818181818182" y="730.0"/>
      <point x="83.18181818181817" y="787.6363636363636"/>
      <point x="91.81818181818183" y="875.1818181818181" type="curve"/>
      <point x="67.18181818181817" y="882.8181818181818" type="line"/>
      <point x="58.09090909090909" y="819.9090909090909"/>
      <point x="38.81818181818182" y="778.7272727272727"/>
      <point x="-12.818181818181818" y="778.7272727272727" type="curve" smooth="yes"/>
      <point x="-61.090909090909086" y="778.7272727272727"/>
      <point x="-85.0" y="821.2727272727273"/>
      <point x="-98.90909090909092" y="882.8181818181818" type="curve"/>
      <point x="-123.54545454545455" y="875.1818181818181" type="line"/>
      <point x="-111.09090909090908" y="787.6363636363636"/>
      <point x="-76.36363636363636" y="730.0"/>
    </contour>
    <contour>
      <point x="-13.727272727272728" y="838.2727272727273" type="curve" smooth="yes"/>
      <point x="8.090909090909092" y="838.2727272727273"/>
      <point x="22.181818181818183" y="855.4545454545455"/>
      <point x="22.181818181818183" y="881.2727272727274" type="curve" smooth="yes"/>
      <point x="22.181818181818183" y="907.6363636363636"/>
      <point x="8.09090909090909" y="924.3636363636364"/>
      <point x="-13.727272727272728" y="924.3636363636364" type="curve" smooth="yes"/>
      <point x="-36.54545454545455" y="924.3636363636364"/>
      <point x="-50.72727272727273" y="907.6363636363636"/>
      <point x="-50.72727272727273" y="881.2727272727274" type="curve" smooth="yes"/>
      <point x="-50.72727272727273" y="855.4545454545455"/>
      <point x="-36.54545454545455" y="838.2727272727273"/>
    </contour>
  </outline>
</glyph>
<glyph name="anusvara-beng" format="2">
  <advance width="281.9090909090909"/>
  <unicode hex="0982"/>
  <anchor x="-152.90909090909093" y="0.0" name="vedic"/>
  <outline>
    <contour>
      <point x="137.0909090909091" y="371.8181818181818" type="curve" smooth="yes"/>
      <point x="193.45454545454547" y="371.8181818181818"/>
      <point x="234.18181818181822" y="425.90909090909093"/>
      <point x="234.18181818181822" y="504.27272727272725" type="curve" smooth="yes"/>
      <point x="234.18181818181822" y="572.4545454545455"/>
      <point x="203.81818181818178" y="625.2727272727273"/>
      <point x="144.54545454545456" y="625.2727272727273" type="curve" smooth="yes"/>
      <point x="87.90909090909092" y="625.2727272727273"/>
      <point x="48.18181818181818" y="570.7272727272727"/>
      <point x="48.18181818181818" y="495.6363636363636" type="curve" smooth="yes"/>
      <point x="48.18181818181818" y="426.45454545454544"/>
      <point x="81.0" y="371.8181818181818"/>
    </contour>
    <contour>
      <point x="129.1818181818182" y="409.45454545454544" type="curve" smooth="yes"/>
      <point x="103.99999999999999" y="409.45454545454544"/>
      <point x="86.45454545454545" y="435.0"/>
      <point x="86.45454545454545" y="476.0" type="curve" smooth="yes"/>
      <point x="86.45454545454545" y="529.0909090909091"/>
      <point x="116.72727272727273" y="584.9090909090909"/>
      <point x="155.9090909090909" y="584.9090909090909" type="curve" smooth="yes"/>
      <point x="181.09090909090907" y="584.9090909090909"/>
      <point x="197.36363636363637" y="559.5454545454545"/>
      <point x="197.36363636363637" y="524.6363636363636" type="curve" smooth="yes"/>
      <point x="197.36363636363637" y="469.6363636363636"/>
      <point x="166.72727272727275" y="409.45454545454544"/>
    </contour>
    <contour>
      <point x="237.27272727272728" y="-31.636363636363637" type="curve"/>
      <point x="259.45454545454544" y="-18.90909090909091" type="line"/>
      <point x="217.8181818181818" y="105.54545454545455"/>
      <point x="152.9090909090909" y="221.54545454545453"/>
      <point x="82.81818181818183" y="299.2727272727273" type="curve"/>
      <point x="49.54545454545455" y="242.0909090909091" type="line"/>
      <point x="120.54545454545453" y="179.0"/>
      <point x="179.90909090909088" y="88.90909090909092"/>
    </contour>
  </outline>
</glyph>
<glyph name="visarga-beng" format="2">
  <advance width="282.3636363636364"/>
  <unicode hex="0983"/>
  <anchor x="-152.90909090909093" y="0.0" name="vedic"/>
  <outline>
    <contour>
      <point x="137.0909090909091" y="371.8181818181818" type="curve" smooth="yes"/>
      <point x="193.45454545454544" y="371.8181818181818"/>
      <point x="234.18181818181816" y="425.90909090909093"/>
      <point x="234.18181818181816" y="504.27272727272725" type="curve" smooth="yes"/>
      <point x="234.18181818181816" y="572.4545454545454"/>
      <point x="203.81818181818178" y="625.2727272727274"/>
      <point x="144.54545454545453" y="625.2727272727274" type="curve" smooth="yes"/>
      <point x="87.90909090909092" y="625.2727272727274"/>
      <point x="48.18181818181818" y="570.7272727272727"/>
      <point x="48.18181818181818" y="495.6363636363636" type="curve" smooth="yes"/>
      <point x="48.18181818181818" y="426.45454545454544"/>
      <point x="81.0" y="371.8181818181818"/>
    </contour>
    <contour>
      <point x="129.1818181818182" y="409.45454545454544" type="curve" smooth="yes"/>
      <point x="103.99999999999999" y="409.45454545454544"/>
      <point x="86.45454545454545" y="435.0"/>
      <point x="86.45454545454545" y="476.0" type="curve" smooth="yes"/>
      <point x="86.45454545454545" y="529.0909090909091"/>
      <point x="116.72727272727273" y="584.9090909090909"/>
      <point x="155.9090909090909" y="584.9090909090909" type="curve" smooth="yes"/>
      <point x="181.09090909090912" y="584.9090909090909"/>
      <point x="197.36363636363635" y="559.5454545454546"/>
      <point x="197.36363636363635" y="524.6363636363636" type="curve" smooth="yes"/>
      <point x="197.36363636363635" y="469.6363636363636"/>
      <point x="166.72727272727272" y="409.45454545454544"/>
    </contour>
    <contour>
      <point x="137.0909090909091" y="6.7272727272727275" type="curve" smooth="yes"/>
      <point x="193.45454545454544" y="6.7272727272727275"/>
      <point x="234.18181818181816" y="60.81818181818182"/>
      <point x="234.18181818181816" y="139.1818181818182" type="curve" smooth="yes"/>
      <point x="234.18181818181816" y="207.36363636363635"/>
      <point x="203.81818181818178" y="260.1818181818182"/>
      <point x="144.54545454545453" y="260.1818181818182" type="curve" smooth="yes"/>
      <point x="87.90909090909092" y="260.1818181818182"/>
      <point x="48.18181818181818" y="205.63636363636365"/>
      <point x="48.18181818181818" y="130.54545454545456" type="curve" smooth="yes"/>
      <point x="48.18181818181818" y="61.36363636363637"/>
      <point x="81.0" y="6.7272727272727275"/>
    </contour>
    <contour>
      <point x="129.1818181818182" y="44.36363636363636" type="curve" smooth="yes"/>
      <point x="103.99999999999999" y="44.36363636363636"/>
      <point x="86.45454545454545" y="69.9090909090909"/>
      <point x="86.45454545454545" y="110.9090909090909" type="curve" smooth="yes"/>
      <point x="86.45454545454545" y="164.0"/>
      <point x="116.72727272727273" y="219.81818181818184"/>
      <point x="155.9090909090909" y="219.81818181818184" type="curve" smooth="yes"/>
      <point x="181.09090909090912" y="219.81818181818184"/>
      <point x="197.36363636363635" y="194.45454545454544"/>
      <point x="197.36363636363635" y="159.54545454545453" type="curve" smooth="yes"/>
      <point x="197.36363636363635" y="104.54545454545455"/>
      <point x="166.72727272727272" y="44.36363636363636"/>
    </contour>
  </outline>
</glyph>
<glyph name="a-beng" format="2">
  <advance width="561.1818181818182"/>
  <unicode hex="0985"/>
  <anchor x="491.1818181818182" y="-5.909090909090909" name="bottom"/>
  <anchor x="492.09090909090907" y="60.90909090909091" name="bottom.rakaar"/>
  <anchor x="492.09090909090907" y="9.272727272727273" name="bottom.rvocalic"/>
  <anchor x="480.81818181818176" y="3.272727272727273" name="bottom.virama"/>
  <anchor x="492.09090909090907" y="584.5454545454545" name="top"/>
  <anchor x="492.09090909090907" y="584.5454545454545" name="topright"/>
  <anchor x="280.0909090909091" y="0.0" name="vedic"/>
  <outline>
    <contour>
      <point x="486.3636363636363" y="-8.454545454545455" type="line"/>
      <point x="491.0" y="-7.454545454545455" type="line"/>
      <point x="491.0" y="584.5454545454545" type="line"/>
      <point x="581.6363636363636" y="584.5454545454545" type="line"/>
      <point x="560.9090909090909" y="622.0" type="line"/>
      <point x="-20.454545454545453" y="622.0" type="line"/>
      <point x="-0.2727272727272727" y="584.5454545454545" type="line"/>
      <point x="453.1818181818182" y="584.5454545454545" type="line"/>
      <point x="453.1818181818182" y="66.63636363636364" type="line"/>
      <point x="464.81818181818176" y="60.81818181818182" type="line"/>
      <point x="446.18181818181813" y="132.27272727272728"/>
      <point x="405.7272727272728" y="193.54545454545453"/>
      <point x="358.7272727272727" y="239.45454545454547" type="curve"/>
      <point x="341.0" y="196.9090909090909" type="line"/>
      <point x="392.3636363636364" y="152.0909090909091"/>
      <point x="432.90909090909093" y="91.0"/>
      <point x="459.81818181818187" y="13.818181818181817" type="curve"/>
    </contour>
    <contour>
      <point x="248.45454545454547" y="113.90909090909092" type="curve" smooth="yes"/>
      <point x="335.54545454545456" y="113.90909090909092"/>
      <point x="386.6363636363636" y="191.36363636363635"/>
      <point x="387.5454545454545" y="305.2727272727273" type="curve" smooth="yes"/>
      <point x="388.90909090909093" y="427.27272727272725"/>
      <point x="334.5454545454545" y="510.9090909090909"/>
      <point x="243.63636363636363" y="510.90909090909093" type="curve" smooth="yes"/>
      <point x="189.72727272727272" y="510.90909090909093"/>
      <point x="153.0" y="480.0"/>
      <point x="153.0" y="425.6363636363636" type="curve" smooth="yes"/>
      <point x="153.0" y="378.3636363636364"/>
      <point x="180.1818181818182" y="349.27272727272725"/>
      <point x="218.45454545454544" y="349.27272727272725" type="curve" smooth="yes"/>
      <point x="260.2727272727273" y="349.27272727272725"/>
      <point x="280.54545454545456" y="386.0"/>
      <point x="280.54545454545456" y="433.0" type="curve" smooth="yes"/>
      <point x="280.54545454545456" y="505.6363636363636"/>
      <point x="243.09090909090907" y="561.2727272727273"/>
      <point x="215.36363636363635" y="589.7272727272727" type="curve"/>
      <point x="142.9090909090909" y="588.6363636363636" type="line"/>
      <point x="213.54545454545453" y="557.1818181818182"/>
      <point x="240.36363636363635" y="511.45454545454544"/>
      <point x="246.90909090909088" y="445.90909090909093" type="curve"/>
      <point x="256.1818181818182" y="451.72727272727275"/>
      <point x="265.3636363636364" y="453.8181818181818"/>
      <point x="276.27272727272725" y="453.8181818181818" type="curve" smooth="yes"/>
      <point x="312.0909090909091" y="453.8181818181818"/>
      <point x="353.8181818181818" y="414.27272727272725"/>
      <point x="353.8181818181818" y="318.1818181818182" type="curve" smooth="yes"/>
      <point x="353.8181818181818" y="224.1818181818182"/>
      <point x="313.3636363636364" y="175.9090909090909"/>
      <point x="247.18181818181816" y="175.9090909090909" type="curve" smooth="yes"/>
      <point x="153.54545454545456" y="175.9090909090909"/>
      <point x="85.72727272727272" y="262.45454545454544"/>
      <point x="49.27272727272727" y="506.3636363636364" type="curve"/>
      <point x="19.90909090909091" y="500.1818181818182" type="line"/>
      <point x="56.272727272727266" y="217.45454545454544"/>
      <point x="139.99999999999997" y="113.90909090909092"/>
    </contour>
  </outline>
</glyph>
<glyph name="aa-beng" format="2">
  <advance width="716.7272727272727"/>
  <unicode hex="0986"/>
  <anchor x="491.1818181818182" y="-5.909090909090909" name="bottom"/>
  <anchor x="492.09090909090907" y="60.90909090909091" name="bottom.rakaar"/>
  <anchor x="492.09090909090907" y="9.272727272727273" name="bottom.rvocalic"/>
  <anchor x="480.81818181818176" y="3.272727272727273" name="bottom.virama"/>
  <anchor x="648.6363636363636" y="584.5454545454545" name="top"/>
  <anchor x="648.6363636363636" y="542.9090909090909" name="topright"/>
  <anchor x="358.3636363636364" y="0.0" name="vedic"/>
  <outline>
    <contour>
      <point x="486.3636363636363" y="-8.454545454545455" type="line"/>
      <point x="491.0" y="-7.454545454545455" type="line"/>
      <point x="491.0" y="584.5454545454545" type="line"/>
      <point x="565.2727272727273" y="584.5454545454545" type="line"/>
      <point x="544.5454545454545" y="622.0" type="line"/>
      <point x="-20.454545454545453" y="622.0" type="line"/>
      <point x="-0.2727272727272727" y="584.5454545454545" type="line"/>
      <point x="453.1818181818182" y="584.5454545454545" type="line"/>
      <point x="453.1818181818182" y="66.63636363636364" type="line"/>
      <point x="464.81818181818176" y="60.81818181818182" type="line"/>
      <point x="446.18181818181813" y="132.27272727272728"/>
      <point x="405.7272727272728" y="193.54545454545453"/>
      <point x="358.7272727272727" y="239.45454545454547" type="curve"/>
      <point x="341.0" y="196.9090909090909" type="line"/>
      <point x="392.3636363636364" y="152.0909090909091"/>
      <point x="432.90909090909093" y="91.0"/>
      <point x="459.81818181818187" y="13.818181818181817" type="curve"/>
    </contour>
    <contour>
      <point x="248.45454545454547" y="113.90909090909092" type="curve" smooth="yes"/>
      <point x="335.54545454545456" y="113.90909090909092"/>
      <point x="386.6363636363636" y="191.36363636363635"/>
      <point x="387.5454545454545" y="305.2727272727273" type="curve" smooth="yes"/>
      <point x="388.90909090909093" y="427.27272727272725"/>
      <point x="334.5454545454545" y="510.9090909090909"/>
      <point x="243.63636363636363" y="510.90909090909093" type="curve" smooth="yes"/>
      <point x="189.72727272727272" y="510.90909090909093"/>
      <point x="153.0" y="480.0"/>
      <point x="153.0" y="425.6363636363636" type="curve" smooth="yes"/>
      <point x="153.0" y="378.3636363636364"/>
      <point x="180.1818181818182" y="349.27272727272725"/>
      <point x="218.45454545454544" y="349.27272727272725" type="curve" smooth="yes"/>
      <point x="260.2727272727273" y="349.27272727272725"/>
      <point x="280.54545454545456" y="386.0"/>
      <point x="280.54545454545456" y="433.0" type="curve" smooth="yes"/>
      <point x="280.54545454545456" y="505.6363636363636"/>
      <point x="243.09090909090907" y="561.2727272727273"/>
      <point x="215.36363636363635" y="589.7272727272727" type="curve"/>
      <point x="142.9090909090909" y="588.6363636363636" type="line"/>
      <point x="213.54545454545453" y="557.1818181818182"/>
      <point x="240.36363636363635" y="511.45454545454544"/>
      <point x="246.90909090909088" y="445.90909090909093" type="curve"/>
      <point x="256.1818181818182" y="451.72727272727275"/>
      <point x="265.3636363636364" y="453.8181818181818"/>
      <point x="276.27272727272725" y="453.8181818181818" type="curve" smooth="yes"/>
      <point x="312.0909090909091" y="453.8181818181818"/>
      <point x="353.8181818181818" y="414.27272727272725"/>
      <point x="353.8181818181818" y="318.1818181818182" type="curve" smooth="yes"/>
      <point x="353.8181818181818" y="224.18181818181816"/>
      <point x="313.3636363636363" y="175.9090909090909"/>
      <point x="247.18181818181816" y="175.9090909090909" type="curve" smooth="yes"/>
      <point x="153.54545454545456" y="175.9090909090909"/>
      <point x="85.72727272727272" y="262.45454545454544"/>
      <point x="49.27272727272727" y="506.3636363636364" type="curve"/>
      <point x="19.90909090909091" y="500.1818181818182" type="line"/>
      <point x="56.272727272727266" y="217.45454545454544"/>
      <point x="139.99999999999997" y="113.90909090909092"/>
    </contour>
    <contour>
      <point x="643.0" y="-18.18181818181818" type="line"/>
      <point x="646.5454545454545" y="-17.18181818181818" type="line"/>
      <point x="646.5454545454545" y="584.5454545454545" type="line"/>
      <point x="737.1818181818181" y="584.5454545454545" type="line"/>
      <point x="716.4545454545455" y="622.0" type="line"/>
      <point x="644.9090909090909" y="622.0" type="line"/>
      <point x="641.2727272727273" y="663.1818181818181" type="line"/>
      <point x="612.2727272727273" y="687.0909090909091" type="line"/>
      <point x="608.7272727272727" y="686.0909090909091" type="line"/>
      <point x="608.7272727272727" y="628.9090909090909" type="line" smooth="yes"/>
      <point x="608.7272727272727" y="610.5454545454545"/>
      <point x="610.8181818181819" y="576.4545454545455"/>
      <point x="614.0" y="542.909090909091" type="curve"/>
      <point x="618.4545454545454" y="543.4545454545455" type="line"/>
      <point x="607.9090909090909" y="603.7272727272727"/>
      <point x="575.909090909091" y="622.0"/>
      <point x="551.0909090909091" y="622.0" type="curve" smooth="yes"/>
      <point x="518.0909090909091" y="622.0" type="line"/>
      <point x="538.8181818181818" y="584.5454545454545" type="line"/>
      <point x="552.5454545454546" y="584.5454545454545" type="line" smooth="yes"/>
      <point x="580.2727272727273" y="584.5454545454545"/>
      <point x="603.1818181818181" y="549.6363636363636"/>
      <point x="608.7272727272727" y="491.09090909090907" type="curve"/>
      <point x="608.7272727272727" y="3.0" type="line"/>
    </contour>
  </outline>
</glyph>
<glyph name="i-beng" format="2">
  <advance width="347.45454545454544"/>
  <unicode hex="0987"/>
  <anchor x="235.99999999999997" y="82.18181818181819" name="bottom"/>
  <anchor x="334.9090909090909" y="-78.72727272727273" name="bottom.rakaar"/>
  <anchor x="279.09090909090907" y="94.54545454545455" name="bottom.rvocalic"/>
  <anchor x="214.0" y="90.0" name="bottom.virama"/>
  <anchor x="241.72727272727272" y="621.0909090909091" name="top"/>
  <anchor x="192.0909090909091" y="628.9090909090909" name="topright"/>
  <anchor x="173.45454545454547" y="0.0" name="vedic"/>
  <outline>
    <contour>
      <point x="264.2727272727273" y="614.7272727272727" type="curve"/>
      <point x="294.72727272727275" y="614.7272727272727" type="line"/>
      <point x="290.3636363636364" y="732.5454545454545"/>
      <point x="259.81818181818187" y="784.9090909090909"/>
      <point x="190.45454545454544" y="784.9090909090909" type="curve" smooth="yes"/>
      <point x="152.0909090909091" y="784.9090909090909"/>
      <point x="128.18181818181816" y="774.5454545454546"/>
      <point x="87.63636363636364" y="774.5454545454546" type="curve" smooth="yes"/>
      <point x="38.54545454545455" y="774.5454545454546"/>
      <point x="14.454545454545453" y="796.0"/>
      <point x="14.454545454545453" y="866.4545454545455" type="curve" smooth="yes"/>
      <point x="14.454545454545453" y="879.090909090909"/>
      <point x="15.454545454545453" y="895.0909090909091"/>
      <point x="17.0" y="905.6363636363636" type="curve"/>
      <point x="-10.818181818181818" y="908.7272727272727" type="line"/>
      <point x="-12.909090909090908" y="891.9090909090909"/>
      <point x="-13.90909090909091" y="872.1818181818181"/>
      <point x="-13.90909090909091" y="857.6363636363636" type="curve" smooth="yes"/>
      <point x="-13.90909090909091" y="763.6363636363636"/>
      <point x="21.181818181818183" y="722.4545454545455"/>
      <point x="89.27272727272727" y="722.4545454545455" type="curve" smooth="yes"/>
      <point x="137.1818181818182" y="722.4545454545455"/>
      <point x="155.72727272727272" y="733.3636363636364"/>
      <point x="195.81818181818184" y="733.3636363636364" type="curve" smooth="yes"/>
      <point x="244.81818181818184" y="733.3636363636364"/>
      <point x="261.45454545454544" y="692.0909090909091"/>
    </contour>
    <component base="ha-beng" xOffset="0.9090909090909091"/>
  </outline>
</glyph>
<glyph name="ii-beng" format="2">
  <advance width="464.4545454545454"/>
  <unicode hex="0988"/>
  <anchor x="401.3636363636364" y="-21.09090909090909" name="bottom"/>
  <anchor x="401.9090909090909" y="70.0" name="bottom.rakaar"/>
  <anchor x="389.72727272727275" y="15.181818181818182" name="bottom.rvocalic"/>
  <anchor x="392.54545454545456" y="0.0" name="bottom.virama"/>
  <anchor x="272.3636363636363" y="621.0909090909091" name="top"/>
  <anchor x="237.7272727272727" y="628.3636363636364" name="topright"/>
  <anchor x="231.99999999999997" y="0.0" name="vedic"/>
  <outline>
    <contour>
      <point x="377.27272727272725" y="-3.4545454545454546" type="curve"/>
      <point x="406.1818181818182" y="6.2727272727272725" type="line"/>
      <point x="390.09090909090907" y="67.63636363636363"/>
      <point x="378.3636363636364" y="127.18181818181819"/>
      <point x="378.3636363636364" y="204.9090909090909" type="curve" smooth="yes"/>
      <point x="378.3636363636364" y="293.1818181818182"/>
      <point x="394.8181818181818" y="371.2727272727273"/>
      <point x="424.0" y="430.7272727272727" type="curve"/>
      <point x="367.0" y="479.72727272727275" type="line"/>
      <point x="322.2727272727273" y="440.6363636363636"/>
      <point x="280.0" y="380.1818181818182"/>
      <point x="251.18181818181822" y="300.3636363636364" type="curve"/>
      <point x="258.27272727272725" y="301.1818181818182" type="line"/>
      <point x="260.8181818181818" y="314.6363636363636"/>
      <point x="262.27272727272725" y="337.1818181818182"/>
      <point x="262.27272727272725" y="353.5454545454545" type="curve" smooth="yes"/>
      <point x="262.27272727272725" y="447.2727272727273"/>
      <point x="220.8181818181818" y="508.45454545454544"/>
      <point x="132.9090909090909" y="508.45454545454544" type="curve" smooth="yes"/>
      <point x="78.0" y="508.45454545454544"/>
      <point x="48.63636363636363" y="480.0"/>
      <point x="48.63636363636364" y="432.8181818181818" type="curve" smooth="yes"/>
      <point x="48.636363636363626" y="393.09090909090907"/>
      <point x="70.54545454545455" y="368.3636363636364"/>
      <point x="103.36363636363637" y="368.3636363636364" type="curve" smooth="yes"/>
      <point x="140.54545454545456" y="368.3636363636364"/>
      <point x="162.0" y="400.0909090909091"/>
      <point x="162.0" y="447.54545454545456" type="curve" smooth="yes"/>
      <point x="162.0" y="490.54545454545456"/>
      <point x="136.1818181818182" y="554.0"/>
      <point x="104.36363636363636" y="590.1818181818181" type="curve"/>
      <point x="38.90909090909091" y="590.1818181818181" type="line"/>
      <point x="76.81818181818181" y="567.6363636363636"/>
      <point x="110.45454545454547" y="529.6363636363636"/>
      <point x="125.27272727272728" y="476.1818181818182" type="curve"/>
      <point x="103.18181818181817" y="436.2727272727273" type="line"/>
      <point x="120.54545454545453" y="450.72727272727275"/>
      <point x="138.0" y="458.4545454545455"/>
      <point x="158.36363636363637" y="458.4545454545455" type="curve" smooth="yes"/>
      <point x="204.36363636363635" y="458.4545454545455"/>
      <point x="230.8181818181818" y="416.27272727272725"/>
      <point x="230.8181818181818" y="348.09090909090907" type="curve" smooth="yes"/>
      <point x="230.8181818181818" y="310.09090909090907"/>
      <point x="225.2727272727273" y="269.27272727272725"/>
      <point x="211.2727272727273" y="237.45454545454544" type="curve" smooth="yes"/>
      <point x="195.72727272727272" y="202.0"/>
      <point x="175.54545454545456" y="181.45454545454544"/>
      <point x="147.1818181818182" y="181.45454545454544" type="curve" smooth="yes"/>
      <point x="115.54545454545453" y="181.45454545454544"/>
      <point x="89.54545454545455" y="220.45454545454547"/>
      <point x="72.27272727272728" y="264.09090909090907" type="curve"/>
      <point x="47.09090909090909" y="251.8181818181818" type="line"/>
      <point x="73.81818181818183" y="173.27272727272725"/>
      <point x="110.0" y="127.0"/>
      <point x="156.8181818181818" y="127.0" type="curve" smooth="yes"/>
      <point x="209.27272727272725" y="127.0"/>
      <point x="235.81818181818184" y="170.72727272727272"/>
      <point x="269.9090909090909" y="242.1818181818182" type="curve" smooth="yes"/>
      <point x="299.27272727272725" y="304.27272727272725"/>
      <point x="323.54545454545456" y="359.3636363636363"/>
      <point x="379.8181818181818" y="422.5454545454545" type="curve"/>
      <point x="373.8181818181818" y="433.3636363636363" type="line"/>
      <point x="353.1818181818182" y="385.9090909090909"/>
      <point x="339.45454545454544" y="306.72727272727275"/>
      <point x="339.45454545454544" y="227.63636363636363" type="curve" smooth="yes"/>
      <point x="339.45454545454544" y="145.0909090909091"/>
      <point x="354.5454545454545" y="70.45454545454545"/>
    </contour>
    <contour>
      <point x="-0.2727272727272727" y="584.5454545454545" type="line"/>
      <point x="484.9090909090909" y="584.5454545454545" type="line"/>
      <point x="464.72727272727275" y="622.0" type="line"/>
      <point x="-20.454545454545453" y="622.0" type="line"/>
    </contour>
    <contour>
      <point x="356.45454545454544" y="614.7272727272727" type="curve"/>
      <point x="386.3636363636364" y="614.7272727272727" type="line"/>
      <point x="378.72727272727275" y="732.6363636363636"/>
      <point x="348.72727272727275" y="788.6363636363636"/>
      <point x="270.0" y="788.6363636363636" type="curve" smooth="yes"/>
      <point x="225.27272727272725" y="788.6363636363636"/>
      <point x="196.90909090909093" y="777.3636363636364"/>
      <point x="150.36363636363637" y="777.3636363636364" type="curve" smooth="yes"/>
      <point x="92.18181818181817" y="777.3636363636364"/>
      <point x="65.63636363636363" y="797.1818181818181"/>
      <point x="65.63636363636363" y="875.7272727272727" type="curve" smooth="yes"/>
      <point x="65.63636363636363" y="883.4545454545454"/>
      <point x="66.0909090909091" y="895.6363636363636"/>
      <point x="67.63636363636364" y="906.1818181818181" type="curve"/>
      <point x="40.909090909090914" y="909.2727272727273" type="line"/>
      <point x="38.81818181818182" y="893.5454545454546"/>
      <point x="37.27272727272728" y="877.6363636363636"/>
      <point x="37.27272727272728" y="862.0" type="curve" smooth="yes"/>
      <point x="37.27272727272728" y="766.4545454545454"/>
      <point x="76.63636363636364" y="720.9090909090909"/>
      <point x="152.1818181818182" y="720.9090909090909" type="curve" smooth="yes"/>
      <point x="203.36363636363635" y="720.9090909090909"/>
      <point x="237.45454545454547" y="732.7272727272727"/>
      <point x="282.6363636363636" y="732.7272727272727" type="curve" smooth="yes"/>
      <point x="335.0" y="732.7272727272727"/>
      <point x="350.9090909090909" y="691.5454545454546"/>
    </contour>
  </outline>
</glyph>
<glyph name="u-beng" format="2">
  <advance width="442.1818181818182"/>
  <unicode hex="0989"/>
  <anchor x="328.3636363636364" y="36.72727272727273" name="bottom"/>
  <anchor x="365.0909090909091" y="-15.636363636363635" name="bottom.rakaar"/>
  <anchor x="310.72727272727275" y="70.81818181818181" name="bottom.rvocalic"/>
  <anchor x="276.0" y="21.81818181818182" name="bottom.virama"/>
  <anchor x="255.54545454545456" y="619.7272727272726" name="top"/>
  <anchor x="215.63636363636363" y="628.0" name="topright"/>
  <anchor x="220.8181818181818" y="0.0" name="vedic"/>
  <anchor x="234.0" y="-39.27272727272727" name="nukta"/>
  <outline>
    <contour>
      <point x="350.3636363636364" y="614.7272727272727" type="curve"/>
      <point x="380.2727272727273" y="614.7272727272727" type="line"/>
      <point x="374.27272727272725" y="731.5454545454545"/>
      <point x="341.0" y="786.4545454545455"/>
      <point x="266.09090909090907" y="786.4545454545455" type="curve" smooth="yes"/>
      <point x="222.45454545454544" y="786.4545454545455"/>
      <point x="195.7272727272727" y="775.1818181818182"/>
      <point x="151.9090909090909" y="775.1818181818182" type="curve" smooth="yes"/>
      <point x="95.36363636363636" y="775.1818181818182"/>
      <point x="70.45454545454545" y="799.9090909090909"/>
      <point x="70.45454545454545" y="865.9090909090909" type="curve" smooth="yes"/>
      <point x="70.45454545454545" y="876.3636363636364"/>
      <point x="71.45454545454545" y="892.3636363636364"/>
      <point x="73.0" y="905.6363636363636" type="curve"/>
      <point x="44.09090909090909" y="908.7272727272727" type="line"/>
      <point x="42.0" y="891.3636363636364"/>
      <point x="41.0" y="875.4545454545455"/>
      <point x="41.0" y="856.5454545454545" type="curve" smooth="yes"/>
      <point x="41.0" y="765.9090909090909"/>
      <point x="79.81818181818181" y="722.0"/>
      <point x="154.8181818181818" y="722.0" type="curve" smooth="yes"/>
      <point x="203.8181818181818" y="722.0"/>
      <point x="230.81818181818178" y="733.8181818181819"/>
      <point x="274.9090909090909" y="733.8181818181819" type="curve" smooth="yes"/>
      <point x="327.27272727272725" y="733.8181818181819"/>
      <point x="344.2727272727273" y="691.5454545454546"/>
    </contour>
    <component base="dda-beng"/>
  </outline>
</glyph>
<glyph name="uu-beng" format="2">
  <advance width="491.81818181818187"/>
  <unicode hex="098A"/>
  <anchor x="378.45454545454544" y="36.72727272727273" name="bottom"/>
  <anchor x="415.18181818181813" y="-15.09090909090909" name="bottom.rakaar"/>
  <anchor x="360.3636363636364" y="70.27272727272727" name="bottom.rvocalic"/>
  <anchor x="324.54545454545456" y="21.272727272727273" name="bottom.virama"/>
  <anchor x="290.45454545454544" y="619.7272727272727" name="top"/>
  <anchor x="271.0" y="628.3636363636364" name="topright"/>
  <anchor x="245.9090909090909" y="0.0" name="vedic"/>
  <outline>
    <contour>
      <point x="308.0909090909091" y="65.45454545454545" type="curve" smooth="yes"/>
      <point x="411.99999999999994" y="65.45454545454545"/>
      <point x="465.90909090909093" y="147.0"/>
      <point x="465.90909090909093" y="268.81818181818187" type="curve" smooth="yes"/>
      <point x="465.90909090909093" y="358.0"/>
      <point x="435.09090909090907" y="419.0"/>
      <point x="398.27272727272725" y="457.1818181818182" type="curve"/>
      <point x="372.0" y="391.6363636363636"/>
      <point x="327.45454545454544" y="338.9090909090909"/>
      <point x="290.27272727272725" y="338.9090909090909" type="curve" smooth="yes"/>
      <point x="272.7272727272727" y="338.9090909090909"/>
      <point x="262.8181818181818" y="352.09090909090907"/>
      <point x="262.8181818181818" y="374.18181818181813" type="curve" smooth="yes"/>
      <point x="262.8181818181818" y="584.5454545454545" type="line"/>
      <point x="512.2727272727273" y="584.5454545454545" type="line"/>
      <point x="490.54545454545456" y="622.0" type="line"/>
      <point x="-20.454545454545453" y="622.0" type="line"/>
      <point x="0.27272727272727315" y="584.5454545454545" type="line"/>
      <point x="225.0" y="584.5454545454545" type="line"/>
      <point x="225.0" y="372.6363636363637" type="line" smooth="yes"/>
      <point x="225.0" y="342.0909090909091"/>
      <point x="233.36363636363637" y="321.7272727272727"/>
      <point x="249.1818181818182" y="307.27272727272725" type="curve" smooth="yes"/>
      <point x="263.45454545454544" y="293.90909090909093"/>
      <point x="279.8181818181818" y="288.1818181818182"/>
      <point x="298.7272727272727" y="288.1818181818182" type="curve" smooth="yes"/>
      <point x="343.18181818181813" y="288.1818181818182"/>
      <point x="391.9090909090909" y="330.09090909090907"/>
      <point x="426.1818181818182" y="401.6363636363636" type="curve"/>
      <point x="397.54545454545456" y="387.09090909090907" type="line"/>
      <point x="415.54545454545456" y="367.72727272727275"/>
      <point x="430.81818181818176" y="334.3636363636364"/>
      <point x="430.81818181818176" y="280.45454545454544" type="curve" smooth="yes"/>
      <point x="430.81818181818176" y="179.0"/>
      <point x="383.18181818181813" y="123.18181818181819"/>
      <point x="309.81818181818187" y="123.18181818181817" type="curve" smooth="yes"/>
      <point x="202.45454545454547" y="123.18181818181819"/>
      <point x="161.0" y="287.45454545454544"/>
      <point x="122.18181818181817" y="500.1818181818182" type="curve"/>
      <point x="94.36363636363637" y="491.8181818181818" type="line"/>
      <point x="121.00000000000001" y="317.45454545454544"/>
      <point x="151.27272727272725" y="191.8181818181818"/>
      <point x="212.8181818181818" y="119.45454545454545" type="curve"/>
      <point x="232.8181818181818" y="122.45454545454545" type="line"/>
      <point x="147.1818181818182" y="151.1818181818182"/>
      <point x="88.63636363636363" y="278.0909090909091"/>
      <point x="45.18181818181819" y="500.1818181818182" type="curve"/>
      <point x="17.363636363636363" y="491.8181818181818" type="line"/>
      <point x="65.63636363636363" y="206.54545454545453"/>
      <point x="155.0909090909091" y="65.45454545454545"/>
    </contour>
    <contour>
      <point x="403.45454545454544" y="614.7272727272727" type="curve"/>
      <point x="432.81818181818176" y="614.7272727272727" type="line"/>
      <point x="425.1818181818182" y="732.6363636363636"/>
      <point x="379.09090909090907" y="790.8181818181819"/>
      <point x="298.3636363636363" y="790.8181818181819" type="curve" smooth="yes"/>
      <point x="249.36363636363637" y="790.8181818181819"/>
      <point x="207.18181818181816" y="775.1818181818182"/>
      <point x="149.72727272727272" y="775.1818181818182" type="curve" smooth="yes"/>
      <point x="93.18181818181817" y="775.1818181818182"/>
      <point x="66.0" y="799.9090909090909"/>
      <point x="66.0" y="865.9090909090909" type="curve" smooth="yes"/>
      <point x="66.0" y="876.3636363636364"/>
      <point x="67.0" y="892.3636363636364"/>
      <point x="68.54545454545455" y="905.6363636363636" type="curve"/>
      <point x="39.63636363636364" y="908.7272727272727" type="line"/>
      <point x="37.54545454545455" y="891.3636363636364"/>
      <point x="36.54545454545455" y="875.4545454545455"/>
      <point x="36.54545454545455" y="856.5454545454545" type="curve" smooth="yes"/>
      <point x="36.54545454545455" y="765.9090909090909"/>
      <point x="77.63636363636364" y="722.0"/>
      <point x="152.63636363636363" y="722.0" type="curve" smooth="yes"/>
      <point x="213.09090909090907" y="722.0"/>
      <point x="256.0909090909091" y="738.1818181818181"/>
      <point x="308.27272727272725" y="738.1818181818181" type="curve" smooth="yes"/>
      <point x="365.90909090909093" y="738.1818181818181"/>
      <point x="396.8181818181818" y="691.5454545454546"/>
    </contour>
  </outline>
</glyph>
<glyph name="rVocalic-beng" format="2">
  <advance width="518.3636363636364"/>
  <unicode hex="098B"/>
  <anchor x="338.27272727272725" y="-5.909090909090909" name="bottom"/>
  <anchor x="339.1818181818182" y="60.90909090909091" name="bottom.rakaar"/>
  <anchor x="275.6363636363636" y="140.8181818181818" name="bottom.rvocalic"/>
  <anchor x="326.90909090909093" y="3.272727272727273" name="bottom.virama"/>
  <anchor x="339.1818181818182" y="584.5454545454545" name="top"/>
  <anchor x="341.1818181818182" y="584.5454545454545" name="topright"/>
  <anchor x="259.1818181818182" y="0.0" name="vedic"/>
  <outline>
    <contour>
      <point x="335.4545454545455" y="-8.454545454545455" type="line"/>
      <point x="340.09090909090907" y="-7.454545454545455" type="line"/>
      <point x="340.09090909090907" y="641.2727272727273" type="line"/>
      <point x="305.81818181818187" y="667.0909090909091" type="line"/>
      <point x="302.2727272727273" y="666.0909090909091" type="line"/>
      <point x="302.2727272727273" y="487.8181818181818" type="line"/>
      <point x="308.72727272727275" y="507.8181818181818" type="line"/>
      <point x="216.36363636363635" y="462.6363636363636"/>
      <point x="123.63636363636363" y="401.27272727272725"/>
      <point x="45.636363636363626" y="340.1818181818182" type="curve"/>
      <point x="82.81818181818181" y="268.6363636363636" type="line"/>
      <point x="181.1818181818182" y="228.0"/>
      <point x="265.1818181818182" y="140.8181818181818"/>
      <point x="308.9090909090909" y="13.818181818181817" type="curve"/>
    </contour>
    <contour>
      <point x="302.2727272727273" y="66.63636363636364" type="line"/>
      <point x="313.90909090909093" y="60.81818181818182" type="line"/>
      <point x="281.8181818181818" y="185.54545454545456"/>
      <point x="181.9090909090909" y="279.3636363636364"/>
      <point x="95.54545454545455" y="319.8181818181818" type="curve"/>
      <point x="97.90909090909089" y="307.09090909090907" type="line"/>
      <point x="159.0909090909091" y="361.8181818181818"/>
      <point x="248.36363636363635" y="416.0909090909091"/>
      <point x="308.9090909090909" y="445.5454545454545" type="curve"/>
      <point x="302.2727272727273" y="462.4545454545455" type="line"/>
    </contour>
    <contour>
      <point x="84.72727272727272" y="453.09090909090907" type="curve" smooth="yes"/>
      <point x="140.45454545454547" y="453.09090909090907"/>
      <point x="196.45454545454547" y="493.27272727272725"/>
      <point x="227.8181818181818" y="570.0909090909091" type="curve"/>
      <point x="207.45454545454547" y="567.8181818181819" type="line"/>
      <point x="228.0" y="545.4545454545455"/>
      <point x="247.45454545454544" y="511.81818181818176"/>
      <point x="268.45454545454544" y="461.2727272727273" type="curve"/>
      <point x="291.8181818181818" y="470.2727272727273" type="line"/>
      <point x="266.0" y="546.8181818181818"/>
      <point x="238.81818181818184" y="592.7272727272727"/>
      <point x="204.90909090909093" y="623.4545454545454" type="curve"/>
      <point x="172.27272727272728" y="543.090909090909"/>
      <point x="128.45454545454547" y="502.0909090909091"/>
      <point x="87.45454545454545" y="502.0909090909091" type="curve" smooth="yes"/>
      <point x="80.27272727272728" y="502.0909090909091"/>
      <point x="69.45454545454545" y="504.18181818181813"/>
      <point x="64.9090909090909" y="507.2727272727272" type="curve"/>
      <point x="90.0909090909091" y="485.09090909090907" type="line"/>
      <point x="101.81818181818183" y="498.8181818181818"/>
      <point x="105.90909090909089" y="510.6363636363637"/>
      <point x="105.90909090909089" y="531.090909090909" type="curve" smooth="yes"/>
      <point x="105.90909090909089" y="559.7272727272727"/>
      <point x="90.0" y="581.0909090909091"/>
      <point x="59.36363636363635" y="581.0909090909091" type="curve" smooth="yes"/>
      <point x="29.18181818181818" y="581.0909090909091"/>
      <point x="9.272727272727273" y="559.6363636363636"/>
      <point x="9.272727272727273" y="524.1818181818181" type="curve" smooth="yes"/>
      <point x="9.272727272727273" y="477.7272727272727"/>
      <point x="45.27272727272727" y="453.09090909090907"/>
    </contour>
    <contour>
      <point x="443.54545454545456" y="91.54545454545453" type="line"/>
      <point x="448.1818181818182" y="92.54545454545453" type="line"/>
      <point x="448.1818181818182" y="584.5454545454545" type="line"/>
      <point x="538.8181818181819" y="584.5454545454545" type="line"/>
      <point x="518.090909090909" y="622.0" type="line"/>
      <point x="446.54545454545456" y="622.0" type="line"/>
      <point x="442.90909090909093" y="663.1818181818181" type="line"/>
      <point x="413.90909090909093" y="687.0909090909091" type="line"/>
      <point x="410.36363636363643" y="686.0909090909091" type="line"/>
      <point x="410.36363636363643" y="166.63636363636365" type="line"/>
      <point x="421.99999999999994" y="160.8181818181818" type="line"/>
      <point x="404.3636363636364" y="228.90909090909093"/>
      <point x="367.2727272727273" y="287.2727272727273"/>
      <point x="323.1818181818182" y="331.8181818181818" type="curve"/>
      <point x="320.6363636363636" y="275.8181818181818" type="line"/>
      <point x="361.72727272727275" y="233.36363636363637"/>
      <point x="394.1818181818182" y="179.27272727272728"/>
      <point x="417.00000000000006" y="113.81818181818181" type="curve"/>
    </contour>
  </outline>
</glyph>
<glyph name="lVocalic-beng" format="2">
  <advance width="371.3636363636364"/>
  <unicode hex="098C"/>
  <anchor x="267.8181818181818" y="584.5454545454545" name="top"/>
  <anchor x="185.1818181818182" y="0.0" name="vedic"/>
  <outline>
    <contour>
      <point x="215.90909090909088" y="33.90909090909091" type="line"/>
      <point x="281.0909090909091" y="54.09090909090909"/>
      <point x="349.9090909090909" y="141.9090909090909"/>
      <point x="349.9090909090909" y="274.90909090909093" type="curve" smooth="yes"/>
      <point x="349.9090909090909" y="408.6363636363636"/>
      <point x="289.09090909090907" y="449.7272727272727"/>
      <point x="199.54545454545453" y="479.72727272727275" type="curve" smooth="yes"/>
      <point x="138.27272727272728" y="500.1818181818182"/>
      <point x="88.72727272727273" y="518.4545454545454"/>
      <point x="88.72727272727273" y="601.909090909091" type="curve" smooth="yes"/>
      <point x="88.72727272727273" y="637.2727272727274"/>
      <point x="98.63636363636364" y="664.7272727272727"/>
      <point x="108.63636363636363" y="690.2727272727273" type="curve"/>
      <point x="79.72727272727272" y="701.5454545454545" type="line"/>
      <point x="64.63636363636363" y="665.9090909090909"/>
      <point x="53.99999999999999" y="627.090909090909"/>
      <point x="53.99999999999999" y="587.0909090909091" type="curve" smooth="yes"/>
      <point x="53.99999999999999" y="478.8181818181818"/>
      <point x="111.27272727272728" y="447.8181818181818"/>
      <point x="188.72727272727275" y="424.09090909090907" type="curve" smooth="yes"/>
      <point x="263.0909090909091" y="400.5454545454545"/>
      <point x="316.27272727272725" y="377.45454545454544"/>
      <point x="316.27272727272725" y="262.27272727272725" type="curve" smooth="yes"/>
      <point x="316.27272727272725" y="178.63636363636363"/>
      <point x="280.45454545454544" y="108.63636363636364"/>
      <point x="239.45454545454544" y="94.54545454545455" type="curve"/>
      <point x="259.2727272727273" y="81.9090909090909" type="line"/>
      <point x="262.54545454545456" y="199.9090909090909"/>
      <point x="229.72727272727275" y="299.09090909090907"/>
      <point x="144.9090909090909" y="299.09090909090907" type="curve" smooth="yes"/>
      <point x="79.18181818181819" y="299.09090909090907"/>
      <point x="44.090909090909086" y="240.0909090909091"/>
      <point x="44.090909090909086" y="172.45454545454544" type="curve" smooth="yes"/>
      <point x="44.090909090909086" y="95.36363636363636"/>
      <point x="79.45454545454545" y="52.81818181818181"/>
      <point x="120.63636363636363" y="52.81818181818181" type="curve" smooth="yes"/>
      <point x="154.27272727272728" y="52.81818181818181"/>
      <point x="169.0909090909091" y="80.0"/>
      <point x="169.0909090909091" y="109.54545454545455" type="curve" smooth="yes"/>
      <point x="169.0909090909091" y="141.1818181818182"/>
      <point x="149.72727272727275" y="162.0909090909091"/>
      <point x="123.63636363636364" y="162.0909090909091" type="curve" smooth="yes"/>
      <point x="100.81818181818181" y="162.0909090909091"/>
      <point x="81.81818181818183" y="142.27272727272728"/>
      <point x="82.27272727272728" y="115.18181818181819" type="curve"/>
      <point x="105.45454545454547" y="115.27272727272728" type="line"/>
      <point x="92.27272727272727" y="122.9090909090909"/>
      <point x="79.72727272727272" y="141.54545454545453"/>
      <point x="79.72727272727272" y="178.36363636363637" type="curve" smooth="yes"/>
      <point x="79.72727272727272" y="227.63636363636365"/>
      <point x="107.0909090909091" y="254.1818181818182"/>
      <point x="138.9090909090909" y="254.1818181818182" type="curve" smooth="yes"/>
      <point x="197.90909090909093" y="254.1818181818182"/>
      <point x="214.72727272727272" y="174.54545454545456"/>
      <point x="214.72727272727272" y="90.27272727272728" type="curve" smooth="yes"/>
      <point x="214.72727272727272" y="70.45454545454545"/>
      <point x="214.27272727272725" y="53.909090909090914"/>
      <point x="211.81818181818178" y="37.45454545454545" type="curve"/>
    </contour>
  </outline>
</glyph>
<glyph name="e-beng" format="2">
  <advance width="487.63636363636357"/>
  <unicode hex="098F"/>
  <anchor x="419.8181818181818" y="-8.636363636363637" name="bottom"/>
  <anchor x="419.8181818181818" y="2.5454545454545454" name="bottom.rvocalic"/>
  <anchor x="408.09090909090907" y="3.272727272727273" name="bottom.virama"/>
  <anchor x="350.1818181818182" y="584.5454545454545" name="top"/>
  <anchor x="352.72727272727275" y="584.5454545454545" name="topright"/>
  <anchor x="243.8181818181818" y="0.0" name="vedic"/>
  <outline>
    <contour>
      <point x="413.9090909090909" y="-10.272727272727273" type="line"/>
      <point x="418.54545454545456" y="-9.272727272727273" type="line"/>
      <point x="418.54545454545456" y="527.090909090909" type="line" smooth="yes"/>
      <point x="418.54545454545456" y="595.2727272727273"/>
      <point x="389.9090909090909" y="631.090909090909"/>
      <point x="342.72727272727275" y="631.090909090909" type="curve" smooth="yes"/>
      <point x="254.36363636363635" y="631.090909090909"/>
      <point x="167.8181818181818" y="496.0909090909091"/>
      <point x="167.8181818181818" y="384.3636363636364" type="curve" smooth="yes"/>
      <point x="167.8181818181818" y="316.09090909090907"/>
      <point x="202.81818181818178" y="285.1818181818182"/>
      <point x="239.27272727272728" y="284.0909090909091" type="curve" smooth="yes"/>
      <point x="283.3636363636363" y="283.0"/>
      <point x="304.09090909090907" y="314.1818181818182"/>
      <point x="304.09090909090907" y="351.90909090909093" type="curve" smooth="yes"/>
      <point x="304.09090909090907" y="388.72727272727275"/>
      <point x="283.5454545454545" y="416.6363636363636"/>
      <point x="250.3636363636364" y="416.6363636363636" type="curve" smooth="yes"/>
      <point x="234.45454545454544" y="416.6363636363636"/>
      <point x="217.36363636363635" y="408.1818181818182"/>
      <point x="210.1818181818182" y="386.6363636363636" type="curve"/>
      <point x="224.45454545454547" y="386.54545454545456" type="line"/>
      <point x="224.0" y="484.3636363636364"/>
      <point x="293.1818181818182" y="589.1818181818181"/>
      <point x="343.72727272727275" y="589.1818181818181" type="curve" smooth="yes"/>
      <point x="372.9090909090909" y="589.1818181818181"/>
      <point x="380.72727272727275" y="563.0"/>
      <point x="380.72727272727275" y="516.0" type="curve" smooth="yes"/>
      <point x="380.72727272727275" y="178.1818181818182" type="line" smooth="yes"/>
      <point x="380.72727272727275" y="146.45454545454547"/>
      <point x="381.8181818181818" y="105.45454545454547"/>
      <point x="384.9090909090909" y="72.27272727272727" type="curve"/>
      <point x="361.90909090909093" y="127.45454545454545"/>
      <point x="322.7272727272727" y="142.54545454545456"/>
      <point x="286.45454545454544" y="142.54545454545456" type="curve" smooth="yes"/>
      <point x="246.36363636363635" y="142.54545454545456"/>
      <point x="217.9090909090909" y="133.00000000000003"/>
      <point x="169.9090909090909" y="133.00000000000003" type="curve" smooth="yes"/>
      <point x="112.09090909090908" y="133.00000000000003"/>
      <point x="74.9090909090909" y="170.0909090909091"/>
      <point x="74.9090909090909" y="259.45454545454544" type="curve" smooth="yes"/>
      <point x="74.9090909090909" y="300.72727272727275"/>
      <point x="80.36363636363636" y="332.09090909090907"/>
      <point x="85.81818181818181" y="354.09090909090907" type="curve"/>
      <point x="54.81818181818183" y="359.6363636363636" type="line"/>
      <point x="47.36363636363637" y="329.90909090909093"/>
      <point x="41.81818181818182" y="288.8181818181818"/>
      <point x="41.81818181818182" y="248.27272727272728" type="curve" smooth="yes"/>
      <point x="41.81818181818182" y="113.72727272727273"/>
      <point x="106.72727272727273" y="75.9090909090909"/>
      <point x="175.45454545454544" y="75.9090909090909" type="curve" smooth="yes"/>
      <point x="227.81818181818184" y="75.9090909090909"/>
      <point x="252.81818181818178" y="87.63636363636363"/>
      <point x="299.0909090909091" y="87.63636363636363" type="curve" smooth="yes"/>
      <point x="340.09090909090907" y="87.63636363636363"/>
      <point x="365.1818181818182" y="72.18181818181819"/>
      <point x="389.0909090909091" y="10.818181818181818" type="curve"/>
    </contour>
  </outline>
</glyph>
<glyph name="ai-beng" format="2">
  <advance width="559.8181818181818"/>
  <unicode hex="0990"/>
  <anchor x="367.45454545454544" y="600.9090909090909" name="top"/>
  <anchor x="340.18181818181813" y="608.3636363636364" name="topright"/>
  <anchor x="279.90909090909093" y="0.0" name="vedic"/>
  <anchor x="419.8181818181818" y="-8.636363636363637" name="bottom"/>
  <anchor x="419.8181818181818" y="2.5454545454545454" name="bottom.rvocalic"/>
  <anchor x="408.09090909090907" y="3.272727272727273" name="bottom.virama"/>
  <outline>
    <contour>
      <point x="413.8181818181818" y="342.6363636363636" type="line"/>
      <point x="460.81818181818187" y="397.18181818181813"/>
      <point x="500.27272727272725" y="465.54545454545456"/>
      <point x="500.27272727272725" y="568.2727272727273" type="curve" smooth="yes"/>
      <point x="500.27272727272725" y="710.0909090909091"/>
      <point x="418.18181818181824" y="743.6363636363636"/>
      <point x="316.54545454545456" y="758.8181818181818" type="curve" smooth="yes"/>
      <point x="235.81818181818184" y="771.0"/>
      <point x="172.0" y="782.0909090909091"/>
      <point x="172.0" y="873.5454545454545" type="curve" smooth="yes"/>
      <point x="172.0" y="905.8181818181818"/>
      <point x="180.36363636363635" y="934.909090909091"/>
      <point x="188.9090909090909" y="957.5454545454546" type="curve"/>
      <point x="160.63636363636363" y="968.3636363636364" type="line"/>
      <point x="148.90909090909093" y="939.3636363636363"/>
      <point x="138.36363636363637" y="903.3636363636364"/>
      <point x="138.36363636363637" y="862.2727272727273" type="curve" smooth="yes"/>
      <point x="138.36363636363637" y="746.0"/>
      <point x="211.09090909090907" y="721.909090909091"/>
      <point x="306.2727272727273" y="709.6363636363636" type="curve" smooth="yes"/>
      <point x="396.54545454545456" y="698.3636363636364"/>
      <point x="467.90909090909093" y="676.2727272727273"/>
      <point x="467.90909090909093" y="561.5454545454545" type="curve" smooth="yes"/>
      <point x="467.90909090909093" y="484.27272727272725"/>
      <point x="441.8181818181818" y="434.0909090909091"/>
      <point x="400.90909090909093" y="387.1818181818182" type="curve"/>
    </contour>
    <component base="e-beng"/>
  </outline>
</glyph>
<glyph name="o-beng" format="2">
  <advance width="524.2727272727273"/>
  <unicode hex="0993"/>
  <anchor x="387.3636363636364" y="39.90909090909091" name="bottom"/>
  <anchor x="424.09090909090907" y="-11.909090909090908" name="bottom.rakaar"/>
  <anchor x="369.81818181818187" y="73.45454545454545" name="bottom.rvocalic"/>
  <anchor x="334.54545454545456" y="24.454545454545453" name="bottom.virama"/>
  <anchor x="333.72727272727275" y="584.5454545454545" name="top"/>
  <anchor x="334.3636363636364" y="584.5454545454545" name="topright"/>
  <anchor x="261.9090909090909" y="0.0" name="vedic"/>
  <outline>
    <contour>
      <point x="325.09090909090907" y="68.63636363636364" type="curve" smooth="yes"/>
      <point x="422.0909090909091" y="68.63636363636364"/>
      <point x="474.1818181818182" y="137.8181818181818"/>
      <point x="474.1818181818182" y="241.45454545454547" type="curve" smooth="yes"/>
      <point x="474.1818181818182" y="348.54545454545456"/>
      <point x="403.8181818181818" y="412.3636363636364"/>
      <point x="357.6363636363636" y="412.3636363636364" type="curve" smooth="yes"/>
      <point x="329.09090909090907" y="412.3636363636364"/>
      <point x="308.8181818181818" y="391.3636363636364"/>
      <point x="308.8181818181818" y="355.72727272727275" type="curve" smooth="yes"/>
      <point x="308.8181818181818" y="320.54545454545456"/>
      <point x="328.54545454545456" y="297.0909090909091"/>
      <point x="359.18181818181813" y="297.0909090909091" type="curve" smooth="yes"/>
      <point x="408.1818181818182" y="297.0909090909091"/>
      <point x="458.54545454545456" y="390.27272727272725"/>
      <point x="458.54545454545456" y="486.0" type="curve" smooth="yes"/>
      <point x="458.54545454545456" y="572.1818181818182"/>
      <point x="414.2727272727273" y="624.1818181818181"/>
      <point x="340.0" y="624.1818181818181" type="curve" smooth="yes"/>
      <point x="243.45454545454547" y="624.1818181818181"/>
      <point x="158.0" y="518.5454545454545"/>
      <point x="158.0" y="420.45454545454544" type="curve" smooth="yes"/>
      <point x="158.0" y="365.0"/>
      <point x="185.0909090909091" y="338.4545454545455"/>
      <point x="217.27272727272728" y="338.4545454545455" type="curve" smooth="yes"/>
      <point x="247.8181818181818" y="338.4545454545455"/>
      <point x="269.27272727272725" y="360.27272727272725"/>
      <point x="269.27272727272725" y="401.18181818181813" type="curve" smooth="yes"/>
      <point x="269.27272727272725" y="432.0909090909091"/>
      <point x="252.00000000000003" y="455.9090909090909"/>
      <point x="226.36363636363637" y="455.9090909090909" type="curve" smooth="yes"/>
      <point x="212.18181818181816" y="455.9090909090909"/>
      <point x="196.54545454545456" y="450.0"/>
      <point x="188.54545454545453" y="430.1818181818182" type="curve"/>
      <point x="215.0909090909091" y="420.45454545454544" type="line"/>
      <point x="219.0909090909091" y="521.0909090909091"/>
      <point x="285.0" y="586.4545454545454"/>
      <point x="351.27272727272725" y="586.4545454545454" type="curve" smooth="yes"/>
      <point x="396.00000000000006" y="586.4545454545454"/>
      <point x="418.0" y="550.3636363636364"/>
      <point x="418.0" y="496.6363636363636" type="curve" smooth="yes"/>
      <point x="418.0" y="445.4545454545455"/>
      <point x="398.5454545454546" y="406.45454545454544"/>
      <point x="367.1818181818182" y="382.72727272727275" type="curve"/>
      <point x="378.90909090909093" y="349.7272727272727" type="line"/>
      <point x="405.54545454545456" y="349.27272727272725"/>
      <point x="438.5454545454545" y="312.09090909090907"/>
      <point x="438.5454545454545" y="251.0909090909091" type="curve" smooth="yes"/>
      <point x="438.5454545454545" y="169.36363636363635"/>
      <point x="396.0909090909091" y="126.36363636363636"/>
      <point x="327.1818181818182" y="126.36363636363636" type="curve" smooth="yes"/>
      <point x="205.72727272727272" y="126.36363636363636"/>
      <point x="119.09090909090908" y="243.09090909090907"/>
      <point x="60.90909090909092" y="533.3636363636364" type="curve"/>
      <point x="30.45454545454545" y="526.1818181818181" type="line"/>
      <point x="88.81818181818183" y="197.18181818181816"/>
      <point x="197.36363636363635" y="68.63636363636364"/>
    </contour>
  </outline>
</glyph>
<glyph name="au-beng" format="2">
  <advance width="570.7272727272727"/>
  <unicode hex="0994"/>
  <anchor x="510.0" y="39.90909090909091" name="bottom"/>
  <anchor x="558.0" y="-11.909090909090908" name="bottom.rakaar"/>
  <anchor x="481.90909090909093" y="73.45454545454545" name="bottom.rvocalic"/>
  <anchor x="434.6363636363636" y="24.454545454545453" name="bottom.virama"/>
  <anchor x="523.6363636363636" y="600.9090909090909" name="top"/>
  <anchor x="473.09090909090907" y="608.3636363636364" name="topright"/>
  <anchor x="285.3636363636364" y="0.0" name="vedic"/>
  <outline>
    <contour>
      <point x="424.7272727272727" y="342.6363636363636" type="line"/>
      <point x="471.7272727272727" y="397.18181818181813"/>
      <point x="511.1818181818182" y="465.54545454545456"/>
      <point x="511.1818181818182" y="568.2727272727273" type="curve" smooth="yes"/>
      <point x="511.1818181818182" y="710.6363636363636"/>
      <point x="429.09090909090907" y="743.6363636363636"/>
      <point x="327.4545454545455" y="758.8181818181818" type="curve" smooth="yes"/>
      <point x="246.7272727272727" y="771.0"/>
      <point x="182.9090909090909" y="782.0909090909091"/>
      <point x="182.9090909090909" y="873.5454545454545" type="curve" smooth="yes"/>
      <point x="182.9090909090909" y="905.8181818181818"/>
      <point x="191.27272727272728" y="934.909090909091"/>
      <point x="199.8181818181818" y="957.5454545454546" type="curve"/>
      <point x="171.54545454545456" y="968.3636363636364" type="line"/>
      <point x="159.8181818181818" y="939.3636363636363"/>
      <point x="149.27272727272728" y="903.3636363636364"/>
      <point x="149.27272727272728" y="862.2727272727273" type="curve" smooth="yes"/>
      <point x="149.27272727272728" y="746.0"/>
      <point x="222.0" y="721.909090909091"/>
      <point x="317.1818181818182" y="709.6363636363636" type="curve" smooth="yes"/>
      <point x="407.45454545454544" y="698.3636363636364"/>
      <point x="478.8181818181818" y="676.2727272727273"/>
      <point x="478.8181818181818" y="561.5454545454545" type="curve" smooth="yes"/>
      <point x="478.8181818181818" y="484.2727272727273"/>
      <point x="452.72727272727275" y="434.0909090909091"/>
      <point x="411.81818181818187" y="387.1818181818182" type="curve"/>
    </contour>
    <component base="o-beng"/>
  </outline>
</glyph>
<glyph name="ka-beng" format="2">
  <advance width="527.2727272727273"/>
  <unicode hex="0995"/>
  <anchor x="313.6363636363636" y="21.363636363636363" name="bottom"/>
  <anchor x="315.27272727272725" y="47.27272727272727" name="bottom.rakaar"/>
  <anchor x="319.45454545454544" y="7.090909090909092" name="bottom.rvocalic"/>
  <anchor x="312.72727272727275" y="17.81818181818182" name="bottom.virama"/>
  <anchor x="148.54545454545453" y="87.0909090909091" name="nukta"/>
  <anchor x="316.7272727272727" y="584.5454545454545" name="top"/>
  <anchor x="315.09090909090907" y="584.5454545454545" name="topright"/>
  <anchor x="263.3636363636363" y="0.0" name="vedic"/>
  <outline>
    <contour>
      <point x="314.8181818181818" y="-8.454545454545455" type="line"/>
      <point x="319.45454545454544" y="-7.454545454545455" type="line"/>
      <point x="319.45454545454544" y="474.72727272727275" type="line"/>
      <point x="306.9090909090909" y="456.5454545454545" type="line"/>
      <point x="310.0" y="457.5454545454545"/>
      <point x="314.0" y="458.5454545454545"/>
      <point x="317.9090909090909" y="458.5454545454545" type="curve" smooth="yes"/>
      <point x="392.00000000000006" y="458.5454545454545"/>
      <point x="462.1818181818182" y="388.8181818181818"/>
      <point x="462.1818181818182" y="297.8181818181818" type="curve" smooth="yes"/>
      <point x="462.1818181818182" y="278.1818181818182"/>
      <point x="457.8181818181818" y="269.1818181818182"/>
      <point x="451.8181818181818" y="259.0909090909091" type="curve"/>
      <point x="464.90909090909093" y="258.6363636363636" type="line"/>
      <point x="460.27272727272725" y="291.8181818181818"/>
      <point x="442.18181818181813" y="307.45454545454544"/>
      <point x="417.18181818181824" y="307.45454545454544" type="curve" smooth="yes"/>
      <point x="386.18181818181813" y="307.45454545454544"/>
      <point x="368.36363636363643" y="282.9090909090909"/>
      <point x="368.36363636363643" y="250.36363636363637" type="curve" smooth="yes"/>
      <point x="368.36363636363643" y="217.63636363636363"/>
      <point x="387.90909090909093" y="188.72727272727272"/>
      <point x="424.2727272727272" y="188.72727272727272" type="curve" smooth="yes"/>
      <point x="463.81818181818176" y="188.72727272727272"/>
      <point x="493.5454545454545" y="229.54545454545456"/>
      <point x="493.5454545454545" y="296.8181818181818" type="curve" smooth="yes"/>
      <point x="493.5454545454545" y="416.6363636363636"/>
      <point x="407.81818181818176" y="507.5454545454545"/>
      <point x="309.8181818181818" y="516.6363636363636" type="curve"/>
      <point x="319.45454545454544" y="500.45454545454544" type="line"/>
      <point x="319.45454545454544" y="584.5454545454545" type="line"/>
      <point x="547.7272727272726" y="584.5454545454545" type="line"/>
      <point x="526.5454545454545" y="622.0" type="line"/>
      <point x="-20.454545454545453" y="622.0" type="line"/>
      <point x="0.27272727272727315" y="584.5454545454545" type="line"/>
      <point x="281.6363636363636" y="584.5454545454545" type="line"/>
      <point x="281.6363636363636" y="500.9090909090909" type="line"/>
      <point x="288.0909090909091" y="518.1818181818181" type="line"/>
      <point x="196.1818181818182" y="473.0"/>
      <point x="106.27272727272728" y="411.0909090909091"/>
      <point x="25.0" y="340.1818181818182" type="curve"/>
      <point x="62.18181818181818" y="268.6363636363636" type="line"/>
      <point x="160.54545454545456" y="228.0"/>
      <point x="244.54545454545453" y="140.8181818181818"/>
      <point x="288.2727272727273" y="13.818181818181817" type="curve"/>
    </contour>
    <contour>
      <point x="281.6363636363636" y="66.63636363636364" type="line"/>
      <point x="293.27272727272725" y="60.81818181818182" type="line"/>
      <point x="261.1818181818182" y="185.54545454545456"/>
      <point x="161.27272727272728" y="279.3636363636364"/>
      <point x="74.9090909090909" y="319.8181818181818" type="curve"/>
      <point x="77.27272727272728" y="307.09090909090907" type="line"/>
      <point x="141.72727272727272" y="372.0909090909091"/>
      <point x="227.1818181818182" y="423.1818181818182"/>
      <point x="288.2727272727273" y="454.8181818181818" type="curve"/>
      <point x="281.6363636363636" y="473.3636363636364" type="line"/>
    </contour>
  </outline>
</glyph>
<glyph name="kha-beng" format="2">
  <advance width="435.99999999999994"/>
  <unicode hex="0996"/>
  <anchor x="359.4545454545455" y="21.363636363636363" name="bottom"/>
  <anchor x="364.90909090909093" y="47.272727272727266" name="bottom.rakaar"/>
  <anchor x="365.8181818181818" y="9.272727272727273" name="bottom.rvocalic"/>
  <anchor x="356.3636363636364" y="17.818181818181817" name="bottom.virama"/>
  <anchor x="359.8181818181818" y="553.1818181818182" name="top"/>
  <anchor x="353.9090909090909" y="558.8181818181819" name="topright"/>
  <anchor x="203.72727272727272" y="0.0" name="vedic"/>
  <outline>
    <contour>
      <point x="361.7272727272727" y="-8.454545454545455" type="line"/>
      <point x="365.8181818181818" y="-7.454545454545455" type="line"/>
      <point x="365.8181818181818" y="584.5454545454545" type="line"/>
      <point x="456.45454545454544" y="584.5454545454545" type="line"/>
      <point x="435.7272727272727" y="622.0" type="line"/>
      <point x="364.1818181818182" y="622.0" type="line"/>
      <point x="360.54545454545456" y="663.1818181818181" type="line"/>
      <point x="331.5454545454545" y="687.0909090909091" type="line"/>
      <point x="328.0" y="686.0909090909091" type="line"/>
      <point x="328.0" y="68.27272727272727" type="line"/>
      <point x="338.0" y="67.9090909090909" type="line"/>
      <point x="305.3636363636364" y="182.27272727272728"/>
      <point x="216.36363636363637" y="271.7272727272727"/>
      <point x="135.72727272727275" y="306.3636363636364" type="curve"/>
      <point x="141.9090909090909" y="293.6363636363636" type="line"/>
      <point x="226.9090909090909" y="313.6363636363636"/>
      <point x="271.72727272727275" y="366.2727272727273"/>
      <point x="271.72727272727275" y="456.6363636363636" type="curve" smooth="yes"/>
      <point x="271.72727272727275" y="541.0"/>
      <point x="234.9090909090909" y="590.6363636363636"/>
      <point x="201.63636363636363" y="623.4545454545454" type="curve"/>
      <point x="172.27272727272725" y="543.090909090909"/>
      <point x="128.45454545454547" y="502.0909090909091"/>
      <point x="87.45454545454545" y="502.0909090909091" type="curve" smooth="yes"/>
      <point x="80.27272727272727" y="502.0909090909091"/>
      <point x="69.45454545454545" y="504.1818181818182"/>
      <point x="64.9090909090909" y="507.2727272727273" type="curve"/>
      <point x="90.0909090909091" y="485.09090909090907" type="line"/>
      <point x="101.81818181818183" y="498.8181818181818"/>
      <point x="105.90909090909092" y="510.6363636363636"/>
      <point x="105.90909090909092" y="531.0909090909091" type="curve" smooth="yes"/>
      <point x="105.90909090909092" y="559.7272727272726"/>
      <point x="90.0" y="581.0909090909091"/>
      <point x="59.36363636363637" y="581.0909090909091" type="curve" smooth="yes"/>
      <point x="29.181818181818187" y="581.0909090909091"/>
      <point x="9.272727272727273" y="559.6363636363636"/>
      <point x="9.272727272727273" y="524.1818181818182" type="curve" smooth="yes"/>
      <point x="9.272727272727273" y="476.6363636363636"/>
      <point x="45.27272727272727" y="452.0"/>
      <point x="84.72727272727273" y="452.0" type="curve" smooth="yes"/>
      <point x="140.45454545454544" y="452.0"/>
      <point x="195.3636363636364" y="493.27272727272725"/>
      <point x="226.72727272727275" y="570.0909090909091" type="curve"/>
      <point x="202.72727272727272" y="564.2727272727274" type="line"/>
      <point x="219.1818181818182" y="544.6363636363636"/>
      <point x="234.45454545454544" y="514.8181818181819"/>
      <point x="234.45454545454544" y="468.7272727272727" type="curve" smooth="yes"/>
      <point x="234.45454545454544" y="376.6363636363636"/>
      <point x="161.27272727272728" y="345.09090909090907"/>
      <point x="78.0909090909091" y="337.3636363636364" type="curve"/>
      <point x="100.63636363636363" y="261.72727272727275" type="line"/>
      <point x="199.81818181818178" y="235.63636363636363"/>
      <point x="287.6363636363636" y="145.72727272727272"/>
      <point x="333.54545454545456" y="17.636363636363637" type="curve"/>
    </contour>
  </outline>
</glyph>
<glyph name="ga-beng" format="2">
  <advance width="435.7272727272727"/>
  <unicode hex="0997"/>
  <anchor x="353.27272727272725" y="56.72727272727272" name="bottom"/>
  <anchor x="364.6363636363636" y="-9.363636363636363" name="bottom.rakaar"/>
  <anchor x="365.54545454545456" y="-2.454545454545454" name="bottom.rvocalic"/>
  <anchor x="352.0" y="5.545454545454546" name="bottom.virama"/>
  <anchor x="359.54545454545456" y="553.1818181818181" name="top"/>
  <anchor x="353.6363636363636" y="558.8181818181819" name="topright"/>
  <anchor x="217.36363636363637" y="0.0" name="vedic"/>
  <outline>
    <contour>
      <point x="362.0" y="-18.18181818181818" type="line"/>
      <point x="365.54545454545456" y="-17.18181818181818" type="line"/>
      <point x="365.54545454545456" y="584.5454545454545" type="line"/>
      <point x="456.1818181818182" y="584.5454545454545" type="line"/>
      <point x="435.45454545454544" y="622.0" type="line"/>
      <point x="363.90909090909093" y="622.0" type="line"/>
      <point x="360.27272727272725" y="663.1818181818181" type="line"/>
      <point x="331.27272727272725" y="687.0909090909091" type="line"/>
      <point x="327.7272727272727" y="686.0909090909091" type="line"/>
      <point x="327.7272727272727" y="569.0909090909091" type="line" smooth="yes"/>
      <point x="327.7272727272727" y="521.2727272727273"/>
      <point x="328.8181818181818" y="481.72727272727275"/>
      <point x="332.45454545454544" y="435.0" type="curve"/>
      <point x="339.9090909090909" y="429.5454545454545" type="line"/>
      <point x="298.8181818181818" y="559.3636363636364"/>
      <point x="237.72727272727272" y="629.9090909090909"/>
      <point x="163.0909090909091" y="629.9090909090909" type="curve" smooth="yes"/>
      <point x="95.36363636363636" y="629.9090909090909"/>
      <point x="37.00000000000001" y="569.1818181818181"/>
      <point x="10.545454545454545" y="445.54545454545456" type="curve"/>
      <point x="69.18181818181819" y="410.8181818181818" type="line"/>
      <point x="86.90909090909092" y="436.09090909090907"/>
      <point x="112.0" y="452.7272727272727"/>
      <point x="141.81818181818184" y="452.7272727272727" type="curve" smooth="yes"/>
      <point x="175.8181818181818" y="452.7272727272727"/>
      <point x="194.09090909090907" y="427.1818181818182"/>
      <point x="194.09090909090907" y="393.1818181818182" type="curve" smooth="yes"/>
      <point x="194.09090909090907" y="340.09090909090907"/>
      <point x="157.72727272727275" y="300.54545454545456"/>
      <point x="97.18181818181817" y="263.9090909090909" type="curve"/>
      <point x="132.54545454545453" y="207.0909090909091" type="line"/>
      <point x="199.9090909090909" y="256.45454545454544"/>
      <point x="236.7272727272727" y="309.8181818181818"/>
      <point x="236.7272727272727" y="381.09090909090907" type="curve" smooth="yes"/>
      <point x="236.7272727272727" y="446.2727272727273"/>
      <point x="201.09090909090912" y="491.45454545454544"/>
      <point x="144.63636363636365" y="491.45454545454544" type="curve" smooth="yes"/>
      <point x="112.18181818181819" y="491.45454545454544"/>
      <point x="83.18181818181819" y="477.54545454545456"/>
      <point x="65.45454545454545" y="455.3636363636364" type="curve"/>
      <point x="75.63636363636363" y="449.90909090909093" type="line"/>
      <point x="88.18181818181819" y="542.0"/>
      <point x="132.45454545454547" y="580.7272727272727"/>
      <point x="176.8181818181818" y="580.7272727272727" type="curve" smooth="yes"/>
      <point x="232.27272727272725" y="580.7272727272727"/>
      <point x="287.45454545454544" y="518.6363636363636"/>
      <point x="333.72727272727275" y="366.6363636363637" type="curve"/>
      <point x="327.7272727272727" y="420.45454545454544" type="line"/>
      <point x="327.7272727272727" y="3.0" type="line"/>
    </contour>
  </outline>
</glyph>
<glyph name="gha-beng" format="2">
  <advance width="389.6363636363636"/>
  <unicode hex="0998"/>
  <anchor x="313.6363636363636" y="21.363636363636363" name="bottom"/>
  <anchor x="315.27272727272725" y="47.272727272727266" name="bottom.rakaar"/>
  <anchor x="319.45454545454544" y="7.090909090909092" name="bottom.rvocalic"/>
  <anchor x="312.72727272727275" y="17.818181818181817" name="bottom.virama"/>
  <anchor x="316.7272727272727" y="584.5454545454545" name="top"/>
  <anchor x="315.09090909090907" y="584.5454545454545" name="topright"/>
  <anchor x="194.81818181818178" y="0.0" name="vedic"/>
  <outline>
    <contour>
      <point x="314.8181818181818" y="-8.454545454545455" type="line"/>
      <point x="319.45454545454544" y="-7.454545454545455" type="line"/>
      <point x="319.45454545454544" y="584.5454545454545" type="line"/>
      <point x="410.0909090909091" y="584.5454545454545" type="line"/>
      <point x="389.3636363636363" y="622.0" type="line"/>
      <point x="-20.454545454545453" y="622.0" type="line"/>
      <point x="0.27272727272727315" y="584.5454545454545" type="line"/>
      <point x="281.6363636363636" y="584.5454545454545" type="line"/>
      <point x="281.6363636363636" y="66.63636363636364" type="line"/>
      <point x="293.27272727272725" y="60.81818181818182" type="line"/>
      <point x="261.1818181818182" y="185.54545454545456"/>
      <point x="161.27272727272728" y="274.8181818181818"/>
      <point x="74.90909090909092" y="307.54545454545456" type="curve"/>
      <point x="76.36363636363637" y="287.6363636363636" type="line"/>
      <point x="132.1818181818182" y="341.0"/>
      <point x="192.0909090909091" y="381.1818181818182"/>
      <point x="241.36363636363635" y="414.1818181818182" type="curve"/>
      <point x="216.27272727272728" y="464.09090909090907" type="line"/>
      <point x="194.72727272727275" y="441.45454545454544"/>
      <point x="173.8181818181818" y="430.7272727272727"/>
      <point x="147.9090909090909" y="430.7272727272727" type="curve" smooth="yes"/>
      <point x="113.72727272727272" y="430.7272727272727"/>
      <point x="81.09090909090908" y="453.6363636363636"/>
      <point x="81.09090909090908" y="501.0909090909091" type="curve" smooth="yes"/>
      <point x="81.09090909090908" y="557.4545454545454"/>
      <point x="125.18181818181819" y="583.6363636363636"/>
      <point x="173.0909090909091" y="591.3636363636364" type="curve"/>
      <point x="125.0" y="617.9090909090909" type="line"/>
      <point x="73.9090909090909" y="607.8181818181818"/>
      <point x="28.72727272727273" y="573.4545454545455"/>
      <point x="28.72727272727273" y="506.1818181818182" type="curve" smooth="yes"/>
      <point x="28.72727272727273" y="441.6363636363636"/>
      <point x="77.27272727272727" y="403.3636363636364"/>
      <point x="136.36363636363635" y="399.4545454545455" type="curve"/>
      <point x="134.72727272727272" y="408.45454545454544" type="line"/>
      <point x="97.9090909090909" y="382.90909090909093"/>
      <point x="63.54545454545455" y="355.27272727272725"/>
      <point x="30.727272727272723" y="325.72727272727275" type="curve"/>
      <point x="62.18181818181819" y="256.3636363636364" type="line"/>
      <point x="160.54545454545456" y="223.45454545454547"/>
      <point x="244.54545454545453" y="140.81818181818184"/>
      <point x="288.2727272727273" y="13.818181818181817" type="curve"/>
    </contour>
  </outline>
</glyph>
<glyph name="nga-beng" format="2">
  <advance width="428.9090909090909"/>
  <unicode hex="0999"/>
  <anchor x="293.27272727272725" y="28.545454545454547" name="bottom"/>
  <anchor x="365.6363636363637" y="-36.36363636363636" name="bottom.rakaar"/>
  <anchor x="304.1818181818182" y="35.90909090909091" name="bottom.rvocalic"/>
  <anchor x="277.2727272727273" y="0.0" name="bottom.virama"/>
  <anchor x="242.27272727272728" y="584.5454545454545" name="top"/>
  <anchor x="236.72727272727275" y="584.5454545454545" name="topright"/>
  <anchor x="214.18181818181816" y="0.0" name="vedic"/>
  <outline>
    <contour>
      <point x="260.3636363636364" y="44.18181818181818" type="curve" smooth="yes"/>
      <point x="354.3636363636364" y="44.18181818181818"/>
      <point x="411.27272727272725" y="115.27272727272727"/>
      <point x="411.27272727272725" y="241.9090909090909" type="curve" smooth="yes"/>
      <point x="411.27272727272725" y="320.0"/>
      <point x="386.00000000000006" y="380.90909090909093"/>
      <point x="354.6363636363636" y="422.3636363636364" type="curve"/>
      <point x="328.0" y="351.4545454545455"/>
      <point x="278.8181818181818" y="292.8181818181818"/>
      <point x="235.27272727272725" y="292.8181818181818" type="curve" smooth="yes"/>
      <point x="216.54545454545453" y="292.8181818181818"/>
      <point x="206.09090909090912" y="305.45454545454544"/>
      <point x="206.09090909090912" y="328.45454545454544" type="curve" smooth="yes"/>
      <point x="206.09090909090912" y="477.90909090909093" type="line" smooth="yes"/>
      <point x="206.09090909090912" y="553.1818181818182"/>
      <point x="224.27272727272728" y="593.1818181818182"/>
      <point x="257.72727272727275" y="593.1818181818182" type="curve" smooth="yes"/>
      <point x="282.4545454545455" y="593.1818181818182"/>
      <point x="299.6363636363636" y="571.0909090909091"/>
      <point x="299.6363636363636" y="531.1818181818181" type="curve" smooth="yes"/>
      <point x="299.6363636363636" y="492.72727272727275"/>
      <point x="285.9090909090909" y="458.72727272727275"/>
      <point x="241.27272727272728" y="458.72727272727275" type="curve" smooth="yes"/>
      <point x="172.36363636363635" y="458.72727272727275"/>
      <point x="141.9090909090909" y="510.81818181818176"/>
      <point x="108.81818181818181" y="619.9090909090909" type="curve"/>
      <point x="81.45454545454545" y="607.4545454545455" type="line"/>
      <point x="111.63636363636364" y="505.8181818181818"/>
      <point x="150.45454545454544" y="415.6363636363636"/>
      <point x="241.72727272727275" y="415.6363636363636" type="curve" smooth="yes"/>
      <point x="312.09090909090907" y="415.6363636363636"/>
      <point x="335.8181818181818" y="474.1818181818182"/>
      <point x="335.8181818181818" y="523.8181818181818" type="curve" smooth="yes"/>
      <point x="335.8181818181818" y="584.4545454545455"/>
      <point x="308.54545454545456" y="632.4545454545455"/>
      <point x="256.0909090909091" y="632.4545454545455" type="curve" smooth="yes"/>
      <point x="200.54545454545453" y="632.4545454545455"/>
      <point x="168.27272727272725" y="581.090909090909"/>
      <point x="168.27272727272725" y="493.6363636363636" type="curve" smooth="yes"/>
      <point x="168.27272727272725" y="327.54545454545456" type="line" smooth="yes"/>
      <point x="168.27272727272725" y="297.0"/>
      <point x="179.1818181818182" y="275.72727272727275"/>
      <point x="192.27272727272725" y="262.6363636363637" type="curve" smooth="yes"/>
      <point x="206.18181818181816" y="248.72727272727275"/>
      <point x="224.09090909090912" y="241.54545454545453"/>
      <point x="243.45454545454544" y="241.54545454545453" type="curve" smooth="yes"/>
      <point x="292.54545454545456" y="241.54545454545453"/>
      <point x="343.9090909090909" y="289.8181818181818"/>
      <point x="373.54545454545456" y="356.09090909090907" type="curve"/>
      <point x="352.3636363636364" y="351.4545454545455" type="line"/>
      <point x="365.90909090909093" y="329.3636363636364"/>
      <point x="376.7272727272727" y="294.0"/>
      <point x="376.7272727272727" y="246.27272727272728" type="curve" smooth="yes"/>
      <point x="376.7272727272727" y="147.54545454545453"/>
      <point x="327.8181818181818" y="102.36363636363636"/>
      <point x="258.1818181818182" y="102.36363636363636" type="curve" smooth="yes"/>
      <point x="136.36363636363637" y="102.36363636363636"/>
      <point x="85.18181818181819" y="235.45454545454547"/>
      <point x="46.18181818181818" y="494.72727272727275" type="curve"/>
      <point x="17.363636363636363" y="489.0909090909091" type="line"/>
      <point x="56.54545454545454" y="179.72727272727275"/>
      <point x="123.27272727272727" y="44.18181818181818"/>
    </contour>
  </outline>
</glyph>
<glyph name="ca-beng" format="2">
  <advance width="364.3636363636364"/>
  <unicode hex="099A"/>
  <anchor x="236.72727272727275" y="37.72727272727273" name="bottom"/>
  <anchor x="280.90909090909093" y="0.0" name="bottom.rakaar"/>
  <anchor x="234.45454545454547" y="39.63636363636364" name="bottom.rvocalic"/>
  <anchor x="191.45454545454544" y="35.54545454545455" name="bottom.virama"/>
  <anchor x="102.54545454545455" y="584.5454545454545" name="top"/>
  <anchor x="104.0" y="584.5454545454545" name="topright"/>
  <anchor x="181.9090909090909" y="0.0" name="vedic"/>
  <outline>
    <contour>
      <point x="159.0" y="39.63636363636364" type="curve" smooth="yes"/>
      <point x="260.09090909090907" y="39.63636363636364"/>
      <point x="325.1818181818182" y="215.8181818181818"/>
      <point x="325.1818181818182" y="337.0" type="curve" smooth="yes"/>
      <point x="325.1818181818182" y="367.90909090909093"/>
      <point x="302.0" y="389.6363636363637"/>
      <point x="289.3636363636364" y="397.5454545454545" type="curve"/>
      <point x="222.90909090909093" y="407.9090909090909"/>
      <point x="144.0909090909091" y="458.90909090909093"/>
      <point x="102.63636363636364" y="563.4545454545455" type="curve"/>
      <point x="100.27272727272727" y="513.8181818181819" type="line"/>
      <point x="130.72727272727275" y="418.90909090909093"/>
      <point x="207.45454545454547" y="358.45454545454544"/>
      <point x="290.54545454545456" y="345.54545454545456" type="curve"/>
      <point x="276.09090909090907" y="361.45454545454544" type="line"/>
      <point x="274.1818181818182" y="216.27272727272725"/>
      <point x="211.81818181818178" y="84.81818181818183"/>
      <point x="150.45454545454547" y="84.81818181818183" type="curve" smooth="yes"/>
      <point x="125.72727272727273" y="84.81818181818183"/>
      <point x="108.0" y="104.27272727272728"/>
      <point x="108.0" y="141.63636363636363" type="curve" smooth="yes"/>
      <point x="108.0" y="584.5454545454545" type="line"/>
      <point x="384.8181818181818" y="584.5454545454545" type="line"/>
      <point x="363.6363636363636" y="622.0" type="line"/>
      <point x="-20.454545454545453" y="622.0" type="line"/>
      <point x="1.272727272727273" y="584.5454545454545" type="line"/>
      <point x="70.18181818181819" y="584.5454545454545" type="line"/>
      <point x="70.18181818181819" y="141.18181818181816" type="line" smooth="yes"/>
      <point x="70.18181818181819" y="77.90909090909092"/>
      <point x="108.9090909090909" y="39.63636363636364"/>
    </contour>
  </outline>
</glyph>
<glyph name="cha-beng" format="2">
  <advance width="396.3636363636364"/>
  <unicode hex="099B"/>
  <anchor x="237.09090909090907" y="75.0909090909091" name="bottom"/>
  <anchor x="322.0" y="-98.9090909090909" name="bottom.rakaar"/>
  <anchor x="277.09090909090907" y="75.54545454545455" name="bottom.rvocalic"/>
  <anchor x="220.63636363636365" y="68.72727272727272" name="bottom.virama"/>
  <anchor x="87.0909090909091" y="584.5454545454545" name="top"/>
  <anchor x="88.54545454545455" y="584.5454545454545" name="topright"/>
  <anchor x="198.1818181818182" y="0.0" name="vedic"/>
  <outline>
    <contour>
      <point x="372.6363636363637" y="-63.090909090909086" type="curve"/>
      <point x="392.1818181818182" y="-39.18181818181818" type="line"/>
      <point x="334.8181818181818" y="41.0"/>
      <point x="249.4545454545455" y="141.72727272727272"/>
      <point x="154.0" y="178.63636363636365" type="curve"/>
      <point x="134.27272727272728" y="163.0" type="line"/>
      <point x="153.18181818181816" y="156.8181818181818"/>
      <point x="169.72727272727272" y="155.8181818181818"/>
      <point x="189.00000000000003" y="155.8181818181818" type="curve" smooth="yes"/>
      <point x="274.1818181818182" y="155.8181818181818"/>
      <point x="346.7272727272727" y="214.27272727272728"/>
      <point x="346.7272727272727" y="335.72727272727275" type="curve" smooth="yes"/>
      <point x="346.7272727272727" y="437.9090909090909"/>
      <point x="290.0" y="499.2727272727273"/>
      <point x="213.45454545454547" y="499.2727272727273" type="curve" smooth="yes"/>
      <point x="157.72727272727272" y="499.2727272727273"/>
      <point x="114.36363636363636" y="522.3636363636364"/>
      <point x="90.18181818181819" y="584.5454545454545" type="curve"/>
      <point x="86.72727272727272" y="553.2727272727273" type="line"/>
      <point x="107.9090909090909" y="491.6363636363636"/>
      <point x="151.1818181818182" y="455.3636363636364"/>
      <point x="207.54545454545453" y="453.90909090909093" type="curve"/>
      <point x="193.54545454545453" y="475.90909090909093" type="line"/>
      <point x="192.9090909090909" y="379.6363636363636"/>
      <point x="161.36363636363635" y="309.6363636363636"/>
      <point x="125.45454545454547" y="309.6363636363636" type="curve" smooth="yes"/>
      <point x="105.63636363636364" y="309.6363636363636"/>
      <point x="94.72727272727273" y="324.54545454545456"/>
      <point x="94.72727272727273" y="350.18181818181813" type="curve" smooth="yes"/>
      <point x="94.72727272727273" y="584.5454545454545" type="line"/>
      <point x="416.81818181818176" y="584.5454545454545" type="line"/>
      <point x="395.54545454545456" y="622.0" type="line"/>
      <point x="-20.454545454545453" y="622.0" type="line"/>
      <point x="0.27272727272727315" y="584.5454545454545" type="line"/>
      <point x="56.90909090909091" y="584.5454545454545" type="line"/>
      <point x="56.90909090909091" y="350.27272727272725" type="line" smooth="yes"/>
      <point x="56.90909090909091" y="301.45454545454544"/>
      <point x="87.9090909090909" y="264.45454545454544"/>
      <point x="133.0" y="264.45454545454544" type="curve" smooth="yes"/>
      <point x="190.0" y="264.45454545454544"/>
      <point x="238.27272727272728" y="336.6363636363637"/>
      <point x="245.9090909090909" y="479.72727272727275" type="curve"/>
      <point x="226.0" y="460.45454545454544" type="line"/>
      <point x="267.0" y="457.6363636363636"/>
      <point x="306.1818181818182" y="430.1818181818182"/>
      <point x="306.1818181818182" y="345.0" type="curve" smooth="yes"/>
      <point x="306.1818181818182" y="246.0"/>
      <point x="247.54545454545456" y="205.45454545454544"/>
      <point x="172.36363636363637" y="205.45454545454544" type="curve" smooth="yes"/>
      <point x="131.0909090909091" y="205.45454545454544"/>
      <point x="97.81818181818181" y="214.9090909090909"/>
      <point x="74.18181818181819" y="230.45454545454544" type="curve"/>
      <point x="91.0" y="154.54545454545456" type="line"/>
      <point x="200.45454545454544" y="124.54545454545455"/>
      <point x="282.1818181818182" y="50.27272727272727"/>
    </contour>
  </outline>
</glyph>
<glyph name="ja-beng" format="2">
  <advance width="568.5454545454546"/>
  <unicode hex="099C"/>
  <anchor x="494.72727272727275" y="86.0909090909091" name="bottom"/>
  <anchor x="506.63636363636357" y="75.9090909090909" name="bottom.rakaar"/>
  <anchor x="507.00000000000006" y="18.545454545454547" name="bottom.rvocalic"/>
  <anchor x="496.8181818181818" y="5.909090909090908" name="bottom.virama"/>
  <anchor x="311.45454545454544" y="584.5454545454545" name="top"/>
  <anchor x="313.3636363636363" y="584.5454545454545" name="topright"/>
  <anchor x="284.27272727272725" y="0.0" name="vedic"/>
  <outline>
    <contour>
      <point x="250.54545454545456" y="67.45454545454545" type="curve" smooth="yes"/>
      <point x="343.90909090909093" y="67.45454545454545"/>
      <point x="387.8181818181818" y="144.0"/>
      <point x="387.8181818181818" y="248.45454545454547" type="curve" smooth="yes"/>
      <point x="387.8181818181818" y="314.54545454545456"/>
      <point x="368.90909090909093" y="370.72727272727275"/>
      <point x="329.6363636363636" y="420.1818181818182" type="curve"/>
      <point x="304.6363636363636" y="353.90909090909093"/>
      <point x="271.27272727272725" y="322.7272727272727"/>
      <point x="234.0909090909091" y="322.7272727272727" type="curve" smooth="yes"/>
      <point x="201.90909090909088" y="322.7272727272727"/>
      <point x="180.0" y="349.7272727272727"/>
      <point x="180.0" y="397.45454545454544" type="curve" smooth="yes"/>
      <point x="180.0" y="483.1818181818182"/>
      <point x="257.3636363636364" y="552.1818181818182"/>
      <point x="327.8181818181818" y="584.5454545454545" type="curve"/>
      <point x="589.0" y="584.5454545454545" type="line"/>
      <point x="568.2727272727274" y="622.0" type="line"/>
      <point x="-20.454545454545453" y="622.0" type="line"/>
      <point x="0.27272727272727315" y="584.5454545454545" type="line"/>
      <point x="265.8181818181818" y="584.5454545454545" type="line"/>
      <point x="257.3636363636363" y="595.7272727272726" type="line"/>
      <point x="201.7272727272727" y="564.9090909090909"/>
      <point x="138.45454545454544" y="493.09090909090907"/>
      <point x="138.45454545454544" y="406.0909090909091" type="curve" smooth="yes"/>
      <point x="138.45454545454544" y="321.4545454545455"/>
      <point x="184.7272727272727" y="270.45454545454544"/>
      <point x="240.90909090909088" y="270.45454545454544" type="curve" smooth="yes"/>
      <point x="292.54545454545456" y="270.45454545454544"/>
      <point x="332.0" y="314.27272727272725"/>
      <point x="355.1818181818182" y="366.8181818181818" type="curve"/>
      <point x="328.3636363636364" y="359.7272727272727" type="line"/>
      <point x="343.5454545454545" y="332.3636363636364"/>
      <point x="354.3636363636364" y="303.09090909090907"/>
      <point x="354.3636363636364" y="256.54545454545456" type="curve" smooth="yes"/>
      <point x="354.3636363636364" y="172.36363636363635"/>
      <point x="315.6363636363636" y="125.72727272727273"/>
      <point x="248.0" y="125.72727272727273" type="curve" smooth="yes"/>
      <point x="144.0909090909091" y="125.72727272727273"/>
      <point x="78.0" y="245.36363636363637"/>
      <point x="52.63636363636363" y="491.45454545454544" type="curve"/>
      <point x="22.72727272727273" y="486.8181818181818" type="line"/>
      <point x="52.54545454545454" y="181.54545454545453"/>
      <point x="134.45454545454547" y="67.45454545454545"/>
    </contour>
    <contour>
      <point x="478.0909090909091" y="2.454545454545454" type="curve"/>
      <point x="507.00000000000006" y="12.181818181818182" type="line"/>
      <point x="490.90909090909093" y="73.54545454545455"/>
      <point x="479.1818181818182" y="133.09090909090907"/>
      <point x="479.1818181818182" y="212.63636363636363" type="curve" smooth="yes"/>
      <point x="479.1818181818182" y="305.9090909090909"/>
      <point x="497.90909090909093" y="377.1818181818182"/>
      <point x="531.2727272727273" y="422.8181818181818" type="curve"/>
      <point x="502.54545454545456" y="471.72727272727275" type="line"/>
      <point x="418.6363636363636" y="475.72727272727275"/>
      <point x="366.0" y="506.5454545454545"/>
      <point x="333.0909090909091" y="606.4545454545455" type="curve"/>
      <point x="306.54545454545456" y="582.9090909090909" type="line"/>
      <point x="342.54545454545456" y="473.6363636363636"/>
      <point x="413.45454545454544" y="429.9090909090909"/>
      <point x="484.2727272727273" y="420.3636363636364" type="curve"/>
      <point x="477.81818181818176" y="439.2727272727273" type="line"/>
      <point x="457.18181818181813" y="391.8181818181818"/>
      <point x="440.2727272727272" y="320.3636363636364"/>
      <point x="440.2727272727272" y="235.36363636363637" type="curve" smooth="yes"/>
      <point x="440.2727272727272" y="150.99999999999997"/>
      <point x="455.3636363636363" y="76.36363636363636"/>
    </contour>
  </outline>
</glyph>
<glyph name="jha-beng" format="2">
  <advance width="497.72727272727275"/>
  <unicode hex="099D"/>
  <anchor x="313.6363636363636" y="21.363636363636363" name="bottom"/>
  <anchor x="315.27272727272725" y="47.272727272727266" name="bottom.rakaar"/>
  <anchor x="319.45454545454544" y="7.090909090909092" name="bottom.rvocalic"/>
  <anchor x="312.72727272727275" y="17.818181818181817" name="bottom.virama"/>
  <anchor x="316.72727272727275" y="584.5454545454545" name="top"/>
  <anchor x="355.90909090909093" y="584.5454545454545" name="topleft"/>
  <anchor x="315.0909090909091" y="584.5454545454545" name="topright"/>
  <anchor x="248.63636363636363" y="0.0" name="vedic"/>
  <outline>
    <contour>
      <point x="314.8181818181818" y="-8.454545454545455" type="line"/>
      <point x="319.45454545454544" y="-7.454545454545455" type="line"/>
      <point x="319.45454545454544" y="622.0" type="line"/>
      <point x="-20.454545454545453" y="622.0" type="line"/>
      <point x="0.27272727272727315" y="584.5454545454545" type="line"/>
      <point x="281.6363636363636" y="584.5454545454545" type="line"/>
      <point x="281.6363636363636" y="500.9090909090909" type="line"/>
      <point x="288.0909090909091" y="518.1818181818181" type="line"/>
      <point x="195.72727272727275" y="473.0"/>
      <point x="106.27272727272728" y="411.0909090909091"/>
      <point x="25.0" y="340.1818181818182" type="curve"/>
      <point x="62.18181818181818" y="268.6363636363636" type="line"/>
      <point x="160.54545454545456" y="228.0"/>
      <point x="244.54545454545453" y="140.8181818181818"/>
      <point x="288.2727272727273" y="13.818181818181817" type="curve"/>
    </contour>
    <contour>
      <point x="281.6363636363636" y="66.63636363636364" type="line"/>
      <point x="293.27272727272725" y="60.81818181818182" type="line"/>
      <point x="261.1818181818182" y="185.54545454545456"/>
      <point x="161.27272727272728" y="279.3636363636364"/>
      <point x="74.9090909090909" y="319.8181818181818" type="curve"/>
      <point x="77.27272727272728" y="307.09090909090907" type="line"/>
      <point x="141.72727272727272" y="371.6363636363636"/>
      <point x="227.1818181818182" y="423.1818181818182"/>
      <point x="288.2727272727273" y="454.8181818181818" type="curve"/>
      <point x="281.6363636363636" y="473.3636363636364" type="line"/>
    </contour>
    <contour>
      <point x="422.90909090909093" y="91.54545454545453" type="line"/>
      <point x="427.5454545454546" y="92.54545454545453" type="line"/>
      <point x="427.5454545454546" y="584.5454545454545" type="line"/>
      <point x="518.1818181818182" y="584.5454545454545" type="line"/>
      <point x="497.45454545454544" y="622.0" type="line"/>
      <point x="425.90909090909093" y="622.0" type="line"/>
      <point x="422.27272727272725" y="663.1818181818181" type="line"/>
      <point x="393.27272727272725" y="687.0909090909091" type="line"/>
      <point x="389.7272727272727" y="686.0909090909091" type="line"/>
      <point x="389.7272727272727" y="166.63636363636365" type="line"/>
      <point x="401.3636363636364" y="160.8181818181818" type="line"/>
      <point x="383.72727272727275" y="228.90909090909093"/>
      <point x="346.6363636363636" y="287.2727272727273"/>
      <point x="302.5454545454545" y="331.8181818181818" type="curve"/>
      <point x="300.0" y="275.8181818181818" type="line"/>
      <point x="341.09090909090907" y="233.36363636363637"/>
      <point x="373.54545454545456" y="179.27272727272728"/>
      <point x="396.3636363636363" y="113.81818181818181" type="curve"/>
    </contour>
  </outline>
</glyph>
<glyph name="nya-beng" format="2">
  <advance width="676.0"/>
  <unicode hex="099E"/>
  <anchor x="412.72727272727275" y="19.545454545454547" name="bottom"/>
  <anchor x="414.3636363636364" y="45.45454545454545" name="bottom.rakaar"/>
  <anchor x="418.54545454545456" y="5.272727272727273" name="bottom.rvocalic"/>
  <anchor x="411.8181818181818" y="16.0" name="bottom.virama"/>
  <anchor x="356.72727272727275" y="584.5454545454545" name="top"/>
  <anchor x="362.81818181818187" y="584.5454545454545" name="topright"/>
  <anchor x="338.0" y="0.0" name="vedic"/>
  <outline>
    <contour>
      <point x="535.2727272727273" y="69.9090909090909" type="curve" smooth="yes"/>
      <point x="593.7272727272727" y="69.9090909090909"/>
      <point x="623.7272727272727" y="129.63636363636363"/>
      <point x="623.7272727272727" y="209.8181818181818" type="curve" smooth="yes"/>
      <point x="623.7272727272727" y="266.6363636363636"/>
      <point x="605.6363636363636" y="314.0"/>
      <point x="577.5454545454545" y="344.27272727272725" type="curve"/>
      <point x="583.9090909090909" y="316.90909090909093" type="line"/>
      <point x="605.0" y="347.0909090909091"/>
      <point x="622.2727272727273" y="398.3636363636364"/>
      <point x="622.2727272727273" y="459.6363636363636" type="curve" smooth="yes"/>
      <point x="622.2727272727273" y="532.0909090909091"/>
      <point x="592.2727272727273" y="593.7272727272726"/>
      <point x="540.2727272727274" y="593.7272727272726" type="curve" smooth="yes"/>
      <point x="464.3636363636364" y="593.7272727272726"/>
      <point x="409.6363636363637" y="449.54545454545456"/>
      <point x="403.6363636363637" y="376.72727272727275" type="curve"/>
      <point x="403.6363636363637" y="287.90909090909093" type="line"/>
      <point x="415.1818181818182" y="175.27272727272728"/>
      <point x="469.09090909090907" y="69.9090909090909"/>
    </contour>
    <contour>
      <point x="532.1818181818182" y="125.9090909090909" type="curve" smooth="yes"/>
      <point x="474.3636363636364" y="125.9090909090909"/>
      <point x="424.8181818181818" y="233.0"/>
      <point x="424.8181818181818" y="326.54545454545456" type="curve" smooth="yes"/>
      <point x="424.8181818181818" y="405.0"/>
      <point x="474.8181818181818" y="539.9090909090909"/>
      <point x="538.5454545454545" y="539.9090909090909" type="curve" smooth="yes"/>
      <point x="568.9090909090909" y="539.9090909090909"/>
      <point x="587.0" y="511.8181818181818"/>
      <point x="587.0" y="468.6363636363636" type="curve" smooth="yes"/>
      <point x="587.0" y="415.0909090909091"/>
      <point x="567.2727272727273" y="374.27272727272725"/>
      <point x="539.2727272727273" y="353.6363636363636" type="curve"/>
      <point x="568.2727272727273" y="348.0909090909091" type="line"/>
      <point x="553.8181818181818" y="374.6363636363636"/>
      <point x="535.5454545454545" y="381.72727272727275"/>
      <point x="518.7272727272727" y="381.72727272727275" type="curve" smooth="yes"/>
      <point x="492.27272727272725" y="381.72727272727275"/>
      <point x="473.54545454545456" y="361.1818181818182"/>
      <point x="473.54545454545456" y="328.0909090909091" type="curve" smooth="yes"/>
      <point x="473.54545454545456" y="291.8181818181818"/>
      <point x="493.9090909090909" y="273.27272727272725"/>
      <point x="520.8181818181819" y="273.27272727272725" type="curve" smooth="yes"/>
      <point x="544.3636363636364" y="273.27272727272725"/>
      <point x="562.090909090909" y="286.6363636363637"/>
      <point x="577.7272727272727" y="311.45454545454544" type="curve"/>
      <point x="554.1818181818182" y="321.72727272727275" type="line"/>
      <point x="572.3636363636364" y="302.90909090909093"/>
      <point x="591.7272727272727" y="271.8181818181818"/>
      <point x="591.7272727272727" y="219.45454545454547" type="curve" smooth="yes"/>
      <point x="591.7272727272727" y="159.45454545454547"/>
      <point x="569.7272727272727" y="125.9090909090909"/>
    </contour>
    <component base="e-beng"/>
  </outline>
</glyph>
<glyph name="tta-beng" format="2">
  <advance width="370.54545454545456"/>
  <unicode hex="099F"/>
  <anchor x="242.1818181818182" y="44.09090909090909" name="bottom"/>
  <anchor x="286.3636363636364" y="6.363636363636362" name="bottom.rakaar"/>
  <anchor x="239.9090909090909" y="46.0" name="bottom.rvocalic"/>
  <anchor x="196.9090909090909" y="41.90909090909091" name="bottom.virama"/>
  <anchor x="183.1818181818182" y="637.9090909090909" name="top"/>
  <anchor x="145.54545454545456" y="649.6363636363637" name="topright"/>
  <anchor x="185.27272727272728" y="0.0" name="vedic"/>
  <anchor x="165.54545454545456" y="-53.81818181818182" name="nukta"/>
  <outline>
    <contour>
      <point x="277.45454545454544" y="614.7272727272727" type="curve"/>
      <point x="307.9090909090909" y="614.7272727272727" type="line"/>
      <point x="303.54545454545456" y="732.5454545454545"/>
      <point x="273.0" y="784.9090909090909"/>
      <point x="203.63636363636365" y="784.9090909090909" type="curve" smooth="yes"/>
      <point x="165.27272727272728" y="784.9090909090909"/>
      <point x="141.36363636363635" y="774.5454545454546"/>
      <point x="100.81818181818181" y="774.5454545454546" type="curve" smooth="yes"/>
      <point x="51.727272727272734" y="774.5454545454546"/>
      <point x="27.63636363636364" y="796.0"/>
      <point x="27.63636363636364" y="866.4545454545455" type="curve" smooth="yes"/>
      <point x="27.63636363636364" y="879.0909090909091"/>
      <point x="28.63636363636364" y="895.090909090909"/>
      <point x="30.181818181818183" y="905.6363636363636" type="curve"/>
      <point x="2.363636363636365" y="908.7272727272727" type="line"/>
      <point x="0.2727272727272734" y="891.9090909090909"/>
      <point x="-0.7272727272727266" y="872.1818181818182"/>
      <point x="-0.7272727272727266" y="857.6363636363636" type="curve" smooth="yes"/>
      <point x="-0.7272727272727266" y="763.6363636363636"/>
      <point x="34.36363636363636" y="722.4545454545455"/>
      <point x="102.45454545454547" y="722.4545454545455" type="curve" smooth="yes"/>
      <point x="150.36363636363635" y="722.4545454545455"/>
      <point x="168.9090909090909" y="733.3636363636364"/>
      <point x="209.0" y="733.3636363636364" type="curve" smooth="yes"/>
      <point x="258.0" y="733.3636363636364"/>
      <point x="274.6363636363636" y="692.0909090909091"/>
    </contour>
    <component base="ddha-beng"/>
  </outline>
</glyph>
<glyph name="ttha-beng" format="2">
  <advance width="384.9090909090909"/>
  <unicode hex="09A0"/>
  <anchor x="229.18181818181816" y="2.2727272727272725" name="bottom"/>
  <anchor x="322.1818181818182" y="-29.272727272727273" name="bottom.rakaar"/>
  <anchor x="257.0" y="10.0" name="bottom.rvocalic"/>
  <anchor x="232.18181818181816" y="0.0" name="bottom.virama"/>
  <anchor x="304.6363636363636" y="552.6363636363636" name="top"/>
  <anchor x="310.54545454545456" y="615.3636363636364" name="topleft"/>
  <anchor x="222.90909090909088" y="584.5454545454545" name="topright"/>
  <anchor x="192.1818181818182" y="0.0" name="vedic"/>
  <outline>
    <contour>
      <point x="195.45454545454547" y="12.272727272727273" type="curve" smooth="yes"/>
      <point x="284.6363636363637" y="12.272727272727273"/>
      <point x="340.6363636363636" y="85.72727272727273"/>
      <point x="340.6363636363636" y="210.0909090909091" type="curve" smooth="yes"/>
      <point x="340.6363636363636" y="331.8181818181818"/>
      <point x="285.8181818181818" y="457.6363636363636"/>
      <point x="208.0909090909091" y="584.5454545454545" type="curve"/>
      <point x="405.3636363636364" y="584.5454545454545" type="line"/>
      <point x="385.18181818181813" y="622.0" type="line"/>
      <point x="177.45454545454547" y="622.0" type="line"/>
      <point x="151.9090909090909" y="664.0909090909091"/>
      <point x="125.9090909090909" y="711.5454545454546"/>
      <point x="125.9090909090909" y="758.8181818181819" type="curve" smooth="yes"/>
      <point x="125.9090909090909" y="798.1818181818181"/>
      <point x="145.0909090909091" y="828.3636363636364"/>
      <point x="181.45454545454544" y="858.4545454545455" type="curve"/>
      <point x="144.0909090909091" y="901.4545454545455" type="line"/>
      <point x="102.18181818181819" y="866.7272727272727"/>
      <point x="80.90909090909089" y="828.0"/>
      <point x="80.90909090909089" y="780.090909090909" type="curve" smooth="yes"/>
      <point x="80.90909090909089" y="722.1818181818182"/>
      <point x="110.1818181818182" y="672.8181818181819"/>
      <point x="140.63636363636363" y="622.0" type="curve"/>
      <point x="-20.454545454545453" y="622.0" type="line"/>
      <point x="0.27272727272727315" y="584.5454545454545" type="line"/>
      <point x="154.36363636363635" y="584.5454545454545" type="line"/>
      <point x="166.1818181818182" y="552.2727272727273"/>
      <point x="174.0" y="499.3636363636364"/>
      <point x="174.0" y="455.09090909090907" type="curve" smooth="yes"/>
      <point x="174.0" y="339.8181818181818"/>
      <point x="135.45454545454547" y="269.0"/>
      <point x="27.454545454545453" y="238.8181818181818" type="curve"/>
      <point x="43.36363636363636" y="81.72727272727273"/>
      <point x="107.90909090909092" y="12.272727272727273"/>
    </contour>
    <contour>
      <point x="191.0909090909091" y="56.90909090909091" type="curve" smooth="yes"/>
      <point x="128.72727272727272" y="56.90909090909091"/>
      <point x="86.0909090909091" y="120.90909090909092"/>
      <point x="81.36363636363636" y="215.18181818181816" type="curve"/>
      <point x="72.72727272727272" y="190.0909090909091" type="line"/>
      <point x="163.9090909090909" y="219.45454545454544"/>
      <point x="211.36363636363635" y="294.27272727272725"/>
      <point x="211.36363636363635" y="409.3636363636364" type="curve" smooth="yes"/>
      <point x="211.36363636363635" y="481.0909090909091"/>
      <point x="196.72727272727275" y="542.0909090909091"/>
      <point x="176.90909090909093" y="595.4545454545455" type="curve"/>
      <point x="172.27272727272728" y="593.6363636363636" type="line"/>
      <point x="242.8181818181818" y="472.45454545454544"/>
      <point x="291.4545454545455" y="350.3636363636364"/>
      <point x="291.4545454545455" y="222.8181818181818" type="curve" smooth="yes"/>
      <point x="291.4545454545455" y="106.81818181818183"/>
      <point x="245.63636363636365" y="56.90909090909091"/>
    </contour>
  </outline>
</glyph>
<glyph name="dda-beng" format="2">
  <advance width="442.1818181818182"/>
  <unicode hex="09A1"/>
  <anchor x="300.0" y="48.09090909090909" name="bottom"/>
  <anchor x="369.2727272727273" y="-15.09090909090909" name="bottom.rakaar"/>
  <anchor x="308.0" y="64.27272727272728" name="bottom.rvocalic"/>
  <anchor x="279.0909090909091" y="21.272727272727273" name="bottom.virama"/>
  <anchor x="234.0" y="-39.27272727272727" name="nukta"/>
  <anchor x="207.72727272727272" y="584.5454545454545" name="top"/>
  <anchor x="209.72727272727272" y="584.5454545454545" name="topright"/>
  <anchor x="220.8181818181818" y="0.0" name="vedic"/>
  <outline>
    <contour>
      <point x="260.6363636363636" y="65.45454545454545" type="curve" smooth="yes"/>
      <point x="362.3636363636364" y="65.45454545454545"/>
      <point x="416.27272727272725" y="147.0"/>
      <point x="416.27272727272725" y="268.81818181818187" type="curve" smooth="yes"/>
      <point x="416.27272727272725" y="358.0"/>
      <point x="385.4545454545455" y="419.0"/>
      <point x="348.6363636363637" y="457.1818181818182" type="curve"/>
      <point x="322.3636363636364" y="391.6363636363636"/>
      <point x="277.8181818181818" y="338.9090909090909"/>
      <point x="240.63636363636365" y="338.9090909090909" type="curve" smooth="yes"/>
      <point x="223.09090909090912" y="338.9090909090909"/>
      <point x="213.1818181818182" y="352.09090909090907"/>
      <point x="213.1818181818182" y="374.18181818181813" type="curve" smooth="yes"/>
      <point x="213.1818181818182" y="584.5454545454545" type="line"/>
      <point x="462.6363636363637" y="584.5454545454545" type="line"/>
      <point x="440.90909090909093" y="622.0" type="line"/>
      <point x="-20.454545454545453" y="622.0" type="line"/>
      <point x="0.27272727272727315" y="584.5454545454545" type="line"/>
      <point x="175.36363636363637" y="584.5454545454545" type="line"/>
      <point x="175.36363636363637" y="372.6363636363637" type="line" smooth="yes"/>
      <point x="175.36363636363637" y="342.0909090909091"/>
      <point x="183.72727272727272" y="321.7272727272727"/>
      <point x="199.54545454545453" y="307.27272727272725" type="curve" smooth="yes"/>
      <point x="213.81818181818184" y="293.90909090909093"/>
      <point x="230.18181818181816" y="288.1818181818182"/>
      <point x="249.0909090909091" y="288.1818181818182" type="curve" smooth="yes"/>
      <point x="293.54545454545456" y="288.1818181818182"/>
      <point x="342.2727272727273" y="330.09090909090907"/>
      <point x="376.54545454545456" y="401.6363636363636" type="curve"/>
      <point x="347.9090909090909" y="387.0909090909091" type="line"/>
      <point x="365.90909090909093" y="367.7272727272727"/>
      <point x="381.1818181818182" y="334.3636363636364"/>
      <point x="381.1818181818182" y="280.45454545454544" type="curve" smooth="yes"/>
      <point x="381.1818181818182" y="179.0"/>
      <point x="333.0" y="123.18181818181817"/>
      <point x="260.1818181818182" y="123.18181818181817" type="curve" smooth="yes"/>
      <point x="140.63636363636363" y="123.18181818181817"/>
      <point x="82.45454545454545" y="239.54545454545456"/>
      <point x="48.81818181818182" y="497.3636363636364" type="curve"/>
      <point x="19.454545454545453" y="492.72727272727275" type="line"/>
      <point x="51.18181818181818" y="194.63636363636363"/>
      <point x="127.18181818181819" y="65.45454545454545"/>
    </contour>
  </outline>
</glyph>
<glyph name="ddha-beng" format="2">
  <advance width="370.54545454545456"/>
  <unicode hex="09A2"/>
  <anchor x="245.36363636363637" y="44.09090909090909" name="bottom"/>
  <anchor x="289.54545454545456" y="6.363636363636362" name="bottom.rakaar"/>
  <anchor x="243.09090909090907" y="46.0" name="bottom.rvocalic"/>
  <anchor x="200.0909090909091" y="41.90909090909091" name="bottom.virama"/>
  <anchor x="165.54545454545456" y="-53.81818181818182" name="nukta"/>
  <anchor x="111.18181818181819" y="584.5454545454545" name="top"/>
  <anchor x="112.63636363636364" y="584.5454545454545" name="topright"/>
  <anchor x="185.27272727272728" y="0.0" name="vedic"/>
  <outline>
    <contour>
      <point x="159.63636363636363" y="46.0" type="curve" smooth="yes"/>
      <point x="260.54545454545456" y="46.0"/>
      <point x="332.09090909090907" y="214.90909090909093"/>
      <point x="332.09090909090907" y="343.3636363636364" type="curve" smooth="yes"/>
      <point x="332.09090909090907" y="411.0"/>
      <point x="302.1818181818182" y="444.27272727272725"/>
      <point x="264.5454545454545" y="444.27272727272725" type="curve" smooth="yes"/>
      <point x="223.63636363636365" y="444.27272727272725"/>
      <point x="202.54545454545453" y="411.09090909090907"/>
      <point x="202.54545454545453" y="375.72727272727275" type="curve" smooth="yes"/>
      <point x="202.54545454545453" y="338.54545454545456"/>
      <point x="225.0909090909091" y="310.3636363636364"/>
      <point x="261.0" y="310.3636363636364" type="curve" smooth="yes"/>
      <point x="278.54545454545456" y="310.3636363636364"/>
      <point x="292.2727272727273" y="321.0"/>
      <point x="300.9090909090909" y="339.2727272727273" type="curve"/>
      <point x="283.09090909090907" y="353.72727272727275" type="line"/>
      <point x="280.0" y="220.63636363636363"/>
      <point x="217.18181818181816" y="91.18181818181819"/>
      <point x="151.45454545454544" y="91.18181818181819" type="curve" smooth="yes"/>
      <point x="123.63636363636364" y="91.18181818181819"/>
      <point x="108.0" y="111.72727272727272"/>
      <point x="108.0" y="150.0909090909091" type="curve" smooth="yes"/>
      <point x="108.0" y="584.5454545454545" type="line"/>
      <point x="391.0" y="584.5454545454545" type="line"/>
      <point x="370.2727272727273" y="622.0" type="line"/>
      <point x="-20.454545454545453" y="622.0" type="line"/>
      <point x="1.272727272727273" y="584.5454545454545" type="line"/>
      <point x="70.18181818181819" y="584.5454545454545" type="line"/>
      <point x="70.18181818181819" y="148.0909090909091" type="line" smooth="yes"/>
      <point x="70.18181818181819" y="82.72727272727272"/>
      <point x="109.90909090909092" y="46.0"/>
    </contour>
  </outline>
</glyph>
<glyph name="ta-beng" format="2">
  <advance width="451.54545454545456"/>
  <unicode hex="09A4"/>
  <anchor x="318.1818181818182" y="56.45454545454545" name="bottom"/>
  <anchor x="380.0" y="-7.636363636363637" name="bottom.rakaar"/>
  <anchor x="325.7272727272727" y="72.27272727272728" name="bottom.rvocalic"/>
  <anchor x="289.3636363636364" y="28.727272727272727" name="bottom.virama"/>
  <anchor x="270.27272727272725" y="584.5454545454545" name="top"/>
  <anchor x="272.27272727272725" y="584.5454545454545" name="topright"/>
  <anchor x="225.54545454545456" y="0.0" name="vedic"/>
  <outline>
    <contour>
      <point x="273.1818181818182" y="72.9090909090909" type="curve" smooth="yes"/>
      <point x="355.27272727272725" y="72.9090909090909"/>
      <point x="425.1818181818182" y="133.54545454545453"/>
      <point x="425.18181818181813" y="274.3636363636364" type="curve" smooth="yes"/>
      <point x="425.1818181818182" y="407.27272727272725"/>
      <point x="364.8181818181818" y="491.1818181818182"/>
      <point x="266.6363636363636" y="491.1818181818182" type="curve" smooth="yes"/>
      <point x="208.36363636363637" y="491.1818181818182"/>
      <point x="174.54545454545453" y="455.3636363636364"/>
      <point x="174.54545454545453" y="399.90909090909093" type="curve" smooth="yes"/>
      <point x="174.54545454545453" y="355.90909090909093"/>
      <point x="201.0909090909091" y="322.4545454545455"/>
      <point x="244.1818181818182" y="322.4545454545455" type="curve" smooth="yes"/>
      <point x="284.45454545454544" y="322.4545454545455"/>
      <point x="307.0909090909091" y="354.7272727272727"/>
      <point x="307.0909090909091" y="393.45454545454544" type="curve" smooth="yes"/>
      <point x="307.0909090909091" y="421.6363636363636"/>
      <point x="295.3636363636363" y="448.0"/>
      <point x="282.0" y="458.4545454545455" type="curve"/>
      <point x="256.72727272727275" y="425.0" type="line"/>
      <point x="265.27272727272725" y="430.8181818181818"/>
      <point x="279.1818181818182" y="434.6363636363636"/>
      <point x="296.0" y="434.6363636363636" type="curve" smooth="yes"/>
      <point x="346.1818181818182" y="434.6363636363636"/>
      <point x="388.45454545454544" y="386.54545454545456"/>
      <point x="388.45454545454544" y="287.9090909090909" type="curve" smooth="yes"/>
      <point x="388.45454545454544" y="175.9090909090909"/>
      <point x="335.0" y="130.63636363636363"/>
      <point x="270.09090909090907" y="130.63636363636363" type="curve" smooth="yes"/>
      <point x="168.36363636363635" y="130.63636363636363"/>
      <point x="98.9090909090909" y="226.0"/>
      <point x="49.27272727272727" y="505.0" type="curve"/>
      <point x="19.909090909090907" y="498.8181818181818" type="line"/>
      <point x="69.45454545454545" y="181.0"/>
      <point x="153.27272727272725" y="72.9090909090909"/>
    </contour>
    <contour>
      <point x="-0.2727272727272727" y="584.5454545454545" type="line"/>
      <point x="472.00000000000006" y="584.5454545454545" type="line"/>
      <point x="450.8181818181818" y="622.0" type="line"/>
      <point x="-20.454545454545453" y="622.0" type="line"/>
    </contour>
  </outline>
</glyph>
<glyph name="tha-beng" format="2">
  <advance width="408.45454545454544"/>
  <unicode hex="09A5"/>
  <anchor x="331.90909090909093" y="21.363636363636363" name="bottom"/>
  <anchor x="337.3636363636364" y="47.272727272727266" name="bottom.rakaar"/>
  <anchor x="338.27272727272725" y="9.272727272727273" name="bottom.rvocalic"/>
  <anchor x="328.8181818181818" y="17.818181818181817" name="bottom.virama"/>
  <anchor x="332.27272727272725" y="553.1818181818181" name="top"/>
  <anchor x="326.3636363636364" y="558.8181818181819" name="topright"/>
  <anchor x="203.72727272727272" y="0.0" name="vedic"/>
  <outline>
    <contour>
      <point x="334.1818181818182" y="-8.454545454545455" type="line"/>
      <point x="338.27272727272725" y="-7.454545454545455" type="line"/>
      <point x="338.27272727272725" y="584.5454545454545" type="line"/>
      <point x="428.90909090909093" y="584.5454545454545" type="line"/>
      <point x="408.1818181818182" y="622.0" type="line"/>
      <point x="336.6363636363636" y="622.0" type="line"/>
      <point x="333.0" y="663.1818181818181" type="line"/>
      <point x="304.0" y="687.0909090909091" type="line"/>
      <point x="300.4545454545455" y="686.0909090909091" type="line"/>
      <point x="300.4545454545455" y="68.27272727272727" type="line"/>
      <point x="310.45454545454544" y="67.9090909090909" type="line"/>
      <point x="277.8181818181818" y="182.27272727272728"/>
      <point x="188.8181818181818" y="271.7272727272727"/>
      <point x="108.18181818181817" y="306.3636363636364" type="curve"/>
      <point x="114.36363636363637" y="293.6363636363636" type="line"/>
      <point x="199.36363636363635" y="313.6363636363637"/>
      <point x="244.18181818181816" y="367.2727272727273"/>
      <point x="244.18181818181816" y="461.7272727272727" type="curve" smooth="yes"/>
      <point x="244.18181818181816" y="573.9090909090909"/>
      <point x="190.72727272727275" y="624.0909090909091"/>
      <point x="122.81818181818181" y="624.0909090909091" type="curve" smooth="yes"/>
      <point x="64.0" y="624.0909090909091"/>
      <point x="21.272727272727273" y="572.5454545454545"/>
      <point x="21.272727272727273" y="519.4545454545454" type="curve" smooth="yes"/>
      <point x="21.272727272727273" y="477.09090909090907"/>
      <point x="45.27272727272727" y="451.6363636363636"/>
      <point x="76.9090909090909" y="451.6363636363636" type="curve" smooth="yes"/>
      <point x="105.63636363636364" y="451.6363636363636"/>
      <point x="123.9090909090909" y="471.6363636363636"/>
      <point x="123.9090909090909" y="503.6363636363636" type="curve" smooth="yes"/>
      <point x="123.9090909090909" y="528.4545454545455"/>
      <point x="111.9090909090909" y="549.3636363636364"/>
      <point x="87.27272727272728" y="553.1818181818181" type="curve"/>
      <point x="89.27272727272728" y="538.4545454545455" type="line"/>
      <point x="94.81818181818183" y="560.2727272727273"/>
      <point x="110.63636363636364" y="579.2727272727273"/>
      <point x="138.72727272727272" y="579.2727272727273" type="curve" smooth="yes"/>
      <point x="182.36363636363637" y="579.2727272727273"/>
      <point x="206.9090909090909" y="535.0"/>
      <point x="206.9090909090909" y="472.1818181818182" type="curve" smooth="yes"/>
      <point x="206.9090909090909" y="376.5454545454545"/>
      <point x="133.72727272727272" y="345.09090909090907"/>
      <point x="50.54545454545455" y="337.3636363636364" type="curve"/>
      <point x="73.0909090909091" y="261.72727272727275" type="line"/>
      <point x="172.27272727272728" y="235.63636363636363"/>
      <point x="260.09090909090907" y="145.72727272727272"/>
      <point x="306.0" y="17.636363636363637" type="curve"/>
    </contour>
  </outline>
</glyph>
<glyph name="da-beng" format="2">
  <advance width="388.0"/>
  <unicode hex="09A6"/>
  <anchor x="313.8181818181818" y="80.18181818181819" name="bottom"/>
  <anchor x="325.7272727272727" y="70.0" name="bottom.rakaar"/>
  <anchor x="326.0909090909091" y="12.636363636363637" name="bottom.rvocalic"/>
  <anchor x="315.90909090909093" y="0.0" name="bottom.virama"/>
  <anchor x="98.72727272727273" y="584.5454545454545" name="top"/>
  <anchor x="101.18181818181819" y="584.5454545454545" name="topright"/>
  <anchor x="194.0" y="0.0" name="vedic"/>
  <outline>
    <contour>
      <point x="297.1818181818182" y="-3.4545454545454546" type="curve"/>
      <point x="326.09090909090907" y="6.2727272727272725" type="line"/>
      <point x="310.0" y="67.63636363636364"/>
      <point x="298.2727272727273" y="127.18181818181817"/>
      <point x="298.2727272727273" y="204.9090909090909" type="curve" smooth="yes"/>
      <point x="298.2727272727273" y="293.1818181818182"/>
      <point x="314.72727272727275" y="371.27272727272725"/>
      <point x="343.4545454545455" y="429.3636363636364" type="curve"/>
      <point x="290.7272727272727" y="481.27272727272725" type="line"/>
      <point x="220.8181818181818" y="429.8181818181818"/>
      <point x="134.54545454545456" y="332.45454545454544"/>
      <point x="88.36363636363636" y="257.7272727272727" type="curve"/>
      <point x="104.18181818181819" y="246.90909090909093" type="line"/>
      <point x="104.18181818181819" y="584.5454545454545" type="line"/>
      <point x="408.45454545454544" y="584.5454545454545" type="line"/>
      <point x="388.1818181818182" y="622.0" type="line"/>
      <point x="-20.454545454545453" y="622.0" type="line"/>
      <point x="0.7272727272727273" y="584.5454545454545" type="line"/>
      <point x="66.36363636363636" y="584.5454545454545" type="line"/>
      <point x="66.36363636363636" y="217.27272727272725" type="line"/>
      <point x="103.0909090909091" y="195.0" type="line"/>
      <point x="166.81818181818184" y="289.72727272727275"/>
      <point x="240.63636363636365" y="376.1818181818182"/>
      <point x="303.6363636363636" y="424.8181818181818" type="curve"/>
      <point x="293.72727272727275" y="433.3636363636364" type="line"/>
      <point x="273.0909090909091" y="385.90909090909093"/>
      <point x="259.3636363636364" y="306.72727272727275"/>
      <point x="259.3636363636364" y="227.63636363636365" type="curve" smooth="yes"/>
      <point x="259.3636363636364" y="145.0909090909091"/>
      <point x="274.45454545454544" y="70.45454545454545"/>
    </contour>
  </outline>
</glyph>
<glyph name="dha-beng" format="2">
  <advance width="386.4545454545455"/>
  <unicode hex="09A7"/>
  <anchor x="310.45454545454544" y="21.363636363636363" name="bottom"/>
  <anchor x="312.09090909090907" y="47.272727272727266" name="bottom.rakaar"/>
  <anchor x="316.27272727272725" y="7.090909090909092" name="bottom.rvocalic"/>
  <anchor x="309.54545454545456" y="17.818181818181817" name="bottom.virama"/>
  <anchor x="313.54545454545456" y="584.5454545454545" name="top"/>
  <anchor x="311.9090909090909" y="584.5454545454545" name="topright"/>
  <anchor x="193.0" y="0.0" name="vedic"/>
  <outline>
    <contour>
      <point x="311.6363636363636" y="-8.454545454545455" type="line"/>
      <point x="316.27272727272725" y="-7.454545454545455" type="line"/>
      <point x="316.27272727272725" y="584.5454545454545" type="line"/>
      <point x="406.9090909090909" y="584.5454545454545" type="line"/>
      <point x="386.1818181818182" y="622.0" type="line"/>
      <point x="278.4545454545455" y="622.0" type="line"/>
      <point x="278.4545454545455" y="500.9090909090909" type="line"/>
      <point x="284.90909090909093" y="518.1818181818182" type="line"/>
      <point x="192.54545454545453" y="473.0"/>
      <point x="103.0909090909091" y="411.09090909090907"/>
      <point x="21.81818181818182" y="340.1818181818182" type="curve"/>
      <point x="59.0" y="268.6363636363636" type="line"/>
      <point x="157.36363636363637" y="228.0"/>
      <point x="241.36363636363637" y="140.81818181818184"/>
      <point x="285.09090909090907" y="13.818181818181817" type="curve"/>
    </contour>
    <contour>
      <point x="278.4545454545455" y="66.63636363636364" type="line"/>
      <point x="290.0909090909091" y="60.81818181818182" type="line"/>
      <point x="258.0" y="185.54545454545456"/>
      <point x="158.0909090909091" y="279.3636363636364"/>
      <point x="71.72727272727272" y="319.8181818181818" type="curve"/>
      <point x="74.0909090909091" y="307.09090909090907" type="line"/>
      <point x="138.54545454545456" y="371.6363636363636"/>
      <point x="224.00000000000003" y="423.1818181818182"/>
      <point x="285.0909090909091" y="454.8181818181818" type="curve"/>
      <point x="278.4545454545455" y="473.3636363636364" type="line"/>
    </contour>
    <contour>
      <point x="153.9090909090909" y="415.6363636363636" type="curve"/>
      <point x="170.27272727272728" y="439.9090909090909" type="line"/>
      <point x="127.36363636363636" y="443.0"/>
      <point x="90.90909090909092" y="472.6363636363637"/>
      <point x="90.90909090909092" y="517.4545454545455" type="curve" smooth="yes"/>
      <point x="90.90909090909092" y="561.9090909090909"/>
      <point x="116.63636363636364" y="580.9090909090909"/>
      <point x="140.9090909090909" y="580.9090909090909" type="curve" smooth="yes"/>
      <point x="147.36363636363637" y="580.9090909090909"/>
      <point x="153.81818181818184" y="579.0"/>
      <point x="160.36363636363637" y="576.0" type="curve"/>
      <point x="142.27272727272728" y="599.5454545454545" type="line"/>
      <point x="132.63636363636365" y="591.2727272727273"/>
      <point x="128.36363636363635" y="576.7272727272727"/>
      <point x="128.36363636363635" y="563.9090909090909" type="curve" smooth="yes"/>
      <point x="128.36363636363635" y="532.9090909090909"/>
      <point x="145.72727272727272" y="517.1818181818181"/>
      <point x="169.0" y="517.1818181818181" type="curve" smooth="yes"/>
      <point x="191.45454545454544" y="517.1818181818181"/>
      <point x="209.8181818181818" y="535.5454545454545"/>
      <point x="209.8181818181818" y="566.0909090909091" type="curve" smooth="yes"/>
      <point x="209.8181818181818" y="600.2727272727273"/>
      <point x="189.36363636363635" y="630.5454545454545"/>
      <point x="143.9090909090909" y="630.5454545454545" type="curve" smooth="yes"/>
      <point x="92.81818181818181" y="630.5454545454545"/>
      <point x="49.90909090909091" y="591.5454545454546"/>
      <point x="49.90909090909091" y="527.0909090909091" type="curve" smooth="yes"/>
      <point x="49.90909090909091" y="452.54545454545456"/>
      <point x="111.90909090909092" y="415.6363636363636"/>
    </contour>
  </outline>
</glyph>
<glyph name="na-beng" format="2">
  <advance width="377.8181818181818"/>
  <unicode hex="09A8"/>
  <anchor x="295.3636363636364" y="66.45454545454545" name="bottom"/>
  <anchor x="306.72727272727275" y="47.272727272727266" name="bottom.rakaar"/>
  <anchor x="307.6363636363636" y="8.727272727272727" name="bottom.rvocalic"/>
  <anchor x="298.1818181818182" y="17.818181818181817" name="bottom.virama"/>
  <anchor x="304.9090909090909" y="584.5454545454545" name="top"/>
  <anchor x="303.27272727272725" y="584.5454545454545" name="topright"/>
  <anchor x="188.9090909090909" y="0.0" name="vedic"/>
  <outline>
    <contour>
      <point x="303.54545454545456" y="-8.454545454545455" type="line"/>
      <point x="307.6363636363636" y="-7.454545454545455" type="line"/>
      <point x="307.6363636363636" y="584.5454545454545" type="line"/>
      <point x="398.2727272727273" y="584.5454545454545" type="line"/>
      <point x="377.54545454545456" y="622.0" type="line"/>
      <point x="-20.454545454545453" y="622.0" type="line"/>
      <point x="0.27272727272727315" y="584.5454545454545" type="line"/>
      <point x="269.81818181818187" y="584.5454545454545" type="line"/>
      <point x="269.81818181818187" y="311.8181818181818" type="line" smooth="yes"/>
      <point x="269.81818181818187" y="257.90909090909093"/>
      <point x="274.0909090909091" y="207.72727272727275"/>
      <point x="276.6363636363636" y="166.36363636363637" type="curve"/>
      <point x="280.72727272727275" y="160.36363636363637" type="line"/>
      <point x="265.0" y="291.09090909090907"/>
      <point x="206.1818181818182" y="409.1818181818182"/>
      <point x="103.36363636363636" y="409.1818181818182" type="curve" smooth="yes"/>
      <point x="54.99999999999999" y="409.1818181818182"/>
      <point x="18.81818181818182" y="375.8181818181818"/>
      <point x="18.81818181818182" y="320.6363636363636" type="curve" smooth="yes"/>
      <point x="18.81818181818182" y="273.7272727272727"/>
      <point x="44.72727272727273" y="237.63636363636363"/>
      <point x="87.81818181818183" y="237.63636363636363" type="curve" smooth="yes"/>
      <point x="127.18181818181817" y="237.63636363636363"/>
      <point x="149.0" y="268.2727272727273"/>
      <point x="149.0" y="308.0" type="curve" smooth="yes"/>
      <point x="149.0" y="330.3636363636364"/>
      <point x="142.0909090909091" y="352.3636363636364"/>
      <point x="127.99999999999999" y="362.54545454545456" type="curve"/>
      <point x="110.72727272727275" y="339.72727272727275" type="line"/>
      <point x="116.36363636363636" y="343.3636363636364"/>
      <point x="126.54545454545453" y="345.8181818181818"/>
      <point x="136.63636363636365" y="345.8181818181818" type="curve" smooth="yes"/>
      <point x="223.1818181818182" y="345.8181818181818"/>
      <point x="272.81818181818187" y="155.36363636363637"/>
      <point x="277.54545454545456" y="15.454545454545453" type="curve"/>
    </contour>
  </outline>
</glyph>
<glyph name="pa-beng" format="2">
  <advance width="469.8181818181818"/>
  <unicode hex="09AA"/>
  <anchor x="387.3636363636364" y="56.72727272727272" name="bottom"/>
  <anchor x="398.72727272727275" y="-9.363636363636363" name="bottom.rakaar"/>
  <anchor x="399.6363636363637" y="-2.454545454545454" name="bottom.rvocalic"/>
  <anchor x="386.09090909090907" y="5.545454545454546" name="bottom.virama"/>
  <anchor x="393.6363636363637" y="553.1818181818181" name="top"/>
  <anchor x="387.72727272727275" y="558.8181818181819" name="topright"/>
  <anchor x="234.9090909090909" y="0.0" name="vedic"/>
  <outline>
    <contour>
      <point x="396.0909090909091" y="-18.18181818181818" type="line"/>
      <point x="399.6363636363637" y="-17.18181818181818" type="line"/>
      <point x="399.6363636363637" y="584.5454545454545" type="line"/>
      <point x="490.2727272727273" y="584.5454545454545" type="line"/>
      <point x="469.54545454545456" y="622.0" type="line"/>
      <point x="398.00000000000006" y="622.0" type="line"/>
      <point x="394.3636363636363" y="663.1818181818181" type="line"/>
      <point x="365.3636363636364" y="687.0909090909091" type="line"/>
      <point x="361.8181818181818" y="686.0909090909091" type="line"/>
      <point x="361.8181818181818" y="523.2727272727273" type="line" smooth="yes"/>
      <point x="361.8181818181818" y="475.45454545454544"/>
      <point x="362.9090909090909" y="435.9090909090909"/>
      <point x="366.54545454545456" y="389.1818181818182" type="curve"/>
      <point x="372.54545454545456" y="392.1818181818182" type="line"/>
      <point x="336.6363636363637" y="509.09090909090907"/>
      <point x="276.3636363636364" y="626.0"/>
      <point x="179.0" y="626.0" type="curve" smooth="yes"/>
      <point x="93.18181818181817" y="626.0"/>
      <point x="33.0" y="529.0909090909091"/>
      <point x="7.81818181818182" y="430.27272727272725" type="curve"/>
      <point x="52.99999999999999" y="391.7272727272727" type="line"/>
      <point x="66.0" y="407.7272727272727"/>
      <point x="87.72727272727272" y="416.7272727272727"/>
      <point x="108.0" y="416.7272727272727" type="curve" smooth="yes"/>
      <point x="143.81818181818184" y="416.7272727272727"/>
      <point x="158.8181818181818" y="386.6363636363636"/>
      <point x="158.8181818181818" y="350.8181818181818" type="curve" smooth="yes"/>
      <point x="158.8181818181818" y="324.45454545454544"/>
      <point x="149.0909090909091" y="294.45454545454544"/>
      <point x="132.63636363636363" y="273.90909090909093" type="curve"/>
      <point x="174.63636363636363" y="240.0909090909091" type="line"/>
      <point x="327.9090909090909" y="464.54545454545456" type="line"/>
      <point x="301.9090909090909" y="515.7272727272727" type="line"/>
      <point x="167.0909090909091" y="313.0" type="line"/>
      <point x="177.36363636363635" y="300.3636363636364" type="line"/>
      <point x="184.0" y="319.8181818181818"/>
      <point x="188.0909090909091" y="341.81818181818187"/>
      <point x="188.0909090909091" y="361.8181818181818" type="curve" smooth="yes"/>
      <point x="188.0909090909091" y="411.72727272727275"/>
      <point x="164.72727272727272" y="456.4545454545455"/>
      <point x="112.9090909090909" y="456.4545454545455" type="curve" smooth="yes"/>
      <point x="90.0909090909091" y="456.4545454545455"/>
      <point x="65.81818181818181" y="449.0"/>
      <point x="50.90909090909091" y="434.8181818181818" type="curve"/>
      <point x="67.0" y="425.0" type="line"/>
      <point x="78.81818181818183" y="501.4545454545455"/>
      <point x="128.27272727272728" y="579.5454545454545"/>
      <point x="189.54545454545456" y="579.5454545454545" type="curve" smooth="yes"/>
      <point x="273.6363636363636" y="579.5454545454545"/>
      <point x="334.45454545454544" y="442.90909090909093"/>
      <point x="367.3636363636364" y="318.6363636363636" type="curve"/>
      <point x="361.8181818181818" y="374.6363636363637" type="line"/>
      <point x="361.8181818181818" y="3.0" type="line"/>
    </contour>
  </outline>
</glyph>
<glyph name="pha-beng" format="2">
  <advance width="504.4545454545455"/>
  <unicode hex="09AB"/>
  <anchor x="316.8181818181818" y="21.363636363636363" name="bottom"/>
  <anchor x="318.4545454545455" y="47.272727272727266" name="bottom.rakaar"/>
  <anchor x="322.6363636363637" y="7.090909090909092" name="bottom.rvocalic"/>
  <anchor x="315.9090909090909" y="17.818181818181817" name="bottom.virama"/>
  <anchor x="319.90909090909093" y="584.5454545454545" name="top"/>
  <anchor x="318.2727272727273" y="584.5454545454545" name="topright"/>
  <anchor x="251.72727272727272" y="0.0" name="vedic"/>
  <outline>
    <contour>
      <point x="318.0" y="-8.454545454545455" type="line"/>
      <point x="322.6363636363637" y="-7.454545454545455" type="line"/>
      <point x="322.6363636363637" y="485.45454545454544" type="line"/>
      <point x="308.4545454545455" y="463.45454545454544" type="line"/>
      <point x="317.3636363636364" y="465.0"/>
      <point x="328.1818181818182" y="466.0"/>
      <point x="336.5454545454545" y="466.0" type="curve" smooth="yes"/>
      <point x="407.81818181818187" y="466.0"/>
      <point x="454.0" y="420.7272727272727"/>
      <point x="454.0" y="341.9090909090909" type="curve" smooth="yes"/>
      <point x="454.0" y="324.0"/>
      <point x="450.99999999999994" y="309.1818181818182"/>
      <point x="443.1818181818182" y="298.1818181818182" type="curve"/>
      <point x="456.2727272727273" y="297.72727272727275" type="line"/>
      <point x="451.6363636363636" y="330.90909090909093"/>
      <point x="433.54545454545456" y="346.54545454545456"/>
      <point x="408.54545454545456" y="346.54545454545456" type="curve" smooth="yes"/>
      <point x="377.54545454545456" y="346.54545454545456"/>
      <point x="359.72727272727275" y="322.0"/>
      <point x="359.72727272727275" y="289.45454545454544" type="curve" smooth="yes"/>
      <point x="359.72727272727275" y="256.72727272727275"/>
      <point x="379.2727272727273" y="227.8181818181818"/>
      <point x="415.6363636363637" y="227.8181818181818" type="curve" smooth="yes"/>
      <point x="455.18181818181813" y="227.8181818181818"/>
      <point x="484.90909090909093" y="267.54545454545456"/>
      <point x="484.90909090909093" y="335.7272727272727" type="curve" smooth="yes"/>
      <point x="484.90909090909093" y="463.2727272727273"/>
      <point x="406.6363636363637" y="521.0"/>
      <point x="317.2727272727273" y="521.0" type="curve" smooth="yes"/>
      <point x="304.3636363636364" y="521.0"/>
      <point x="294.2727272727273" y="520.0"/>
      <point x="284.8181818181818" y="517.9090909090909" type="curve"/>
      <point x="284.8181818181818" y="66.63636363636364" type="line"/>
      <point x="296.45454545454544" y="60.81818181818182" type="line"/>
      <point x="264.3636363636364" y="185.54545454545453"/>
      <point x="163.45454545454547" y="262.5454545454545"/>
      <point x="77.0909090909091" y="288.45454545454544" type="curve"/>
      <point x="78.45454545454545" y="274.6363636363636" type="line"/>
      <point x="121.0" y="319.1818181818182"/>
      <point x="176.0909090909091" y="362.6363636363637"/>
      <point x="226.0" y="398.3636363636363" type="curve"/>
      <point x="185.27272727272725" y="485.81818181818187"/>
      <point x="122.72727272727273" y="554.2727272727273"/>
      <point x="45.0" y="594.7272727272727" type="curve"/>
      <point x="45.90909090909091" y="584.5454545454545" type="line"/>
      <point x="524.9090909090909" y="584.5454545454545" type="line"/>
      <point x="504.7272727272727" y="622.0" type="line"/>
      <point x="-20.454545454545453" y="622.0" type="line"/>
      <point x="22.727272727272727" y="542.3636363636364" type="line"/>
      <point x="89.09090909090908" y="517.2727272727273"/>
      <point x="140.1818181818182" y="475.3636363636364"/>
      <point x="185.45454545454544" y="411.54545454545456" type="curve"/>
      <point x="182.0909090909091" y="435.72727272727275" type="line"/>
      <point x="143.72727272727275" y="409.0"/>
      <point x="74.0909090909091" y="356.2727272727273"/>
      <point x="27.727272727272727" y="307.8181818181818" type="curve"/>
      <point x="66.54545454545455" y="236.72727272727275" type="line"/>
      <point x="164.9090909090909" y="210.63636363636363"/>
      <point x="247.72727272727272" y="140.8181818181818"/>
      <point x="291.45454545454544" y="13.818181818181817" type="curve"/>
    </contour>
  </outline>
</glyph>
<glyph name="ba-beng" format="2">
  <advance width="389.6363636363637"/>
  <unicode hex="09AC"/>
  <anchor x="313.6363636363636" y="21.363636363636363" name="bottom"/>
  <anchor x="315.27272727272725" y="47.272727272727266" name="bottom.rakaar"/>
  <anchor x="319.45454545454544" y="7.090909090909091" name="bottom.rvocalic"/>
  <anchor x="312.72727272727275" y="8.727272727272727" name="bottom.virama"/>
  <anchor x="148.54545454545453" y="87.0909090909091" name="nukta"/>
  <anchor x="316.7272727272727" y="584.5454545454545" name="top"/>
  <anchor x="315.09090909090907" y="584.5454545454545" name="topright"/>
  <anchor x="194.81818181818184" y="0.0" name="vedic"/>
  <outline>
    <contour>
      <point x="314.8181818181818" y="-8.454545454545455" type="line"/>
      <point x="319.45454545454544" y="-7.454545454545455" type="line"/>
      <point x="319.45454545454544" y="584.5454545454545" type="line"/>
      <point x="410.09090909090907" y="584.5454545454545" type="line"/>
      <point x="389.3636363636364" y="622.0" type="line"/>
      <point x="-20.454545454545453" y="622.0" type="line"/>
      <point x="0.27272727272727315" y="584.5454545454545" type="line"/>
      <point x="281.6363636363636" y="584.5454545454545" type="line"/>
      <point x="281.6363636363636" y="500.9090909090909" type="line"/>
      <point x="288.0909090909091" y="518.1818181818181" type="line"/>
      <point x="195.72727272727275" y="473.0"/>
      <point x="106.27272727272728" y="411.0909090909091"/>
      <point x="25.0" y="340.1818181818182" type="curve"/>
      <point x="62.18181818181818" y="268.6363636363636" type="line"/>
      <point x="160.54545454545456" y="228.0"/>
      <point x="244.54545454545453" y="140.8181818181818"/>
      <point x="288.2727272727273" y="13.818181818181817" type="curve"/>
    </contour>
    <contour>
      <point x="281.6363636363636" y="66.63636363636364" type="line"/>
      <point x="293.27272727272725" y="60.81818181818182" type="line"/>
      <point x="261.1818181818182" y="185.54545454545456"/>
      <point x="161.27272727272728" y="279.3636363636364"/>
      <point x="74.9090909090909" y="319.8181818181818" type="curve"/>
      <point x="77.27272727272728" y="307.09090909090907" type="line"/>
      <point x="141.72727272727272" y="371.6363636363636"/>
      <point x="227.1818181818182" y="423.1818181818182"/>
      <point x="288.2727272727273" y="454.8181818181818" type="curve"/>
      <point x="281.6363636363636" y="473.3636363636364" type="line"/>
    </contour>
  </outline>
</glyph>
